<svg width="288" height="288" viewBox="0 0 288 288" fill="none" xmlns="http://www.w3.org/2000/svg">
<circle cx="144" cy="144" r="53" fill="white"/>
<path d="M174.542 105.906C174.605 105.906 174.7 106.002 174.829 106.193C175.083 106.767 175.657 108.14 176.552 110.308C177.445 112.603 177.987 114.038 178.179 114.612C178.242 114.995 178.275 115.282 178.275 115.473C178.275 116.111 177.668 115.729 176.456 114.325C176.327 114.134 176.265 114.23 176.265 114.612C176.265 114.676 176.871 123.127 178.084 139.965C179.36 156.803 179.998 165.956 179.998 167.422C179.998 171.568 179.232 174.852 177.701 177.275C176.361 179.253 174.796 180.241 173.011 180.241C171.35 180.241 169.628 179.54 167.842 178.137C166.948 177.371 166.246 176.575 165.736 175.745L160.759 177.755C158.462 178.712 156.738 179.445 155.59 179.955C153.355 180.976 151.824 181.806 150.995 182.442C149.399 183.59 147.166 185.791 144.295 189.044C142.508 191.021 140.72 192.009 138.935 192.009C137.466 192.009 136.191 191.372 135.106 190.096C133.958 188.756 133.383 187.099 133.383 185.121C133.383 183.007 134.113 180.329 135.574 177.088C134.552 177.763 133.439 178.432 132.233 179.095C127.384 181.711 122.853 183.018 118.642 183.018C113.027 183.017 109.134 180.338 106.965 174.98C106.582 173.961 106.391 172.653 106.391 171.058C106.391 168.316 106.869 165.796 107.826 163.5C107.953 163.118 108.08 162.926 108.209 162.926C108.336 162.926 108.4 163.022 108.4 163.213V163.691C107.698 166.243 107.348 167.966 107.348 168.858C107.348 171.027 108.114 173.067 109.645 174.98C111.686 177.405 114.685 178.616 118.643 178.616C122.089 178.616 125.726 177.851 129.555 176.32C132.68 175.045 135.489 173.483 137.978 171.633C140.21 169.911 141.327 168.7 141.327 167.997C141.327 167.87 140.88 166.944 139.987 165.223C138.839 163.118 138.009 161.078 137.499 159.1C137.308 158.463 137.067 158.032 136.78 157.808C136.494 157.585 136.35 157.315 136.35 156.995C136.35 156.804 136.541 155.751 136.924 153.838C136.987 153.455 137.083 153.264 137.211 153.264C137.338 153.264 137.498 153.36 137.689 153.551C138.264 154.125 139.475 155.306 141.327 157.091C141.646 157.411 141.806 157.665 141.806 157.856C141.805 158.048 141.614 158.144 141.231 158.144C140.849 158.144 140.274 158.048 139.509 157.856C139.572 158.049 140.179 159.292 141.327 161.587C142.284 163.5 142.763 165.127 142.763 166.467C142.763 169.145 142.155 171.187 140.943 172.59C139.852 173.821 138.48 175.032 136.826 176.224C136.584 176.895 136.266 177.725 135.872 178.711C134.915 181.263 134.437 183.303 134.437 184.834C134.437 185.919 134.691 186.811 135.202 187.513C135.839 188.278 136.669 188.661 137.69 188.661C139.541 188.661 141.424 187.769 143.338 185.982C143.912 185.281 144.487 184.611 145.062 183.973C145.635 183.208 146.241 182.475 146.879 181.772C148.473 180.115 150.517 178.616 153.006 177.276C154.537 176.511 157.121 175.363 160.759 173.832L164.396 172.397C163.884 170.996 163.63 169.56 163.63 168.093C163.63 165.988 163.948 164.265 164.587 162.926C165.288 161.586 166.182 160.917 167.268 160.917C168.225 160.917 169.117 161.716 169.947 163.309C170.713 164.648 171.096 165.892 171.096 167.04C171.096 169.91 170.235 172.27 168.512 174.119C169.787 175.331 171.288 175.937 173.011 175.937C174.413 175.936 175.786 175.396 177.126 174.311C177.571 173.992 177.796 172.844 177.796 170.866C177.796 169.655 177.093 160.119 175.69 142.261C174.413 124.405 173.776 114.743 173.776 113.273C173.776 111.872 173.521 110.723 173.011 109.829C173.011 109.255 173.425 108.044 174.255 106.193C174.318 106.002 174.413 105.906 174.542 105.906ZM154.346 184.356C154.345 184.421 154.281 184.677 154.154 185.121C153.58 186.843 153.293 188.056 153.293 188.757C153.293 189.713 153.547 190.191 154.059 190.191C154.377 190.191 154.729 189.842 155.111 189.14L155.303 188.948V189.14C154.983 190.861 154.442 191.722 153.676 191.723C152.91 191.723 152.527 191.116 152.527 189.904C152.527 188.311 152.973 186.684 153.867 185.025C154.121 184.58 154.281 184.356 154.346 184.356ZM130.32 184.643L130.225 185.217C129.713 186.685 129.459 187.737 129.459 188.374C129.459 189.14 129.682 189.522 130.129 189.522C130.383 189.522 130.67 189.204 130.99 188.565L131.182 188.47V188.661C130.926 190.064 130.478 190.765 129.842 190.766C129.139 190.766 128.789 190.225 128.789 189.14C128.789 187.865 129.203 186.525 130.033 185.121L130.32 184.548V184.643ZM166.597 181.198C166.851 181.198 167.123 181.375 167.41 181.725C167.697 182.075 167.841 182.346 167.841 182.537C167.841 182.666 167.777 182.872 167.649 183.159C167.521 183.446 167.394 183.59 167.267 183.59C167.202 183.59 167.075 183.462 166.884 183.207C166.692 182.953 166.468 182.824 166.214 182.824C165.767 182.824 165.32 183.941 164.874 186.173C164.619 187.767 164.331 188.564 164.013 188.564C163.884 188.566 163.821 188.438 163.821 188.183C163.821 187.8 163.582 187.051 163.104 185.935C162.625 184.82 162.321 184.26 162.194 184.26C162.066 184.26 161.97 184.308 161.907 184.403C161.843 184.499 161.747 184.548 161.62 184.548C161.364 184.548 161.077 184.404 160.759 184.117C160.439 183.83 160.28 183.591 160.28 183.399C160.28 183.337 160.424 183.081 160.711 182.634C160.998 182.189 161.173 181.964 161.237 181.964C161.874 181.964 162.465 182.347 163.008 183.112C163.549 183.878 163.948 184.898 164.204 186.173V186.364C164.267 186.364 164.3 186.333 164.3 186.269V186.173C164.427 185.408 164.714 184.293 165.161 182.825C165.607 181.741 166.085 181.198 166.597 181.198ZM126.108 183.591C126.81 183.591 127.162 183.878 127.162 184.452C127.162 185.09 126.778 185.76 126.013 186.461C125.438 187.035 124.736 187.513 123.907 187.896C123.716 187.96 123.556 187.991 123.429 187.991L123.812 187.704C125.343 186.621 126.108 185.855 126.108 185.408C126.108 185.09 125.884 184.93 125.438 184.93C125.31 184.93 125.183 184.947 125.056 184.979C124.927 185.011 124.831 185.026 124.769 185.026V184.93C124.769 184.867 124.8 184.771 124.864 184.643C125.118 183.942 125.534 183.591 126.108 183.591ZM141.807 177.181C142.189 177.181 142.539 177.358 142.859 177.707C143.177 178.058 143.338 178.52 143.338 179.094C143.338 179.859 143.034 180.642 142.429 181.438C141.822 182.236 141.104 182.634 140.275 182.634C139.445 182.634 139.03 182.219 139.03 181.39C139.03 180.816 139.365 179.971 140.035 178.854C140.705 177.74 141.295 177.181 141.807 177.181ZM140.944 178.902C140.816 178.903 140.576 179.127 140.227 179.572C139.875 180.019 139.7 180.338 139.7 180.529C139.828 180.849 140.211 181.008 140.849 181.008C141.998 180.945 142.572 180.593 142.572 179.955C142.572 179.254 142.029 178.902 140.944 178.902ZM152.431 96.1494C152.494 96.1495 152.589 96.2453 152.718 96.4365C152.972 96.8837 153.515 98.0629 154.345 99.9756C154.345 100.104 154.377 100.2 154.441 100.263C155.334 102.432 155.844 103.772 155.973 104.281C156.1 104.664 156.163 104.951 156.163 105.142C156.163 105.716 155.525 105.333 154.249 103.994C154.121 103.803 154.058 103.899 154.058 104.281C154.058 104.417 154.409 108.849 155.111 117.579C155.813 126.445 156.164 131.547 156.164 132.887C156.164 136.777 155.365 139.87 153.771 142.166C153.259 143.123 152.367 143.84 151.091 144.318C150.338 144.6 149.196 144.798 147.667 144.914L147.837 147.141C148.794 159.64 149.272 166.464 149.272 167.613C149.272 170.995 148.73 173.961 147.646 176.511C147.263 177.405 146.975 177.851 146.783 177.851C146.719 177.85 146.688 177.723 146.688 177.468C146.688 177.149 146.719 176.702 146.783 176.128C146.91 174.917 146.976 173.545 146.976 172.015C146.976 170.675 146.463 163.117 145.443 149.341C145.331 147.826 145.227 146.388 145.127 145.025C144.738 145.032 144.333 145.036 143.912 145.036C141.869 145.036 139.828 144.208 137.786 142.549C135.872 140.827 133.989 139.138 132.139 137.479C131.883 137.288 131.723 137.192 131.66 137.191C131.596 137.191 131.66 137.415 131.852 137.861C132.553 139.329 132.904 140.413 132.904 141.114C132.904 143.539 132.17 145.388 130.703 146.663C129.617 147.557 127.257 148.768 123.619 150.299C121.258 151.255 119.535 151.958 118.451 152.403C116.154 153.489 114.589 154.317 113.761 154.891C112.229 156.103 109.995 158.334 107.061 161.587C105.273 163.565 103.519 164.553 101.796 164.553C100.265 164.553 98.9562 163.916 97.8721 162.64C96.7235 161.238 96.1485 159.579 96.1484 157.665C96.1484 154.986 97.2645 151.511 99.499 147.237C99.7531 146.792 99.9444 146.567 100.073 146.567C100.136 146.567 100.169 146.6 100.169 146.663C100.169 147.11 99.6906 148.61 98.7334 151.16C97.7763 153.776 97.2969 155.816 97.2969 157.282C97.2969 158.43 97.551 159.356 98.0625 160.057C98.6368 160.822 99.4661 161.205 100.552 161.205C102.337 161.205 104.19 160.281 106.104 158.431C106.678 157.794 107.252 157.124 107.826 156.421C108.463 155.72 109.102 155.019 109.74 154.316C111.272 152.594 113.313 151.064 115.866 149.725C117.333 148.959 119.918 147.844 123.619 146.376C127.511 144.782 130.064 143.539 131.277 142.646C131.66 142.391 131.787 142.04 131.66 141.593C131.021 139.296 128.31 136.204 123.524 132.312C123.382 132.202 123.24 132.092 123.098 131.981C121.135 132.845 119.043 134.007 116.824 135.469L111.751 139.009L108.497 141.113C106.454 142.453 104.604 143.123 102.945 143.123C101.158 143.123 99.5621 142.422 98.1592 141.019C96.8192 139.679 96.1494 137.989 96.1494 135.947C96.1495 133.206 97.5203 129.57 100.265 125.041C100.519 124.659 100.743 124.467 100.935 124.467C100.997 124.467 101.031 124.501 101.031 124.563C101.031 125.011 100.423 126.573 99.2119 129.251C98.0634 131.929 97.4893 134.068 97.4893 135.661C97.4893 136.808 97.8392 137.734 98.542 138.435C99.1792 139.2 100.137 139.583 101.414 139.583C103.455 139.583 105.37 139.041 107.157 137.956C109.39 136.363 111.623 134.768 113.857 133.173C115.896 131.753 117.884 130.51 119.819 129.443C116.524 126.892 113.228 124.341 109.933 121.789C109.804 121.662 109.741 121.183 109.741 120.354C109.741 119.27 109.837 118.154 110.028 117.006C110.282 115.731 110.603 114.934 110.985 114.614C113.537 112.383 118.993 109.417 127.354 105.717C135.839 102.019 141.455 100.168 144.199 100.168C144.965 100.168 145.506 100.297 145.826 100.551C146.081 100.871 146.209 101.412 146.209 102.178C146.209 103.9 145.156 106.037 143.051 108.587L141.807 110.022C141.424 110.405 141.041 110.821 140.658 111.266C139.381 112.669 138.519 113.818 138.073 114.71C137.753 115.348 137.562 115.667 137.499 115.667C137.435 115.666 137.467 115.252 137.596 114.423C137.723 113.978 138.105 113.212 138.743 112.127C139.253 111.107 139.668 110.437 139.988 110.117C142.348 107.503 143.784 105.781 144.295 104.951C144.358 104.888 144.391 104.792 144.391 104.664C144.39 104.154 143.687 103.898 142.285 103.898C140.179 103.899 135.138 105.717 127.162 109.353C119.122 112.925 113.632 115.89 110.698 118.249C110.507 118.378 110.539 118.505 110.794 118.632C113.41 120.163 115.995 121.758 118.548 123.416C120.506 124.714 122.394 126.005 124.212 127.29C126.58 126.302 128.361 125.807 129.555 125.807C129.49 125.679 129.426 125.457 129.363 125.137C129.234 124.945 129.139 124.691 129.076 124.371C128.182 121.884 127.545 119.396 127.162 116.909C127.098 116.464 127.033 116.208 126.971 116.144C126.907 115.825 126.683 115.443 126.3 114.996L127.545 112.509C127.736 112.126 127.895 111.935 128.023 111.935C128.151 111.935 128.374 112.126 128.693 112.509L131.852 116.718C132.234 117.291 132.425 117.674 132.426 117.865C132.426 118.121 132.33 118.248 132.139 118.248C131.691 118.248 130.99 117.961 130.033 117.388C130.288 118.983 130.926 120.992 131.947 123.415C132.139 124.053 132.872 124.722 134.148 125.424C135.424 126.126 136.987 126.732 138.839 127.241C139.605 127.433 139.924 127.849 139.797 128.485L139.222 131.451C139.093 131.834 138.679 131.834 137.978 131.451C135.999 130.559 133.606 130.111 130.799 130.111C130.026 130.111 129.224 130.183 128.391 130.323C130.62 131.987 132.732 133.638 134.724 135.278L138.648 138.627C138.775 138.691 138.871 138.756 138.936 138.818C140.657 140.03 142.348 140.668 144.008 140.73C144.285 140.739 144.554 140.743 144.814 140.749C144.213 132.419 143.912 127.789 143.912 126.858C143.912 125.456 143.688 124.339 143.242 123.51C143.242 122.873 143.688 121.661 144.582 119.875C144.645 119.621 144.709 119.492 144.773 119.492C144.965 119.492 145.634 120.96 146.783 123.893C147.995 127.018 148.602 128.771 148.603 129.154C148.603 129.345 148.538 129.441 148.411 129.441C148.156 129.441 147.581 128.963 146.688 128.007L146.496 127.911C146.432 127.912 146.4 128.04 146.4 128.293L147.352 140.773C147.993 140.769 148.554 140.756 149.033 140.73C150.213 140.668 151.122 140.508 151.761 140.253C152.398 139.999 152.909 139.711 153.292 139.392C153.675 139.137 153.866 138.052 153.866 136.139C153.866 134.99 153.515 129.537 152.813 119.779C151.983 110.021 151.569 104.441 151.569 103.037C151.569 101.698 151.345 100.614 150.899 99.7842C150.9 99.2741 151.314 98.158 152.144 96.4365C152.271 96.2452 152.367 96.1494 152.431 96.1494ZM126.874 168.092C127.128 168.092 127.4 168.269 127.688 168.618C127.974 168.969 128.118 169.24 128.118 169.431C128.118 169.559 128.054 169.766 127.927 170.053C127.798 170.34 127.671 170.483 127.544 170.483C127.48 170.483 127.353 170.373 127.161 170.148C126.97 169.926 126.745 169.814 126.491 169.814C126.044 169.814 125.63 170.866 125.247 172.971C124.927 174.63 124.577 175.458 124.193 175.458C124.13 175.458 124.099 175.331 124.099 175.076C124.099 174.693 123.86 173.961 123.381 172.876C122.903 171.793 122.599 171.25 122.472 171.249C122.343 171.249 122.264 171.282 122.232 171.345C122.199 171.409 122.056 171.44 121.802 171.44C121.61 171.44 121.354 171.297 121.035 171.01C120.715 170.723 120.557 170.484 120.557 170.292C120.557 170.229 120.701 169.973 120.987 169.527C121.274 169.082 121.449 168.858 121.514 168.857C122.151 168.857 122.742 169.24 123.284 170.005C123.826 170.77 124.225 171.76 124.48 172.971V173.258H124.577V172.971C124.704 172.27 124.96 171.153 125.343 169.623C125.853 168.603 126.363 168.092 126.874 168.092ZM113.187 167.04C113.187 170.357 113.728 172.015 114.814 172.015C115.324 172.014 115.707 171.44 115.963 170.292C115.963 170.101 115.994 170.005 116.059 170.005L116.154 170.292L116.25 171.536C116.25 173.195 115.738 174.023 114.719 174.023C114.015 174.024 113.474 173.387 113.091 172.11C112.771 171.091 112.612 170.005 112.612 168.857C112.612 167.838 112.708 166.786 112.899 165.7C113.026 165.064 113.122 164.744 113.187 164.743V167.04ZM156.163 164.647C156.865 164.647 157.217 165.031 157.217 165.796C157.217 166.178 157.025 166.656 156.643 167.23C156.643 167.295 156.61 167.327 156.547 167.327L156.355 167.136C156.164 166.753 155.908 166.562 155.59 166.562C155.27 166.562 154.934 166.674 154.584 166.896C154.233 167.121 154.058 167.36 154.058 167.614C154.058 167.805 154.281 168.013 154.729 168.235C155.174 168.459 155.556 168.57 155.876 168.57C156.067 168.57 156.482 168.38 157.121 167.997C157.439 167.806 157.758 167.647 158.078 167.519C158.205 167.392 158.332 167.296 158.461 167.231C158.844 167.041 159.066 166.944 159.131 166.944V167.519C158.939 168.092 158.748 168.475 158.557 168.666C157.727 169.113 155.939 170.261 153.196 172.11C153.068 172.174 152.909 172.271 152.718 172.397L152.622 172.302C152.749 171.919 152.829 171.6 152.861 171.345C152.893 171.09 153.355 170.643 154.249 170.005C153.101 169.622 152.526 169.144 152.526 168.57C152.526 167.933 152.814 167.295 153.388 166.656C154.536 165.317 155.46 164.648 156.163 164.647ZM182.582 113.465C182.645 113.465 182.741 113.561 182.869 113.752C183.061 114.263 183.602 115.634 184.496 117.865C185.707 120.8 186.315 122.522 186.315 123.032C186.315 123.223 186.251 123.319 186.124 123.319C185.804 123.319 185.197 122.84 184.305 121.884L184.209 121.788C184.145 121.789 184.113 121.917 184.113 122.171C184.113 122.3 184.592 128.597 185.549 141.065C186.506 153.535 186.984 160.343 186.984 161.491C186.984 164.873 186.442 167.838 185.357 170.389C184.975 171.345 184.687 171.823 184.496 171.823C184.432 171.823 184.4 171.631 184.4 171.249C184.4 170.931 184.431 170.517 184.496 170.006C184.623 168.858 184.688 167.487 184.688 165.892C184.687 164.551 184.192 156.993 183.204 143.218C182.214 129.443 181.721 121.981 181.721 120.832C181.721 119.366 181.465 118.217 180.955 117.388C180.955 116.751 181.369 115.538 182.199 113.752C182.327 113.561 182.454 113.465 182.582 113.465ZM166.692 165.126C166.181 165.126 165.702 165.398 165.257 165.939C164.81 166.482 164.587 167.008 164.587 167.518C164.587 167.9 164.841 168.603 165.353 169.622C165.798 170.579 166.149 171.218 166.405 171.536C166.98 171.283 167.682 170.866 168.512 170.292C169.468 169.655 169.947 169.209 169.947 168.953C169.947 168.443 169.565 167.678 168.799 166.656C168.033 165.637 167.329 165.126 166.692 165.126ZM104.477 166.274C104.477 166.339 104.444 166.37 104.381 166.37C104.125 166.626 103.838 166.977 103.52 167.423C103.2 167.869 103.041 168.221 103.041 168.475C103.168 168.348 103.36 168.284 103.615 168.284C104.061 168.284 104.285 168.475 104.285 168.858C104.285 169.178 104.173 169.448 103.95 169.671C103.726 169.895 103.455 170.006 103.137 170.006C102.689 170.006 102.467 169.751 102.467 169.24C102.467 168.73 102.69 168.156 103.137 167.518C103.582 166.881 103.998 166.434 104.381 166.179H104.477V166.274ZM132.713 159.673C133.287 159.673 133.701 160.089 133.957 160.917C134.084 161.237 134.148 161.587 134.148 161.97C134.148 162.544 134.053 163.213 133.861 163.979C133.541 165.255 132.935 166.435 132.043 167.519C131.723 167.965 131.531 168.188 131.469 168.188H131.373C131.373 168.124 131.5 167.837 131.756 167.327C132.776 165.222 133.287 163.787 133.287 163.021L133.191 162.735C133 162.225 132.745 161.97 132.426 161.97C131.914 161.97 131.532 162.193 131.277 162.639C131.149 162.767 131.053 162.863 130.99 162.926H130.799V161.874C130.799 160.79 131.244 160.088 132.139 159.769C132.33 159.706 132.522 159.673 132.713 159.673ZM122.472 160.438C122.663 160.439 123.317 160.821 124.434 161.586C125.549 162.352 126.108 162.799 126.108 162.926C126.108 163.437 125.63 164.457 124.673 165.987C124.544 166.116 124.449 166.179 124.386 166.179C124.321 166.179 124.257 166.179 124.194 166.179C123.109 165.351 121.993 164.552 120.845 163.787L120.748 163.691L122.185 160.726C122.312 160.535 122.408 160.438 122.472 160.438ZM113.856 158.047C114.494 158.047 114.814 158.429 114.814 159.194C114.814 159.768 114.575 160.407 114.096 161.108C113.617 161.811 112.995 162.416 112.229 162.926L111.751 163.213H111.655L112.134 162.735C113.345 161.396 113.952 160.534 113.952 160.151C113.952 159.706 113.761 159.481 113.378 159.481C113.122 159.481 112.835 159.578 112.517 159.769H112.421L112.517 159.387C112.708 158.494 113.154 158.047 113.856 158.047ZM160.95 157.76C161.013 157.76 161.046 157.793 161.046 157.855L160.95 158.143C160.695 158.78 160.503 159.162 160.376 159.29C157.44 160.247 154.089 161.524 150.325 163.117C150.516 162.481 150.771 161.811 151.091 161.108L160.567 157.855L160.95 157.76ZM190.813 156.898C191.515 156.898 191.866 157.282 191.866 158.047C191.866 158.685 191.611 159.386 191.101 160.151C190.589 160.917 189.919 161.555 189.09 162.064C188.834 162.32 188.674 162.447 188.611 162.447H188.517C188.517 162.384 188.676 162.193 188.995 161.874C190.27 160.472 190.909 159.547 190.909 159.1C190.909 158.59 190.718 158.334 190.335 158.334C190.079 158.334 189.871 158.398 189.713 158.525C189.553 158.654 189.441 158.716 189.378 158.716H189.282L189.378 158.334C189.569 157.377 190.048 156.898 190.813 156.898ZM153.102 154.029C153.611 154.029 153.867 154.38 153.867 155.081C153.867 155.528 153.659 156.071 153.244 156.708C152.829 157.346 152.302 157.888 151.665 158.334L151.187 158.525H151.091L151.474 158.143C152.558 156.995 153.101 156.229 153.102 155.847C153.102 155.464 152.91 155.273 152.527 155.272C152.399 155.272 152.24 155.337 152.048 155.464L151.856 155.56H151.761L151.856 155.272C151.984 154.444 152.398 154.029 153.102 154.029ZM167.459 152.498C167.651 152.499 168.304 152.867 169.421 153.599C170.536 154.332 171.096 154.763 171.096 154.891C171.095 155.402 170.584 156.454 169.564 158.047C169.5 158.175 169.436 158.238 169.373 158.238L169.182 158.143C168.225 157.442 167.108 156.708 165.832 155.942C165.449 156.836 165.033 157.601 164.588 158.238C164.524 158.367 164.459 158.43 164.396 158.43H164.3C163.151 157.602 161.97 156.803 160.759 156.038V155.942L162.194 152.977C162.321 152.85 162.417 152.785 162.481 152.785C162.673 152.785 163.231 153.089 164.156 153.694C165.08 154.301 165.702 154.762 166.022 155.081L167.172 152.785C167.235 152.594 167.33 152.498 167.459 152.498ZM130.32 152.785C130.383 152.785 130.416 152.818 130.416 152.881L130.32 153.072C130.129 153.583 129.969 153.902 129.842 154.029C126.714 155.114 123.045 156.485 118.834 158.143C118.961 157.697 119.184 157.186 119.504 156.612L130.033 152.881L130.32 152.785ZM105.338 147.714C105.338 147.778 105.209 148.034 104.955 148.479C103.551 150.904 102.85 152.593 102.85 153.55C102.85 154.315 103.137 154.698 103.711 154.698C104.029 154.698 104.508 154.315 105.146 153.55C105.209 153.487 105.274 153.455 105.338 153.455V153.646C104.572 155.496 103.806 156.42 103.04 156.42H102.85C102.084 156.293 101.701 155.751 101.701 154.794C101.701 154.54 101.732 154.253 101.797 153.933C102.18 152.019 103.137 150.17 104.668 148.384C105.05 147.939 105.273 147.715 105.338 147.714ZM189.187 129.25C189.249 129.25 189.314 129.283 189.378 129.346C190.781 130.622 191.706 131.833 192.153 132.981C192.536 133.875 192.791 135.343 192.92 137.383L193.016 138.722C193.016 140.317 192.616 142.278 191.819 144.605C191.021 146.934 190.623 148.608 190.623 149.628C190.623 150.904 191.037 151.542 191.867 151.542C192.313 151.542 192.856 151 193.494 149.915C193.557 149.724 193.621 149.628 193.686 149.628V149.915C193.174 152.531 192.377 153.838 191.293 153.838C190.144 153.838 189.569 152.785 189.569 150.681C189.569 150.107 189.665 149.5 189.856 148.862C189.984 148.353 190.431 146.982 191.196 144.749C191.642 143.347 191.866 141.688 191.866 139.774L191.771 138.435C191.771 135.947 190.622 133.556 188.325 131.26C188.196 131.197 188.134 131.101 188.134 130.973C188.134 130.91 188.452 130.367 189.091 129.346C189.091 129.283 189.122 129.25 189.187 129.25ZM141.71 147.619C141.198 149.023 140.944 150.044 140.944 150.681C140.944 151.51 141.136 151.924 141.519 151.924C141.837 151.924 142.156 151.606 142.476 150.968L142.572 150.776V150.968C142.316 152.436 141.869 153.168 141.231 153.168C140.594 153.168 140.275 152.626 140.274 151.542C140.274 150.267 140.657 148.896 141.423 147.428L141.807 146.949L141.71 147.619ZM169.947 139.392C170.649 139.392 171 139.934 171 141.018C171 141.783 170.841 142.644 170.522 143.601C171.16 143.983 171.575 144.304 171.767 144.558C171.767 145.005 171.479 145.643 170.905 146.471C170.649 146.152 170.201 145.802 169.564 145.419C167.521 148.226 163.247 150.745 156.738 152.977C156.291 153.105 156.036 153.168 155.973 153.168H155.877C155.877 153.105 156.068 152.929 156.451 152.642C156.835 152.354 158.971 151.191 162.864 149.149C165.545 147.683 167.522 146.313 168.799 145.036C167.395 144.335 166.693 143.601 166.692 142.836C166.692 142.135 167.06 141.385 167.794 140.587C168.527 139.79 169.244 139.392 169.947 139.392ZM136.351 144.844C137.179 144.844 137.595 145.387 137.595 146.471C137.595 147.236 137.275 148.097 136.638 149.054C135.999 150.01 135.137 150.871 134.053 151.637C133.67 151.892 133.446 152.02 133.383 152.02C133.383 151.957 133.541 151.732 133.861 151.35C135.584 149.5 136.446 148.288 136.446 147.714C136.446 147.14 136.19 146.854 135.68 146.854C135.297 146.854 135.01 146.918 134.819 147.045C134.628 147.174 134.498 147.269 134.436 147.332L134.34 147.236L134.436 146.758C134.69 145.483 135.329 144.844 136.351 144.844ZM156.738 145.801C156.93 145.801 157.121 145.93 157.312 146.184C157.504 146.439 157.6 146.631 157.6 146.758C157.6 146.887 157.567 147.062 157.504 147.284C157.439 147.508 157.344 147.619 157.217 147.619C157.152 147.619 157.057 147.523 156.93 147.332C156.801 147.141 156.643 147.045 156.451 147.045C156.068 147.045 155.717 147.906 155.398 149.628C155.143 150.904 154.887 151.541 154.633 151.542C154.569 151.542 154.537 151.414 154.537 151.159C154.537 150.905 154.361 150.345 154.011 149.484C153.66 148.624 153.388 148.194 153.197 148.193C153.133 148.193 153.084 148.225 153.053 148.288C153.02 148.352 152.941 148.385 152.814 148.385C152.623 148.385 152.398 148.274 152.144 148.05C151.888 147.827 151.761 147.619 151.761 147.428C152.206 146.727 152.463 146.375 152.527 146.375C153.037 146.375 153.499 146.679 153.915 147.284C154.329 147.891 154.633 148.671 154.824 149.628V149.724C154.887 149.724 154.92 149.692 154.92 149.628C155.366 147.078 155.973 145.801 156.738 145.801ZM111.942 143.026C112.771 143.026 113.186 143.504 113.187 144.461C113.187 145.163 112.883 145.977 112.277 146.9C111.67 147.826 110.89 148.639 109.933 149.34C109.487 149.596 109.231 149.723 109.167 149.724C109.167 149.661 109.325 149.469 109.646 149.149C111.304 147.427 112.134 146.279 112.134 145.705C112.134 145.131 111.847 144.845 111.272 144.845C111.017 144.845 110.778 144.909 110.555 145.036C110.33 145.165 110.22 145.26 110.22 145.323L110.124 145.227L110.22 144.749C110.474 143.601 111.048 143.026 111.942 143.026ZM96.5322 143.313C96.9777 143.314 97.2982 143.665 97.4893 144.366C97.5522 144.557 97.585 144.782 97.585 145.036C97.585 145.483 97.4889 145.993 97.2979 146.566C96.978 147.523 96.4991 148.384 95.8623 149.149C95.6069 149.468 95.4466 149.627 95.3838 149.628C95.3839 149.501 95.4461 149.309 95.5742 149.054C96.4028 147.46 96.8193 146.375 96.8193 145.801V145.61C96.7552 145.227 96.5626 145.036 96.2441 145.036C95.9244 145.036 95.6377 145.165 95.3838 145.419L95.1924 145.706H95.0967L95 145.132C95 144.175 95.3834 143.602 96.1484 143.41L96.5322 143.313ZM158.557 97.3926C158.684 97.3927 158.78 97.4885 158.844 97.6797C159.098 98.1271 159.672 99.3869 160.566 101.458C161.459 103.531 161.969 104.775 162.098 105.189C162.225 105.605 162.289 105.907 162.289 106.098C162.289 106.289 162.225 106.385 162.098 106.385C161.842 106.385 161.299 105.94 160.471 105.046C160.407 104.983 160.342 104.95 160.279 104.95C160.215 104.951 160.184 105.079 160.184 105.333C160.185 105.412 160.599 110.274 161.428 119.922C162.256 129.584 162.672 134.926 162.672 135.946C162.672 139.008 162.098 141.687 160.949 143.983C160.63 144.876 160.375 145.322 160.184 145.322C160.056 145.323 159.993 145.132 159.993 144.749C159.993 144.495 160.055 144.112 160.184 143.601C160.311 142.581 160.375 141.369 160.375 139.965C160.375 138.753 159.944 132.741 159.083 121.932C158.222 111.121 157.791 105.174 157.791 104.089C157.791 102.814 157.535 101.762 157.025 100.933C157.025 100.423 157.439 99.339 158.27 97.6797C158.397 97.4884 158.493 97.3926 158.557 97.3926ZM124.003 137.382C124.13 137.382 124.769 137.765 125.917 138.53C127.064 139.295 127.639 139.742 127.64 139.869C127.64 140.381 127.128 141.4 126.108 142.931C126.044 143.059 125.98 143.122 125.917 143.122H125.821C124.8 142.421 123.683 141.656 122.472 140.826C121.642 142.548 121.132 143.408 120.94 143.409C120.876 143.409 120.845 143.378 120.845 143.313C119.696 142.486 118.514 141.72 117.303 141.018V140.922L118.738 137.956C118.865 137.765 118.961 137.669 119.025 137.669C119.152 137.669 119.711 137.973 120.701 138.578C121.689 139.185 122.312 139.646 122.567 139.965L123.716 137.669C123.779 137.478 123.874 137.382 124.003 137.382ZM169.086 141.209C168.957 141.209 168.751 141.29 168.464 141.448C168.177 141.608 168.033 141.752 168.033 141.879C168.033 142.199 168.574 142.645 169.66 143.219C169.723 142.9 169.756 142.613 169.756 142.357C169.756 141.592 169.532 141.209 169.086 141.209ZM188.612 135.564C188.038 137.224 187.751 138.372 187.751 139.009C187.751 139.902 187.974 140.348 188.421 140.348C188.739 140.348 189.091 139.998 189.474 139.296L189.569 139.2V139.392C189.313 140.922 188.835 141.688 188.134 141.688C187.368 141.688 186.985 141.113 186.985 139.965C186.985 138.563 187.431 137.064 188.325 135.469L188.708 134.895L188.612 135.564ZM170.904 128.198C171.223 128.198 171.51 128.375 171.766 128.725C172.02 129.075 172.148 129.346 172.148 129.537C172.148 129.666 172.101 129.872 172.005 130.159C171.909 130.446 171.797 130.59 171.67 130.59C171.606 130.59 171.462 130.463 171.239 130.207C171.015 129.953 170.809 129.824 170.617 129.824C170.106 129.824 169.66 130.91 169.277 133.077C168.957 134.736 168.639 135.564 168.32 135.564C168.192 135.564 168.129 135.437 168.129 135.182C168.129 134.799 167.904 134.05 167.459 132.934C167.012 131.819 166.693 131.259 166.502 131.259C166.373 131.259 166.294 131.293 166.263 131.355C166.23 131.419 166.119 131.451 165.928 131.451C165.736 131.451 165.464 131.324 165.114 131.068C164.763 130.814 164.588 130.59 164.588 130.398C164.588 130.271 164.732 130 165.019 129.585C165.306 129.171 165.481 128.964 165.545 128.964C166.246 128.964 166.852 129.346 167.363 130.111C167.873 130.877 168.256 131.866 168.512 133.077V133.364H168.607V133.077C168.799 132.376 169.086 131.259 169.469 129.729C169.914 128.709 170.393 128.198 170.904 128.198ZM105.338 120.066C105.721 120.066 106.247 120.306 106.917 120.784C107.587 121.262 107.923 121.692 107.923 122.075C107.923 122.204 107.842 122.458 107.684 122.841C107.524 123.223 107.412 123.414 107.349 123.415L105.529 123.894C104.827 124.149 104.348 124.436 104.094 124.754C104.859 127.114 105.242 129.442 105.242 131.738C105.242 132.441 105.178 133.142 105.051 133.843L104.955 134.226C104.827 134.225 104.764 133.842 104.764 133.077C104.764 131.675 104.572 130.032 104.189 128.15C103.807 126.27 103.615 125.201 103.615 124.945C103.615 123.989 103.869 123.288 104.381 122.841C104.635 122.65 105.147 122.458 105.912 122.267C105.592 121.948 105.305 121.788 105.051 121.788C104.922 121.788 104.603 122.076 104.094 122.649C104.029 122.649 103.998 122.586 103.998 122.458V122.267C104.189 120.801 104.635 120.067 105.338 120.066ZM111.176 126.189C111.942 126.189 112.325 126.7 112.325 127.72C112.325 128.422 112.022 129.235 111.416 130.159C110.809 131.085 109.994 131.897 108.975 132.599C108.592 132.854 108.368 132.981 108.305 132.981C108.305 132.919 108.463 132.694 108.783 132.312C110.441 130.59 111.272 129.442 111.272 128.868C111.272 128.358 110.985 128.103 110.411 128.103C110.155 128.103 109.804 128.231 109.358 128.484H109.262V128.007C109.58 126.796 110.219 126.19 111.176 126.189ZM188.612 123.319C189.249 123.319 189.569 123.734 189.569 124.562C189.569 125.136 189.313 125.806 188.804 126.571C188.292 127.337 187.655 128.007 186.889 128.581C186.569 128.771 186.379 128.868 186.315 128.868C186.315 128.805 186.442 128.645 186.698 128.39C188.038 126.988 188.708 126.062 188.708 125.615C188.708 125.106 188.484 124.85 188.038 124.85C187.847 124.85 187.56 124.978 187.177 125.232L187.081 125.137V124.85C187.335 123.83 187.847 123.319 188.612 123.319ZM168.033 115.378C167.139 117.994 166.692 119.812 166.692 120.832C166.692 122.235 167.107 122.936 167.937 122.937C168.382 122.937 168.894 122.395 169.469 121.31C169.532 121.119 169.596 121.022 169.66 121.022V121.31C169.213 123.862 168.447 125.137 167.362 125.137C166.215 125.074 165.64 124.148 165.64 122.362C165.64 120.066 166.342 117.707 167.746 115.282L168.224 114.326H168.32L168.033 115.378ZM140.945 117.291C141.2 117.291 141.472 117.468 141.759 117.817C142.046 118.169 142.189 118.44 142.189 118.631C142.189 118.759 142.142 118.965 142.046 119.252C141.95 119.539 141.807 119.683 141.615 119.683C141.551 119.683 141.424 119.556 141.232 119.301C141.041 119.047 140.85 118.918 140.658 118.918C140.147 118.918 139.7 120.034 139.317 122.266C139.126 123.159 138.902 123.83 138.647 124.275C138.519 124.531 138.392 124.658 138.265 124.658C138.2 124.658 138.169 124.53 138.169 124.275C138.169 123.893 137.945 123.144 137.499 122.027C137.052 120.913 136.7 120.354 136.446 120.354C136.317 120.354 136.238 120.401 136.207 120.497C136.174 120.592 136.095 120.641 135.968 120.641C135.777 120.641 135.504 120.497 135.154 120.21C134.803 119.923 134.628 119.684 134.628 119.492C134.628 119.429 134.771 119.174 135.059 118.727C135.346 118.281 135.521 118.057 135.585 118.057C136.222 118.057 136.813 118.44 137.355 119.205C137.897 119.971 138.265 120.96 138.456 122.171C138.519 122.3 138.553 122.395 138.553 122.458C138.553 122.395 138.584 122.362 138.648 122.362C138.648 121.979 138.935 120.831 139.51 118.918C139.955 117.834 140.434 117.291 140.945 117.291ZM122.95 113.848C122.95 113.912 122.886 114.199 122.759 114.709C121.993 116.942 121.61 118.536 121.61 119.492C121.61 120.704 121.929 121.31 122.567 121.31C123.013 121.31 123.492 120.831 124.003 119.875C124.066 119.748 124.13 119.684 124.194 119.684V119.971C123.747 122.139 123.077 123.222 122.185 123.223C121.163 123.223 120.652 122.426 120.652 120.831C120.652 118.855 121.259 116.782 122.472 114.613C122.726 114.103 122.886 113.816 122.95 113.752V113.848ZM147.741 107.151C147.741 107.28 147.645 107.63 147.454 108.203C146.56 110.755 146.113 112.541 146.113 113.561C146.113 115.029 146.497 115.761 147.263 115.761C147.772 115.76 148.283 115.187 148.794 114.039C148.921 113.912 149.017 113.848 149.081 113.848L149.177 113.943L149.081 114.135C148.634 116.622 147.868 117.865 146.783 117.865C145.635 117.865 145.061 116.942 145.061 115.092C145.061 112.86 145.731 110.499 147.071 108.012C147.39 107.438 147.613 107.151 147.741 107.151ZM109.837 109.926C108.497 111.138 107.636 112.062 107.253 112.699C106.997 113.082 106.87 113.433 106.87 113.752C106.87 114.008 106.997 114.199 107.253 114.326L107.444 114.422C107.763 114.422 108.177 114.23 108.688 113.848L108.976 113.752L108.88 113.943C107.986 115.029 107.252 115.569 106.678 115.569C106.486 115.569 106.326 115.506 106.199 115.378C105.817 115.187 105.625 114.9 105.625 114.518C105.625 114.199 105.783 113.785 106.104 113.273C106.869 111.934 108.081 110.755 109.741 109.734C110.059 109.481 110.251 109.352 110.315 109.352H110.411L109.837 109.926ZM135.68 108.012C135.871 108.012 136.063 108.045 136.254 108.107C136.828 108.236 137.116 108.555 137.116 109.064C137.116 109.958 136.508 110.914 135.297 111.934C134.403 112.636 133.414 113.178 132.33 113.561C131.947 113.625 131.692 113.656 131.564 113.656H131.469C131.469 113.593 131.692 113.465 132.139 113.273C134.244 112.063 135.394 111.202 135.585 110.69V110.308C135.585 109.989 135.393 109.766 135.011 109.638H134.628C134.499 109.638 134.355 109.654 134.196 109.686C134.037 109.719 133.925 109.733 133.861 109.733L133.766 109.638C133.766 109.575 133.829 109.446 133.957 109.255C134.467 108.427 135.041 108.012 135.68 108.012ZM168.607 101.889C169.756 101.889 170.33 102.814 170.33 104.663C170.33 106.959 169.66 109.351 168.32 111.838C168 112.476 167.778 112.794 167.65 112.795C167.65 112.668 167.746 112.317 167.938 111.743C168.83 109.129 169.277 107.311 169.277 106.29C169.277 104.823 168.894 104.089 168.129 104.089C167.555 104.089 166.98 104.728 166.405 106.003H166.31V105.716C166.755 103.166 167.522 101.889 168.607 101.889ZM164.778 108.299C164.841 108.299 164.874 108.332 164.874 108.395L164.778 108.49C164.523 108.746 164.235 109.111 163.917 109.59C163.597 110.068 163.439 110.403 163.438 110.595C163.565 110.468 163.757 110.403 164.013 110.403C164.458 110.403 164.683 110.595 164.683 110.978C164.683 111.36 164.571 111.664 164.348 111.887C164.123 112.111 163.852 112.222 163.534 112.222C163.087 112.222 162.864 111.934 162.864 111.36C162.864 110.851 163.087 110.276 163.534 109.638C163.979 109.001 164.396 108.555 164.778 108.299ZM139.222 95.958C139.285 95.958 139.317 95.9908 139.317 96.0537L139.222 96.3398C138.902 96.9782 138.679 97.3445 138.552 97.4404C138.42 97.5372 134.72 98.8929 127.449 101.506C119.984 104.185 115.835 105.78 115.006 106.29C115.133 105.653 115.389 104.983 115.771 104.28C121.003 102.431 126.363 100.518 131.852 98.541C136.57 96.82 139.027 95.9594 139.222 95.958ZM163.821 99.1152C164.267 99.1152 164.491 99.3705 164.491 99.8799C164.491 100.263 164.315 100.693 163.965 101.172C163.614 101.65 163.183 102.081 162.673 102.464C162.482 102.655 162.353 102.75 162.29 102.75V102.654L162.577 102.367C163.406 101.411 163.821 100.806 163.821 100.55C163.821 100.232 163.693 100.071 163.438 100.071C163.31 100.071 163.119 100.136 162.864 100.263H162.769L162.864 100.071C162.991 99.4346 163.31 99.1153 163.821 99.1152ZM145.349 95C145.794 95.0002 146.018 95.256 146.019 95.7656C146.019 96.1483 145.841 96.5958 145.491 97.1055C145.14 97.6167 144.709 98.0624 144.199 98.4453C144.008 98.5735 143.879 98.6357 143.816 98.6357L144.104 98.2529C144.996 97.3604 145.443 96.7553 145.443 96.4355C145.443 96.1173 145.283 95.957 144.965 95.957C144.836 95.9571 144.709 95.9899 144.582 96.0527C144.453 96.1168 144.391 96.1816 144.391 96.2441L144.295 96.1484L144.391 95.957C144.518 95.3203 144.837 95 145.349 95Z" fill="#021C1A"/>
<path d="M144.335 210.012C149.886 218.749 152.663 224.585 152.663 227.52C152.663 230.39 150.748 233.131 146.92 235.747C144.941 237.213 143.952 238.298 143.952 239L143.856 238.809C143.536 237.979 142.548 236.958 140.89 235.747C137.061 233.131 135.146 230.357 135.146 227.424C135.147 225.765 136.39 222.576 138.879 217.856C140.346 215.115 141.974 212.373 143.761 209.63L143.952 209.438L144.335 210.012ZM143.952 209.63C143.888 209.695 143.745 209.998 143.522 210.538C143.298 211.081 143.058 211.719 142.804 212.451C142.548 213.185 142.292 213.872 142.038 214.509C140.825 218.398 140.22 221.523 140.22 223.884C140.22 227.199 141.464 228.859 143.952 228.859C146.441 228.859 147.686 227.168 147.686 223.788C147.686 221.746 147.174 219.036 146.154 215.656C145.963 214.891 145.69 214.046 145.34 213.121C144.989 212.198 144.686 211.384 144.432 210.682L143.952 209.63ZM144.144 213.743C145.228 217.441 145.771 220.407 145.771 222.641C145.771 225.063 145.196 226.276 144.048 226.276C142.644 226.276 141.942 225.128 141.942 222.832C141.942 220.919 142.421 218.271 143.378 214.892L143.474 214.317C143.728 213.552 143.888 213.169 143.952 213.169L144.144 213.743ZM110.45 201.401C110.067 201.721 109.732 201.993 109.445 202.215C109.158 202.439 108.79 202.773 108.345 203.219C102.665 208.002 99.8264 211.798 99.8262 214.604C99.8262 215.497 100.113 216.279 100.688 216.948C101.262 217.618 102.059 217.952 103.08 217.952C104.547 217.952 105.856 217.187 107.005 215.656C107.898 214.19 108.759 212.068 109.589 209.294C110.417 206.52 110.961 203.826 111.217 201.21C111.217 201.019 111.248 200.923 111.312 200.923C111.44 200.928 111.504 203.354 111.504 208.194C111.504 213.169 111.216 216.709 110.642 218.813C109.747 221.811 107.706 223.66 104.516 224.362C103.559 224.616 102.233 224.84 100.544 225.031C98.8527 225.223 97.5284 225.637 96.5713 226.275L96.5723 225.319C96.5723 224.49 96.2205 223.31 95.5186 221.779C94.3703 219.419 93.7959 217.379 93.7959 215.656C93.7959 214.573 93.987 213.616 94.3701 212.786C95.3902 210.49 98.3259 207.94 103.176 205.133C104.133 204.623 105.218 204.017 106.431 203.314C107.642 202.614 108.711 202.023 109.637 201.545C110.561 201.067 111.088 200.827 111.217 200.827L110.45 201.401ZM179.272 201.784L182.718 203.793C189.737 207.684 193.501 210.746 194.013 212.978C194.267 213.807 194.396 214.668 194.396 215.561C194.396 217.091 193.789 219.228 192.577 221.971C191.939 223.437 191.619 224.617 191.619 225.511V225.988C191.619 226.116 191.586 226.18 191.523 226.18L190.949 225.701C190.183 225.381 189.066 225.128 187.6 224.937C183.962 224.617 181.378 223.82 179.847 222.545C178.315 221.268 177.389 219.163 177.07 216.23C176.814 213.807 176.688 210.714 176.688 206.95L176.783 201.401L176.879 200.731C176.942 200.923 176.976 201.131 176.976 201.354C176.976 201.578 177.007 201.865 177.071 202.215C177.134 202.566 177.198 202.9 177.263 203.219C177.326 203.538 177.358 203.73 177.358 203.793C177.358 203.857 177.373 203.937 177.406 204.032C177.438 204.128 177.454 204.24 177.454 204.367C179.177 213.36 181.601 217.856 184.729 217.856C185.238 217.856 185.748 217.761 186.26 217.569C187.662 216.867 188.365 215.847 188.365 214.508C188.365 212.212 186.131 208.897 181.665 204.559C180.261 203.284 178.856 202.135 177.453 201.114L176.879 200.636L179.272 201.784ZM148.451 212.595C148.706 212.595 150.429 213.329 153.62 214.795L155.343 215.656C156.683 216.357 157.528 216.979 157.88 217.521C158.23 218.062 158.406 218.78 158.406 219.674C158.406 221.331 158.293 222.257 158.07 222.448C157.846 222.639 157.545 222.735 157.162 222.735C156.842 222.736 156.396 222.672 155.821 222.545C155.247 222.417 154.673 222.225 154.099 221.971C153.524 221.715 153.141 221.492 152.949 221.301C152.758 221.11 152.438 220.583 151.992 219.723C151.545 218.862 151.035 217.888 150.461 216.805C149.887 215.721 149.392 214.764 148.978 213.935C148.562 213.106 148.355 212.659 148.355 212.595H148.451ZM139.549 212.5C139.548 212.565 139.388 212.916 139.07 213.552C138.75 214.19 138.367 214.972 137.922 215.896C137.475 216.819 137.044 217.681 136.63 218.479C136.214 219.276 135.912 219.867 135.721 220.249C135.209 221.077 134.476 221.684 133.519 222.066C132.562 222.449 131.605 222.641 130.647 222.641C130.392 222.641 130.121 222.593 129.834 222.497C129.547 222.401 129.403 221.651 129.403 220.249C129.403 218.654 129.738 217.585 130.408 217.044C131.078 216.501 132.114 215.88 133.519 215.178L135.912 214.03C138.208 213.011 139.419 212.501 139.549 212.5ZM113.61 205.515C116.927 209.788 118.698 212.388 118.923 213.312C119.146 214.237 119.258 214.859 119.258 215.178C119.258 216.388 118.619 217.632 117.344 218.908C117.215 219.035 117.087 219.1 116.96 219.1L116.577 219.005C115.108 218.302 113.928 217.027 113.035 215.178C113.098 214.412 113.131 213.743 113.131 213.169C113.131 212.595 113.147 212.198 113.18 211.974C113.211 211.751 113.227 211.495 113.227 211.208C113.227 210.921 113.243 210.682 113.275 210.49C113.307 210.299 113.323 210.172 113.323 210.107V208.959L113.419 208.194V207.907C113.419 207.844 113.434 207.732 113.467 207.572C113.498 207.414 113.515 206.95 113.515 206.185L113.61 205.515ZM174.582 205.898C174.645 205.899 174.678 206.138 174.678 206.616C174.678 207.094 174.709 207.669 174.773 208.338C174.836 209.007 174.869 209.598 174.869 210.107L175.156 214.604C175.156 214.987 175.092 215.274 174.965 215.465C174.262 216.995 173.209 218.111 171.807 218.813L171.328 219.005H171.136L170.753 218.718C169.476 217.25 168.839 215.912 168.839 214.7C168.839 213.489 170.402 210.873 173.529 206.855L174.582 205.516V205.898ZM109.397 204.463C109.333 204.845 109.254 205.244 109.158 205.658C109.062 206.074 108.951 206.472 108.823 206.854C107.292 212.594 105.601 215.464 103.751 215.465H103.464C102.57 215.211 102.124 214.668 102.124 213.839C102.124 212.245 103.526 209.981 106.335 207.046C106.781 206.536 107.259 206.042 107.771 205.563C108.28 205.085 108.68 204.702 108.967 204.415C109.253 204.129 109.429 203.985 109.493 203.984L109.397 204.463ZM178.889 203.889C182.653 207.333 185.015 210.236 185.973 212.595L186.068 213.552C186.068 213.999 185.925 214.412 185.638 214.795C185.351 215.178 184.95 215.369 184.44 215.369C183.355 215.369 182.206 214.03 180.995 211.352C180.038 209.247 179.272 206.792 178.697 203.984V203.698L178.889 203.889ZM160.319 72.6309C161.148 72.6309 161.883 72.7598 162.521 73.0137C162.713 73.1423 162.919 73.2216 163.144 73.2529C163.366 73.286 163.541 73.3336 163.67 73.3965C166.924 73.6524 170.785 78.2441 175.252 87.1729L175.922 88.6074C176.879 88.4164 178.794 88.3213 181.665 88.3213C186.387 88.3213 189.928 88.7037 192.29 89.4688C193.821 90.0427 194.905 90.8726 195.544 91.9561L196.022 92.4346C196.851 93.0729 197.554 93.8696 198.128 94.8262C199.148 96.7395 199.66 100.535 199.66 106.211C199.66 109.336 199.563 111.282 199.372 112.047L200.809 112.716C209.741 117.181 214.336 121.039 214.592 124.292L214.975 125.536C215.229 126.174 215.357 126.94 215.357 127.832C215.357 131.149 213.187 136.06 208.849 142.565L208.083 143.618V144.096L208.657 144.861C213.123 151.495 215.357 156.533 215.357 159.978C215.357 160.998 215.166 161.86 214.783 162.561C214.654 162.816 214.592 163.039 214.592 163.23C214.592 166.674 210.029 170.661 200.904 175.188L199.373 175.954V176.433C199.564 178.666 199.66 180.738 199.66 182.651C199.66 189.221 198.511 193.462 196.214 195.375L195.831 195.662C194.108 198.278 189.737 199.584 182.718 199.584C179.526 199.584 177.293 199.458 176.018 199.202C171.232 209.407 166.987 214.509 163.287 214.509C163.096 214.509 162.871 214.573 162.617 214.7C161.914 215.083 161.052 215.274 160.032 215.274C156.587 215.274 151.576 213.042 145.005 208.577C144.876 208.45 144.733 208.338 144.574 208.242C144.414 208.146 144.287 208.067 144.191 208.003C144.095 207.94 144.015 207.907 143.952 207.907C143.888 207.907 143.808 207.94 143.713 208.003C143.617 208.067 143.457 208.163 143.234 208.29C143.01 208.419 142.835 208.546 142.708 208.673C136.071 213.073 131.126 215.273 127.872 215.273C127.425 215.273 127.011 215.242 126.628 215.178L124.904 214.604C121.394 214.604 117.374 209.981 112.844 200.732L112.078 199.297C111.312 199.488 109.429 199.584 106.431 199.584C101.708 199.584 98.1344 199.202 95.71 198.437C94.3058 197.863 93.253 197.034 92.5518 195.949C92.4877 195.758 92.296 195.599 91.9775 195.471C91.0833 194.77 90.4129 193.973 89.9668 193.079C88.9456 191.295 88.4356 188.169 88.4355 183.704C88.4355 180.516 88.4987 178.059 88.627 176.337V175.858L87.2871 175.188C78.2901 170.725 73.6629 166.866 73.4082 163.613C73.4082 163.359 73.2797 162.928 73.0254 162.321C72.7696 161.716 72.6426 160.967 72.6426 160.073C72.6426 156.693 74.8442 151.783 79.2471 145.34C79.7569 144.575 80.0127 144.129 80.0127 144C80.0126 143.937 79.996 143.874 79.9648 143.81C79.9318 143.747 79.8528 143.634 79.7256 143.475C79.5971 143.316 79.5011 143.173 79.4385 143.044C74.9067 136.347 72.6426 131.276 72.6426 127.832C72.6426 126.875 72.8337 126.047 73.2168 125.345C73.3436 125.091 73.4081 124.867 73.4082 124.676C73.4082 120.978 78.5121 116.735 88.7227 111.951C88.5315 110.994 88.4355 108.89 88.4355 105.637C88.4356 98.8128 89.5844 94.4436 91.8818 92.5303C92.2646 92.1477 92.4874 91.8931 92.5518 91.7646C94.4662 89.4685 98.7094 88.3213 105.282 88.3213C108.472 88.3213 110.705 88.4489 111.982 88.7031C116.768 78.4995 121.011 73.3965 124.713 73.3965C124.904 73.3964 125.127 73.3331 125.383 73.2051C126.084 72.8225 126.945 72.6309 127.967 72.6309C131.413 72.6309 136.453 74.8642 143.091 79.3281C143.282 79.5191 143.57 79.7104 143.952 79.9014H144.335L145.388 79.2324C151.959 74.8319 156.936 72.631 160.319 72.6309ZM115.333 200.637C115.333 200.701 115.97 201.689 117.247 203.603C119.927 207.175 122.287 208.96 124.33 208.96C125.223 208.96 126.085 208.546 126.915 207.716C127.425 209.693 128.829 210.682 131.126 210.683C133.167 210.682 135.848 209.82 139.167 208.099L140.507 207.333L139.263 206.663C135.688 204.878 132.849 203.984 130.743 203.984C129.466 203.984 128.413 204.401 127.585 205.229V205.037C127.138 203.061 124.905 201.722 120.885 201.02C120.246 200.957 119.496 200.876 118.635 200.78C117.774 200.684 117.104 200.622 116.625 200.589C116.147 200.558 115.812 200.541 115.62 200.541L115.333 200.637ZM170.179 200.637C163.797 201.21 160.608 202.87 160.607 205.611L160.416 205.42C159.713 204.463 158.598 203.985 157.066 203.985C155.023 203.985 152.247 204.846 148.738 206.568L148.355 206.855C147.781 207.046 147.494 207.207 147.494 207.334C147.494 207.463 147.717 207.621 148.164 207.812C148.227 207.812 148.322 207.876 148.451 208.003C152.024 209.789 154.831 210.683 156.874 210.683C158.277 210.682 159.394 210.237 160.225 209.343C160.734 208.769 160.99 208.068 160.99 207.238C161.756 208.323 162.713 208.864 163.861 208.864C165.393 208.864 167.211 207.749 169.317 205.516C169.763 205.006 170.242 204.384 170.753 203.65C171.263 202.918 171.726 202.249 172.142 201.642C172.556 201.037 172.763 200.67 172.764 200.541L170.179 200.637ZM132.083 205.42C133.359 205.42 135.051 205.899 137.156 206.855C137.219 206.92 137.315 206.951 137.443 206.951C137.825 207.142 138.017 207.27 138.018 207.333C138.018 207.397 137.793 207.493 137.348 207.62L137.156 207.716C135.051 208.546 133.359 208.96 132.083 208.96C131.062 208.96 130.296 208.673 129.786 208.099C129.53 207.845 129.403 207.558 129.403 207.238V207.047C129.786 205.963 130.679 205.42 132.083 205.42ZM155.726 205.42C157.001 205.42 157.862 205.836 158.31 206.663L158.405 207.333C158.405 207.78 158.133 208.163 157.592 208.481C157.049 208.801 156.331 208.959 155.438 208.959L154.29 208.864C151.546 208.099 150.045 207.589 149.791 207.333L151.418 206.567C153.077 205.802 154.513 205.42 155.726 205.42ZM143.856 80.3799C141.176 82.422 138.558 84.1753 136.007 85.6416C133.454 87.1095 131.444 88.0334 129.977 88.416C129.594 88.4161 129.211 88.5111 128.829 88.7021C127.106 89.2136 124.648 89.4678 121.458 89.4678C118.969 89.4678 115.874 89.2449 112.174 88.7979C112.045 88.7979 111.934 88.9416 111.838 89.2285C111.742 89.5155 111.518 90.0109 111.168 90.7119C110.817 91.4139 110.642 91.8589 110.642 92.0508L109.876 93.582C107.833 97.9199 105.696 101.204 103.463 103.436C101.037 105.86 97.3994 108.156 92.5508 110.323L89.8711 111.567C89.1683 111.823 88.8184 112.015 88.8184 112.142C89.2638 115.841 89.4883 118.935 89.4883 121.422C89.4883 124.547 89.2318 126.97 88.7217 128.692C88.5306 129.266 88.4355 129.682 88.4355 129.937C88.0523 131.405 87.1261 133.397 85.6592 135.915C84.1904 138.435 82.4367 141.066 80.3955 143.808L80.2031 143.999L80.5869 144.573C85.4358 151.079 88.1153 155.831 88.627 158.828C88.627 159.019 88.6584 159.179 88.7227 159.306C89.1684 160.901 89.3926 163.037 89.3926 165.716C89.3926 168.268 89.2012 171.265 88.8184 174.709L88.7227 175.57C88.7227 175.699 88.7705 175.795 88.8662 175.857C88.9621 175.921 89.0725 175.985 89.2012 176.048C89.3281 176.112 89.4556 176.144 89.584 176.145C93.8584 177.995 97.3688 179.844 100.113 181.693C104.388 184.309 108.281 189.89 111.791 198.436C111.854 198.5 111.902 198.595 111.935 198.722C111.966 198.85 112.014 198.961 112.078 199.057C112.141 199.152 112.237 199.2 112.365 199.2H112.939C113.003 199.137 113.098 199.105 113.227 199.104C116.736 198.722 119.736 198.531 122.225 198.531C124.967 198.531 127.106 198.755 128.638 199.2C129.021 199.392 129.37 199.487 129.69 199.487C132.881 200.317 137.443 202.931 143.378 207.332L143.952 207.715C144.015 207.653 144.095 207.605 144.191 207.572C144.287 207.541 144.462 207.414 144.718 207.189C144.972 206.967 145.292 206.727 145.675 206.472C151.035 202.645 155.151 200.349 158.022 199.584L159.268 199.201C160.99 198.691 163.446 198.436 166.638 198.436C168.935 198.436 172.029 198.66 175.922 199.105L176.209 198.723L177.453 195.948C177.453 195.757 177.708 195.216 178.22 194.322C180.197 190.05 182.319 186.78 184.585 184.516C186.849 182.252 190.12 180.131 194.396 178.153C194.841 177.899 195.224 177.709 195.544 177.58L196.022 177.389L196.597 177.102C197.617 176.592 198.32 176.257 198.702 176.097C199.085 175.938 199.276 175.826 199.276 175.762C198.765 171.617 198.511 168.364 198.511 166.004C198.511 163.198 198.765 160.933 199.276 159.211L199.468 158.542C200.616 154.588 203.36 149.773 207.7 144.096L207.891 143.904L207.413 143.33C203.01 137.399 200.393 132.807 199.564 129.554C199.564 129.3 199.467 128.98 199.276 128.597C198.829 127.003 198.606 124.866 198.606 122.188C198.606 119.637 198.798 116.639 199.181 113.194C199.181 113.067 199.212 112.971 199.276 112.907C199.276 112.397 199.229 112.11 199.133 112.046C199.037 111.983 198.925 111.935 198.798 111.902C198.669 111.871 198.574 111.823 198.511 111.759C192.256 109.209 187.614 106.417 184.584 103.388C181.552 100.359 178.759 95.7505 176.208 89.5635C176.208 89.4364 176.175 89.3414 176.112 89.2773C175.984 88.8944 175.825 88.7031 175.634 88.7031L174.772 88.7988C171.327 89.1815 168.327 89.3721 165.775 89.3721C163.095 89.3721 160.957 89.1498 159.362 88.7031L158.884 88.5117C155.884 88.0665 151.162 85.4186 144.718 80.5713L144.144 80.1885L143.856 80.3799ZM147.301 84.4932L146.727 84.876C145.832 85.323 145.29 85.9293 145.099 86.6943L145.003 87.0771C154.766 87.3969 163.636 89.7884 171.613 94.252L171.709 93.1992C171.709 92.6897 171.549 92.0844 171.23 91.3818L170.943 90.8076C171.007 90.8072 171.246 90.728 171.661 90.5684C172.075 90.4102 172.57 90.2342 173.145 90.043C173.718 89.8516 174.229 89.6763 174.676 89.5166C175.121 89.3586 175.377 89.2461 175.441 89.1816C175.568 89.1816 175.648 89.2777 175.681 89.4688C175.712 89.6601 175.761 89.9951 175.825 90.4736C175.888 90.9518 175.984 91.4469 176.112 91.9561L176.399 93.9648L175.633 94.0605C174.803 94.0607 173.973 94.4122 173.145 95.1133C181.376 100.088 187.948 106.658 192.862 114.821C193.628 114.184 194.011 113.163 194.011 111.76V111.568L194.681 111.665C195.064 111.729 195.51 111.808 196.021 111.903C196.532 111.999 197.026 112.095 197.505 112.19C197.983 112.286 198.302 112.351 198.462 112.382C198.62 112.415 198.716 112.43 198.749 112.43C198.78 112.43 198.797 112.463 198.797 112.525C198.797 112.654 198.525 113.419 197.983 114.821C197.442 116.222 197.171 116.956 197.17 117.021L196.596 116.735C195.893 116.417 195.319 116.257 194.873 116.257L193.819 116.353C198.285 124.389 200.646 133.254 200.902 142.948L201.286 142.853C202.115 142.661 202.849 141.929 203.487 140.652L207.22 143.81C207.219 144.066 206.612 144.639 205.401 145.531C204.189 146.425 203.487 146.871 203.296 146.871C202.913 145.787 202.147 145.086 200.998 144.767C200.742 154.653 198.35 163.613 193.82 171.649C194.139 171.778 194.458 171.841 194.777 171.841C195.543 171.841 196.245 171.586 196.883 171.075C197.01 171.075 197.345 171.745 197.888 173.084C198.429 174.423 198.701 175.253 198.701 175.571V175.667L198.031 175.763C197.584 175.827 197.041 175.923 196.404 176.05C195.766 176.179 195.222 176.274 194.776 176.337C194.33 176.401 194.09 176.433 194.059 176.433C194.026 176.433 193.978 176.466 193.915 176.528L193.819 175.572C193.819 174.68 193.499 173.914 192.862 173.275C187.948 181.376 181.439 187.882 173.336 192.792C174.037 193.43 174.834 193.749 175.729 193.749H175.92C176.365 193.749 176.589 193.782 176.59 193.845C176.59 193.973 176.542 194.276 176.446 194.754C176.35 195.232 176.255 195.775 176.159 196.38C176.063 196.987 175.968 197.514 175.872 197.959C175.776 198.406 175.695 198.628 175.633 198.628C174.103 198.119 173.289 197.832 173.192 197.768C173.097 197.705 172.665 197.545 171.899 197.289L171.134 196.906L171.229 196.715C171.675 196.078 171.899 195.471 171.899 194.897C171.899 194.579 171.836 194.196 171.709 193.749C163.669 198.278 154.733 200.671 144.907 200.925C145.225 202.072 145.896 202.838 146.918 203.221L147.109 203.316L147.013 203.412C147.013 203.541 146.822 203.795 146.438 204.178L145.769 205.039C145.704 205.167 145.609 205.262 145.481 205.325C144.652 206.41 144.173 206.952 144.046 206.952H143.856V206.95C143.665 206.95 143.441 206.776 143.187 206.425C142.931 206.075 142.453 205.42 141.751 204.463L140.698 203.411L141.272 203.028C142.23 202.583 142.771 201.975 142.899 201.21C142.962 201.147 142.995 201.052 142.995 200.924C133.295 200.606 124.426 198.213 116.386 193.748L116.29 194.801C116.29 195.247 116.449 195.821 116.769 196.522C116.96 196.714 117.056 196.906 117.056 197.097L112.557 198.723C112.428 198.469 112.365 198.309 112.365 198.245C112.365 198.182 112.332 197.895 112.27 197.384L111.6 193.94L112.365 193.845C112.875 193.845 113.306 193.782 113.657 193.653C114.007 193.526 114.376 193.239 114.759 192.792C106.59 187.882 100.05 181.344 95.1367 173.18C94.4339 173.754 94.084 174.648 94.084 175.859C94.084 176.179 94.0502 176.337 93.9873 176.337C93.9231 176.337 93.796 176.323 93.6045 176.29C93.4134 176.259 93.1576 176.21 92.8389 176.146C92.519 176.083 92.1526 176.018 91.7383 175.954C91.3223 175.891 90.9242 175.828 90.541 175.764C90.1586 175.701 89.8557 175.636 89.6328 175.572C89.4086 175.509 89.2641 175.477 89.2012 175.477C89.2012 175.413 89.2806 175.158 89.4404 174.711C89.599 174.266 89.7905 173.754 90.0146 173.181C90.2377 172.607 90.4287 172.096 90.5889 171.649C90.7472 171.204 90.8604 170.948 90.9248 170.884L91.4023 171.171C92.1037 171.491 92.7103 171.649 93.2217 171.649L94.1787 171.554C89.7114 163.517 87.3491 154.653 87.0947 144.958L86.8076 145.054C86.0421 145.309 85.4036 145.852 84.8936 146.68L84.5107 147.254L84.0322 146.775C83.6495 146.457 83.2024 146.091 82.6924 145.676C82.1807 145.262 81.7495 144.895 81.3994 144.575C81.0491 144.258 80.8417 144.097 80.7783 144.097C80.7784 143.906 81.4003 143.348 82.6445 142.423C83.8886 141.499 84.5734 141.035 84.7021 141.035C85.085 142.12 85.882 142.821 87.0947 143.14C87.3491 133.254 89.7758 124.293 94.3701 116.257C93.987 116.13 93.6352 116.065 93.3164 116.065C92.5508 116.065 91.8478 116.321 91.2109 116.831C91.0198 116.831 90.6521 116.114 90.1104 114.679C89.5678 113.244 89.297 112.43 89.2969 112.239C89.5515 112.239 90.317 112.112 91.5938 111.856C92.8689 111.603 93.6662 111.474 93.9863 111.474L94.1777 111.378C94.1777 112.398 94.2572 113.1 94.417 113.482C94.5756 113.865 94.848 114.248 95.2305 114.63C100.144 106.594 106.652 100.121 114.757 95.209C114.054 94.5083 113.193 94.1573 112.173 94.1572H111.407C111.47 94.0944 111.503 94.0299 111.503 93.9658C111.503 93.9029 111.534 93.6475 111.599 93.2002C111.662 92.755 111.757 92.2124 111.886 91.5742C112.013 90.9373 112.109 90.4109 112.173 89.9951C112.236 89.5812 112.3 89.3417 112.364 89.2773C112.747 89.2774 113.592 89.5497 114.9 90.0908C116.208 90.6335 116.862 90.9998 116.862 91.1914C116.351 91.7653 116.097 92.435 116.097 93.2002C116.097 93.52 116.16 93.9034 116.288 94.3486C124.391 89.7563 133.357 87.3326 143.185 87.0771C142.865 85.8665 142.195 85.0679 141.175 84.6855V84.5898C141.175 84.4626 141.62 83.7925 142.515 82.5801C143.407 81.3699 143.95 80.7634 144.142 80.7627L147.301 84.4932ZM118.204 201.784C118.204 201.848 118.235 201.88 118.3 201.88C120.788 202.071 122.607 202.519 123.756 203.22C124.522 203.731 124.952 204.161 125.048 204.511C125.144 204.862 125.192 205.133 125.192 205.324C125.192 206.281 124.649 206.759 123.564 206.759C122.032 206.759 120.118 205.261 117.821 202.263C117.757 202.263 117.692 202.215 117.63 202.119C117.566 202.024 117.534 201.944 117.534 201.88V201.784H118.204ZM170.274 201.688C170.528 201.688 170.657 201.721 170.657 201.784L170.274 202.454C167.913 205.324 165.998 206.759 164.531 206.759L164.053 206.663C163.35 206.409 163 205.931 163 205.229C163 203.252 165.393 202.104 170.179 201.784L170.274 201.688ZM101.167 200.54C101.358 200.604 101.773 200.637 102.411 200.637C102.602 200.701 102.889 200.765 103.271 200.827C103.655 200.892 104.101 200.924 104.612 200.924L104.899 201.02C105.153 201.02 105.345 201.052 105.474 201.115H105.569C105.76 201.115 105.856 201.148 105.856 201.211L104.229 202.358L99.9219 205.133C98.7092 206.026 97.8481 206.472 97.3379 206.473H96.9551C96.0608 206.473 95.184 206.314 94.3223 205.994C93.4609 205.676 92.8392 205.324 92.4561 204.941L92.5518 204.654C92.8058 203.635 93.2367 202.741 93.8438 201.976C94.4493 201.21 95.103 200.731 95.8057 200.54C96.1888 200.477 96.8908 200.445 97.9121 200.445L101.167 200.54ZM189.993 200.35C191.013 200.35 191.812 200.413 192.386 200.54C193.597 200.86 194.492 201.721 195.066 203.124C195.449 204.017 195.641 204.559 195.641 204.75C195.641 204.878 195.576 205.006 195.449 205.133C194.301 206.027 192.96 206.473 191.429 206.473C190.917 206.473 190.534 206.425 190.279 206.329C190.023 206.233 189.705 206.058 189.322 205.803C188.939 205.549 188.38 205.181 187.647 204.702C186.913 204.224 185.972 203.602 184.823 202.837L184.633 202.741C183.867 202.232 183.371 201.913 183.148 201.784C182.924 201.657 182.749 201.53 182.622 201.401L182.431 201.21L182.24 201.114C182.241 201.051 182.432 200.988 182.814 200.924L185.59 200.637C187.375 200.445 188.845 200.35 189.993 200.35ZM90.7812 178.633C90.7482 178.633 90.7334 178.952 90.7334 179.589C90.7963 179.909 90.8291 180.323 90.8291 180.833C90.8291 180.897 90.8442 181.01 90.877 181.168C90.9082 181.328 90.9248 181.632 90.9248 182.077C90.9249 182.205 90.9563 182.3 91.0205 182.363V182.842C91.8489 188.072 93.4764 190.688 95.9023 190.688C96.4763 190.687 97.0505 190.559 97.625 190.304C97.3692 190.878 97.2422 191.421 97.2422 191.931C97.2422 193.844 98.7412 195.279 101.741 196.235C103.335 196.747 104.803 197.001 106.144 197.001L108.92 197.192L109.398 197.097C109.207 196.651 108.759 195.917 108.058 194.896C105.186 190.751 102.633 188.678 100.4 188.678C99.8888 188.678 99.3793 188.807 98.8691 189.061C99.1235 188.551 99.252 188.04 99.252 187.529C99.2517 185.106 96.6985 182.268 91.5947 179.016C91.339 178.761 91.1162 178.633 90.9248 178.633H90.7812ZM197.172 178.633C197.108 178.633 196.772 178.84 196.166 179.254C195.559 179.67 194.889 180.132 194.156 180.642C193.422 181.153 192.831 181.598 192.386 181.981C189.96 184.086 188.748 185.967 188.748 187.625C188.748 188.072 188.811 188.455 188.939 188.773C188.557 188.646 188.174 188.582 187.791 188.582C185.748 188.582 183.388 190.4 180.708 194.035C179.431 195.757 178.793 196.778 178.793 197.097H179.464L180.995 197.001C187.631 196.427 190.95 194.705 190.95 191.835C190.95 191.452 190.886 191.038 190.759 190.591C191.204 190.72 191.62 190.782 192.003 190.782C194.683 190.782 196.341 187.881 196.979 182.076C197.171 180.801 197.268 179.684 197.268 178.728L197.172 178.633ZM101.263 190.782C102.156 190.782 103.113 191.246 104.134 192.17C105.154 193.095 105.823 193.813 106.144 194.322C106.206 194.322 106.239 194.355 106.239 194.418C106.622 194.929 106.877 195.279 107.006 195.471C107.133 195.662 107.197 195.791 107.197 195.854L106.622 195.853C102.028 195.152 99.7307 193.877 99.7305 192.026C99.7305 191.198 100.241 190.782 101.263 190.782ZM186.738 190.687C187.184 190.687 187.6 190.847 187.982 191.165C188.365 191.485 188.557 191.835 188.557 192.218C188.556 192.729 188.237 193.239 187.6 193.748C186.514 194.642 184.759 195.278 182.335 195.661C181.952 195.79 181.632 195.853 181.378 195.853H180.899C180.9 195.725 181.154 195.312 181.665 194.609C183.579 191.995 185.269 190.687 186.738 190.687ZM144.048 92.0518C129.753 92.0518 117.549 97.107 107.436 107.215C97.321 117.325 92.2647 129.554 92.2646 143.904C92.2646 158.192 97.3211 170.39 107.436 180.498C117.549 190.608 129.753 195.662 144.048 195.662C158.341 195.662 170.546 190.607 180.66 180.498C190.773 170.39 195.831 158.192 195.831 143.904C195.831 129.554 190.773 117.324 180.66 107.215C170.546 97.107 158.341 92.0518 144.048 92.0518ZM201.191 182.172C201.254 182.172 201.734 182.811 202.628 184.086L205.786 188.965C206.232 189.73 206.471 190.209 206.504 190.4C206.535 190.591 206.552 190.815 206.552 191.069C206.488 192.791 206.04 194.227 205.212 195.375C205.083 195.503 204.956 195.565 204.829 195.565C204.7 195.565 204.508 195.503 204.254 195.375C202.34 194.801 201.223 194.02 200.904 193.03C200.584 192.043 200.426 191.007 200.426 189.922C200.426 188.583 200.584 186.829 200.904 184.66C200.967 183.959 201.015 183.368 201.048 182.89C201.079 182.412 201.127 182.173 201.191 182.172ZM86.9053 182.459V183.033C86.9681 183.097 87.001 183.258 87.001 183.512C87.001 183.767 87.0639 184.181 87.1924 184.755V185.139C87.1925 185.203 87.2238 185.33 87.2881 185.521L87.3838 187.243C87.5108 188.328 87.5752 189.285 87.5752 190.113C87.5752 191.39 87.4151 192.299 87.0967 192.84C86.7767 193.383 86.3139 193.86 85.708 194.274C85.1009 194.69 84.5912 194.977 84.1768 195.136C83.7612 195.296 83.4259 195.375 83.1719 195.375C82.7243 195.375 82.3243 194.833 81.9746 193.748C81.6234 192.664 81.4492 191.676 81.4492 190.782C81.4492 190.4 81.4972 190.113 81.5928 189.922C81.6885 189.731 81.9909 189.22 82.502 188.391C83.0121 187.563 83.6025 186.669 84.2725 185.712C84.9424 184.755 85.5166 183.894 85.9951 183.129C86.473 182.365 86.744 181.983 86.8086 181.981L86.9053 182.459ZM207.509 176.432C209.869 176.432 212.103 176.56 214.209 176.814C217.717 177.134 220.048 177.708 221.196 178.536C222.345 179.366 223.207 180.466 223.781 181.837C224.356 183.209 224.77 185.106 225.025 187.529C225.152 188.615 225.44 189.698 225.887 190.782C226.014 191.229 226.141 191.452 226.27 191.452L225.408 191.548C224.578 191.548 223.494 191.868 222.153 192.505C219.537 193.717 217.368 194.322 215.646 194.322C215.198 194.322 214.75 194.259 214.305 194.131C211.177 194.003 207.189 189.22 202.341 179.78L200.713 176.814L201.191 177.293C204.829 182.014 207.715 184.995 209.854 186.238C211.991 187.482 213.571 188.103 214.592 188.104C215.676 188.104 216.537 187.706 217.176 186.908C217.813 186.111 218.134 185.362 218.134 184.659C218.134 183.511 217.431 182.427 216.028 181.406C213.794 179.748 209.933 178.409 204.445 177.389C204.317 177.326 204.173 177.293 204.015 177.293C203.855 177.293 203.647 177.262 203.393 177.197C202.498 177.006 201.829 176.91 201.383 176.91L200.904 176.814C201.287 176.752 201.637 176.719 201.957 176.719C202.275 176.719 202.498 176.688 202.627 176.623C204.286 176.496 205.913 176.432 207.509 176.432ZM78.1943 176.433C84.124 176.433 87.091 176.496 87.0957 176.623C87.0957 176.687 86.9672 176.72 86.7129 176.72C83.5857 177.04 80.5541 177.676 77.6201 178.633C74.6843 179.589 72.5783 180.61 71.3027 181.694C70.4086 182.715 69.9629 183.704 69.9629 184.66C69.963 185.234 70.1213 185.808 70.4414 186.382C71.0783 187.467 72.0998 188.009 73.5039 188.009C76.1842 188.009 79.9487 185.234 84.7988 179.685L85.7559 178.441C86.3301 177.805 86.7442 177.293 87 176.91C87.0628 176.783 87.1271 176.72 87.1914 176.72L84.7031 181.503C81.5755 187.116 79.0549 190.72 77.1406 192.313C75.5448 193.59 74.0132 194.227 72.5459 194.227C72.0994 194.226 71.6523 194.164 71.207 194.035C69.4198 193.717 67.6968 193.191 66.0381 192.457C64.3781 191.724 63.102 191.356 62.209 191.356H61.6348C62.3361 190.655 62.7839 189.284 62.9756 187.242C63.2296 182.779 64.4259 179.861 66.5645 178.489C68.7015 177.118 72.5782 176.433 78.1943 176.433ZM195.975 180.881C196.006 180.914 196.022 180.962 196.022 181.024C195.703 183.449 195.192 185.282 194.491 186.525C193.789 187.769 193.056 188.39 192.29 188.391L191.715 188.295C191.012 188.104 190.662 187.69 190.662 187.052C190.662 186.669 190.789 186.223 191.045 185.712C191.682 184.31 192.927 182.937 194.778 181.598C195.223 181.28 195.527 181.072 195.688 180.977C195.846 180.881 195.942 180.85 195.975 180.881ZM92.4561 180.929C95.5818 183.098 97.1465 184.947 97.1465 186.478C97.1464 186.86 97.0345 187.259 96.8115 187.673C96.5873 188.089 96.2851 188.295 95.9023 188.295C93.9878 188.295 92.7105 185.968 92.0732 181.312V180.737L92.4561 180.929ZM204.062 178.633C206.231 179.015 208.337 179.589 210.38 180.354C213.762 181.694 215.453 183.034 215.453 184.373C215.453 184.628 215.42 184.851 215.357 185.042C215.037 185.681 214.432 185.999 213.539 185.999C212.582 185.999 211.146 185.234 209.231 183.703C207.508 182.428 205.753 180.801 203.968 178.823L203.872 178.633H204.062ZM81.9277 180.642C78.5446 184.086 75.9924 185.808 74.2695 185.808C73.5037 185.808 73.0257 185.601 72.834 185.186C72.6429 184.772 72.5469 184.437 72.5469 184.182C72.5469 182.397 75.4183 180.705 81.1611 179.11L83.459 178.537L84.0332 178.441L81.9277 180.642ZM214.783 168.778C215.229 168.778 215.868 168.939 216.698 169.257C218.356 170.022 219.186 170.629 219.187 171.074C219.187 171.457 218.883 172 218.277 172.701C217.67 173.404 217.017 173.977 216.315 174.423C216.315 174.487 216.282 174.519 216.219 174.519C215.772 174.839 215.293 174.997 214.783 174.997H213.061L205.595 174.519C205.786 174.392 205.93 174.296 206.025 174.232C206.121 174.169 206.36 173.944 206.743 173.562L206.935 173.467C211.017 170.343 213.634 168.779 214.783 168.778ZM72.9297 168.683C73.6954 168.683 74.6204 169.003 75.7061 169.64C77.2372 170.533 79.4709 172.096 82.4062 174.327C82.2149 174.391 81.9905 174.423 81.7363 174.423C81.4805 174.423 81.2241 174.456 80.9697 174.519L76.7588 174.71C76.4388 174.774 76.0236 174.806 75.5137 174.806L73.9824 174.901H72.7383L72.1641 174.614C70.6953 173.849 69.6115 172.765 68.9102 171.361L68.8135 171.074C68.8136 170.82 69.2599 170.374 70.1543 169.735C71.047 169.098 71.7168 168.764 72.1641 168.73C72.6086 168.699 72.8643 168.683 72.9297 168.683ZM207.365 147.444C207.332 147.444 207.189 147.7 206.935 148.21C205.02 152.036 204.063 154.97 204.062 157.011C204.062 158.479 204.542 159.563 205.499 160.264L205.689 160.455L205.307 160.551C202.818 160.807 201.286 163.996 200.712 170.118L200.616 171.936V172.701C200.744 172.701 200.872 172.638 201 172.51C204.573 170.405 206.791 168.587 207.652 167.057C208.514 165.526 208.944 164.378 208.944 163.612C208.944 162.529 208.402 161.636 207.317 160.934C209.485 160.934 210.587 160.312 210.62 159.068C210.651 157.826 210.668 157.108 210.668 156.916C210.668 154.684 209.741 151.718 207.892 148.019C207.7 147.636 207.572 147.444 207.509 147.444H207.365ZM79.917 148.592C79.4053 149.677 78.8481 151.048 78.2422 152.706C77.6352 154.365 77.333 155.8 77.333 157.011C77.333 159.18 78.29 160.52 80.2041 161.029L79.917 161.411C79.2783 162.114 78.96 162.88 78.96 163.708C78.96 165.941 81.2243 168.587 85.7559 171.648C86.0102 171.84 86.2666 172 86.5225 172.127C86.7765 172.255 86.9531 172.365 87.0488 172.461C87.1445 172.557 87.224 172.605 87.2881 172.605C87.3505 172.605 87.3828 172.254 87.3828 171.553C87.0628 164.729 85.5647 160.998 82.8848 160.359H82.6934C83.5862 159.658 84.0332 158.605 84.0332 157.202C84.0331 155.162 83.0112 152.069 80.9697 147.923C80.7786 147.605 80.6498 147.444 80.5869 147.444L79.917 148.592ZM205.69 162.942C206.456 163.134 206.839 163.581 206.839 164.282C206.839 165.878 205.403 167.822 202.531 170.118L202.436 170.214C202.116 170.469 201.924 170.597 201.861 170.597V170.117C202.307 165.334 203.456 162.942 205.308 162.942H205.69ZM82.5967 162.751C84.638 162.751 85.8187 165.176 86.1387 170.022V170.405L85.2773 169.927L85.1816 169.735C82.5642 167.695 81.2568 165.909 81.2568 164.378C81.2568 163.294 81.7024 162.751 82.5967 162.751ZM75.4189 148.497C75.4189 148.688 74.9406 149.87 73.9834 152.037C72.452 155.418 71.3025 157.363 70.5371 157.873C69.7712 158.384 68.9101 158.638 67.9531 158.638C67.5697 158.637 67.1535 158.606 66.708 158.542C66.2609 158.479 65.9258 158.415 65.7031 158.351C65.4789 158.288 65.3519 158.175 65.3203 158.016C65.2873 157.857 65.2725 157.585 65.2725 157.203C65.3354 154.844 66.1652 153.217 67.7607 152.323C68.0792 152.069 68.6538 151.75 69.4834 151.367C70.312 150.985 71.1738 150.57 72.0684 150.123C72.9612 149.678 73.7266 149.295 74.3652 148.976C75.0024 148.657 75.3542 148.497 75.4189 148.497ZM80.5869 149.932C80.6498 149.932 80.7783 150.156 80.9697 150.602L81.0664 150.793C82.0234 152.897 82.501 154.588 82.501 155.863C82.5009 156.757 82.293 157.426 81.8789 157.872C81.463 158.319 81.0326 158.542 80.5869 158.542L80.2041 158.446C79.4385 158.001 79.0557 157.14 79.0557 155.863C79.0557 154.588 79.4388 152.897 80.2041 150.793L80.2998 150.602C80.427 150.157 80.5228 149.932 80.5869 149.932ZM207.413 149.74C207.54 149.804 207.684 150.075 207.844 150.554C208.002 151.032 208.179 151.574 208.37 152.18C208.562 152.786 208.72 153.28 208.849 153.662C208.976 154.3 209.04 154.875 209.04 155.385C209.04 156.15 208.896 156.853 208.609 157.489C208.322 158.128 207.923 158.446 207.413 158.446C207.222 158.447 206.997 158.384 206.743 158.255C205.913 157.745 205.499 156.884 205.499 155.672C205.499 154.332 205.882 152.834 206.647 151.175L207.413 149.74ZM216.984 150.314C219.536 151.591 220.989 152.404 221.34 152.754C221.69 153.105 221.993 153.662 222.249 154.428C222.632 155.64 222.823 156.597 222.823 157.298C222.823 157.617 222.775 157.841 222.68 157.968C222.584 158.096 222.28 158.192 221.771 158.255C221.259 158.319 220.717 158.351 220.143 158.351C218.804 158.351 217.847 158.063 217.272 157.489C216.315 156.532 214.911 153.758 213.061 149.166L212.678 148.306L216.984 150.314ZM60.3906 135.294C63.2622 135.294 69.1326 138.068 78.0029 143.617L78.5771 144C69.8336 149.804 63.645 152.706 60.0078 152.706C58.539 152.706 57.1362 152.132 55.7959 150.984C54.7103 150.156 53.5307 148.848 52.2549 147.062C51.2977 145.66 50.3075 144.703 49.2871 144.191L49 144C49.3184 143.937 49.7805 143.634 50.3877 143.092C50.9933 142.551 51.5849 141.864 52.1592 141.034C54.7747 137.207 57.5192 135.294 60.3906 135.294ZM227.609 135.103C230.481 135.103 233.224 137.016 235.842 140.843C236.799 142.246 237.787 143.203 238.809 143.713L239 143.904C238.744 143.968 238.297 144.272 237.66 144.812C237.021 145.355 236.416 146.042 235.842 146.87C233.097 150.761 230.385 152.706 227.705 152.706C224.834 152.706 218.962 149.9 210.094 144.287L209.519 143.904C212.326 142.055 215.167 140.333 218.038 138.738C222.568 136.315 225.758 135.103 227.609 135.103ZM64.123 140.269C60.9318 140.269 59.2735 141.513 59.1465 144C59.1465 146.487 60.8046 147.73 64.123 147.73C67.3133 147.731 71.7487 146.648 77.4287 144.479C77.9388 144.224 78.2572 144.096 78.3857 144.096C78.3857 144.033 78.1946 143.92 77.8115 143.761C77.4287 143.602 76.9505 143.411 76.376 143.187C75.8017 142.964 75.2269 142.756 74.6523 142.564C70.1851 141.034 66.6745 140.269 64.123 140.269ZM223.877 140.174C221.58 140.174 218.516 140.78 214.688 141.991L209.711 143.809C209.712 143.873 210.381 144.161 211.721 144.67C216.634 146.648 220.719 147.636 223.973 147.636C227.29 147.636 228.949 146.392 228.949 143.904C228.821 141.417 227.131 140.174 223.877 140.174ZM65.3682 142.087C67.4097 142.087 70.3451 142.661 74.1738 143.809C74.2367 143.873 74.3651 143.937 74.5566 144H74.748C74.7472 144.064 74.2047 144.288 73.1211 144.67C69.8025 145.564 67.1868 146.009 65.2725 146.009C62.911 146.009 61.7306 145.373 61.7305 144.096C61.9219 142.756 63.1336 142.087 65.3682 142.087ZM222.823 141.8C225.12 141.8 226.27 142.469 226.27 143.809C226.269 145.148 225.152 145.817 222.919 145.817C220.685 145.817 217.686 145.244 213.922 144.096C213.858 144.033 213.745 143.986 213.587 143.952C213.427 143.921 213.348 143.873 213.348 143.809C213.348 143.746 213.73 143.617 214.496 143.426L214.975 143.234C218.356 142.277 220.972 141.8 222.823 141.8ZM87.3838 115.204C87.1927 115.204 86.1702 115.873 84.3203 117.213C80.8105 119.828 79.0569 122.156 79.0566 124.196C79.0566 125.282 79.5978 126.206 80.6836 126.971C78.5132 126.971 77.4125 127.578 77.3809 128.789C77.3481 130.001 77.333 130.639 77.333 130.702C77.333 132.998 78.2908 136.06 80.2051 139.887C80.3964 140.269 80.5235 140.46 80.5879 140.46C80.8416 140.46 81.0978 140.046 81.3535 139.217C83.139 135.646 84.0332 132.839 84.0332 130.798C84.0332 129.331 83.5548 128.247 82.5977 127.545L82.3105 127.449L82.7891 127.354C85.2135 127.035 86.7138 123.847 87.2881 117.787L87.4795 115.395L87.3838 115.204ZM200.713 115.586C200.713 116.48 200.776 117.468 200.904 118.552C201.479 123.974 202.882 126.939 205.116 127.449L205.307 127.545C204.477 128.375 204.062 129.427 204.062 130.702C204.063 132.744 205.116 135.836 207.222 139.981C207.349 140.237 207.445 140.364 207.509 140.364L208.179 139.025C209.902 135.581 210.764 132.84 210.764 130.798C210.764 128.693 209.773 127.386 207.796 126.875C208.624 126.047 209.04 125.153 209.04 124.196C209.04 121.709 206.614 118.935 201.766 115.873L200.713 115.299V115.586ZM68.0479 129.554C69.0048 129.554 69.8018 129.745 70.4404 130.128C71.0773 130.511 72.0354 132.074 73.3125 134.815C73.7579 135.772 74.1889 136.698 74.6045 137.59C75.019 138.484 75.2895 139.121 75.418 139.504H75.2266C75.0963 139.503 74.2041 139.088 72.5469 138.26C68.8459 136.411 66.7714 135.184 66.3252 134.577C65.8782 133.972 65.6553 133.445 65.6553 132.998C65.3354 132.106 65.1768 131.405 65.1768 130.894C65.1768 130.639 65.2081 130.415 65.2725 130.224C65.5911 129.778 66.5169 129.554 68.0479 129.554ZM220.048 129.268C220.94 129.268 221.706 129.363 222.345 129.554C222.663 129.682 222.824 130.066 222.824 130.702C222.76 133.063 221.929 134.72 220.335 135.677C219.249 136.251 218.117 136.825 216.938 137.399C215.756 137.973 214.784 138.436 214.018 138.786C213.252 139.137 212.805 139.312 212.678 139.312C213.635 136.825 214.879 134.179 216.41 131.372C217.176 129.97 218.388 129.268 220.048 129.268ZM80.6826 129.458C80.8738 129.458 81.0977 129.522 81.3535 129.649C82.1816 130.161 82.5976 130.989 82.5977 132.137C82.5977 133.157 82.3106 134.402 81.7363 135.868L80.5869 138.164C80.4581 138.037 80.3151 137.718 80.1562 137.207C79.9965 136.698 79.8213 136.155 79.6299 135.581C79.247 134.497 79.0557 133.414 79.0557 132.328C79.0557 131.627 79.1827 130.974 79.4385 130.367C79.6925 129.762 80.1086 129.458 80.6826 129.458ZM207.509 129.362C208.529 129.362 209.04 130.288 209.04 132.137C209.04 133.476 208.657 135.103 207.892 137.017L207.796 137.303C207.605 137.685 207.476 137.877 207.413 137.877C207.349 137.877 207.253 137.686 207.126 137.303L206.935 137.112C205.977 135.008 205.499 133.318 205.499 132.041C205.499 130.639 206.04 129.745 207.126 129.362H207.509ZM202.341 117.691H202.437C205.371 119.988 206.839 121.934 206.839 123.527C206.839 124.548 206.361 125.058 205.403 125.058C203.489 125.057 202.34 122.794 201.957 118.265V117.404L202.341 117.691ZM86.1387 117.308C86.2016 117.308 86.2344 117.437 86.2344 117.69V117.787C85.7874 122.57 84.6388 124.962 82.7891 124.962C81.7031 124.962 81.1611 124.516 81.1611 123.622C81.1613 122.029 82.6291 120.083 85.5645 117.787C85.5645 117.724 85.5955 117.69 85.6602 117.69C85.9139 117.437 86.0741 117.308 86.1387 117.308ZM215.358 113.003C217.208 113.897 218.452 115.076 219.091 116.543L219.187 116.926V117.021C219.186 117.15 219.057 117.308 218.804 117.499C217.335 118.711 216.028 119.316 214.879 119.316C213.793 119.317 211.273 117.82 207.317 114.821L205.69 113.577C205.753 113.514 205.801 113.481 205.834 113.481C205.868 113.481 206.586 113.45 207.987 113.386L209.136 113.29L211.338 113.194C211.592 113.194 211.848 113.179 212.104 113.146C212.358 113.115 212.661 113.099 213.013 113.099C213.362 113.099 213.73 113.067 214.113 113.003H215.358ZM82.501 113.386L81.2568 114.343C81.2567 114.407 81.2239 114.438 81.1611 114.438C78.6082 116.352 76.773 117.612 75.6572 118.217C74.5401 118.824 73.6954 119.126 73.1211 119.126C72.4186 119.126 71.6856 118.903 70.9199 118.456C69.5803 117.691 68.9106 117.117 68.9102 116.734C68.9102 116.543 69.1328 116.129 69.5801 115.49C70.2173 114.662 70.9825 113.928 71.877 113.29C72.2598 113.036 72.7383 112.907 73.3125 112.907L82.501 113.386ZM215.741 93.7734C217.526 93.7735 219.601 94.3471 221.962 95.4951C223.747 96.1976 225.057 96.5479 225.887 96.5479H226.461C225.758 97.2505 225.313 98.6211 225.121 100.661C224.801 104.617 223.843 107.328 222.249 108.794C220.653 110.262 217.75 111.123 213.539 111.377L208.753 111.473H204.445L200.904 111.281C200.904 111.218 201.031 111.186 201.287 111.186C204.413 110.867 207.461 110.229 210.428 109.272C213.395 108.316 215.516 107.296 216.793 106.211C217.686 105.191 218.134 104.202 218.134 103.245C218.134 102.671 217.974 102.097 217.655 101.522C217.017 100.439 215.994 99.8965 214.592 99.8965C211.847 99.8966 208.083 102.671 203.298 108.22L200.904 111.186C200.904 111.059 201.159 110.532 201.67 109.607C202.18 108.684 202.771 107.615 203.441 106.402C204.111 105.192 204.733 104.106 205.308 103.149C208.051 98.3032 210.204 95.5287 211.769 94.8262C213.332 94.1249 214.656 93.7734 215.741 93.7734ZM72.2588 93.582C73.2162 93.582 74.1093 93.7423 74.9395 94.0605C77.6198 94.8262 81.2241 99.514 85.7559 108.124L87.2871 111.09L86.9043 110.611C83.267 105.892 80.396 102.895 78.29 101.618C76.1846 100.343 74.5884 99.7052 73.5039 99.7051C72.4182 99.7051 71.5562 100.121 70.9189 100.949C70.2804 101.779 69.9619 102.576 69.9619 103.341C69.962 104.426 70.6318 105.479 71.9717 106.498C74.2691 108.157 78.1607 109.496 83.6494 110.516L84.0322 110.611H84.1289C84.192 110.676 84.3832 110.723 84.7031 110.755C85.0212 110.788 85.3566 110.836 85.708 110.898C86.0579 110.963 86.3452 110.994 86.5693 110.994C86.7922 110.994 87.0001 111.027 87.1914 111.09C86.8084 111.154 86.4736 111.186 86.1865 111.186C85.8994 111.186 85.6595 111.219 85.4678 111.282L78.6729 111.281C72.4185 111.281 68.4625 110.644 66.8037 109.367C65.6554 108.539 64.7937 107.44 64.2197 106.067C63.6455 104.697 63.2615 102.799 63.0703 100.375L62.6875 98.5576C62.3673 97.1554 62.0802 96.4521 61.8262 96.4521H61.7305L61.9219 96.3564L62.4004 96.4521C63.2931 96.4521 64.4735 96.1022 65.9424 95.3994C68.6848 94.1891 70.7907 93.5821 72.2588 93.582ZM213.827 102.098C214.464 102.098 214.975 102.384 215.358 102.958C215.485 103.214 215.55 103.47 215.55 103.724C215.55 105.701 212.135 107.519 205.308 109.177C204.861 109.368 204.478 109.464 204.159 109.464H204.062C204.062 109.401 204.111 109.32 204.207 109.225C204.303 109.129 204.557 108.858 204.973 108.411C205.387 107.966 205.834 107.519 206.312 107.072C206.791 106.627 207.158 106.244 207.414 105.924C210.221 103.374 212.358 102.098 213.827 102.098ZM179.368 90.7119C178.921 90.7119 178.697 90.7764 178.697 90.9033C178.697 90.9674 178.76 91.0632 178.889 91.1904C179.016 91.3189 179.08 91.4463 179.08 91.5732C182.397 96.6764 185.237 99.2264 187.599 99.2266C188.173 99.2266 188.715 99.0678 189.227 98.748C188.907 99.1951 188.748 99.7053 188.748 100.279C188.748 102.066 190.215 104.17 193.15 106.593C193.533 106.848 194.027 107.2 194.634 107.646C195.239 108.092 195.814 108.492 196.357 108.842C196.898 109.193 197.202 109.367 197.267 109.367L197.172 106.307L196.979 105.062C196.214 99.834 194.587 97.2179 192.099 97.2178C191.524 97.2178 190.95 97.3467 190.375 97.6006C190.629 97.027 190.758 96.4531 190.758 95.8789C190.758 93.3916 188.174 91.7647 183.005 90.999C182.876 90.999 182.766 90.984 182.67 90.9512C182.574 90.9199 182.27 90.9033 181.761 90.9033C181.57 90.8405 181.314 90.8076 180.995 90.8076L179.368 90.7119ZM74.4609 101.905C76.3108 101.905 79.2788 104.043 83.3633 108.315L84.1289 109.272H83.8418C80.2675 108.572 77.5081 107.662 75.5625 106.546C73.6153 105.431 72.6428 104.426 72.6426 103.532C72.6426 103.278 72.7058 103.054 72.834 102.862C73.2171 102.226 73.758 101.905 74.4609 101.905ZM105.856 90.999C100.049 91.7018 97.1465 93.3594 97.1465 95.9736C97.1465 96.3562 97.2097 96.7717 97.3379 97.2168L96.0938 97.1211C93.4137 97.1211 91.7218 100.024 91.0205 105.827C90.8917 106.848 90.8291 107.773 90.8291 108.602V109.176L91.3076 108.985C96.6675 105.606 99.3475 102.64 99.3477 100.088C99.3477 99.7052 99.2833 99.3549 99.1562 99.0352C99.539 99.1639 99.9223 99.2265 100.305 99.2266C101.963 99.2266 103.846 98.0156 105.952 95.5908C106.335 95.1456 106.781 94.555 107.292 93.8213C107.802 93.0887 108.265 92.4186 108.681 91.8115C109.095 91.2067 109.303 90.8721 109.303 90.8076L105.856 90.999ZM192.481 99.5146C193.056 99.5147 193.63 99.961 194.204 100.854C195.033 102.193 195.64 104.106 196.022 106.594V107.168L195.927 107.167C195.862 107.167 195.702 107.071 195.448 106.88C192.386 104.649 190.855 102.8 190.854 101.332C190.854 100.758 191.108 100.248 191.62 99.8008C191.874 99.6096 192.162 99.5146 192.481 99.5146ZM95.7109 99.418C95.9652 99.418 96.1895 99.4825 96.3809 99.6094C96.955 99.992 97.2421 100.503 97.2422 101.14C97.2422 102.799 95.9336 104.522 93.3174 106.307C92.7432 106.753 92.3601 106.976 92.1689 106.976H92.0732V106.88C92.3917 104.266 92.9179 102.368 93.6523 101.188C94.3852 100.008 95.0723 99.418 95.7109 99.418ZM205.116 92.4346C205.562 92.8813 205.929 93.5355 206.217 94.3965C206.504 95.2571 206.647 96.1038 206.647 96.9316C206.647 97.3143 206.6 97.6487 206.504 97.9355C206.408 98.2225 205.499 99.6103 203.776 102.098L201.287 105.924C201.222 105.605 201.191 105.414 201.191 105.35C201.191 105.287 201.175 105.206 201.144 105.11C201.111 105.015 201.096 104.935 201.096 104.871V104.489C200.967 103.915 200.904 103.341 200.904 102.767C200.84 102.704 200.809 102.352 200.809 101.714C200.744 101.523 200.713 101.331 200.713 101.141C200.713 100.949 200.68 100.791 200.617 100.662C200.553 99.7698 200.521 98.8127 200.521 97.792C200.521 96.8355 200.553 96.1346 200.617 95.6875C200.872 95.0507 201.335 94.4603 202.005 93.918C202.675 93.377 203.712 92.8813 205.116 92.4346ZM83.1719 92.3389C83.4903 92.3389 84.0329 92.5305 84.7988 92.9131C86.2015 93.5515 87.0322 94.3001 87.2881 95.1611C87.5421 96.0221 87.6709 96.8995 87.6709 97.792C87.6709 99.0044 87.5421 100.535 87.2881 102.385L86.9053 105.732C86.8406 105.732 86.7755 105.685 86.7129 105.589C86.6488 105.493 86.5527 105.366 86.4258 105.206C86.2973 105.048 86.1384 104.808 85.9473 104.488C85.7559 104.17 85.5002 103.787 85.1816 103.341C83.0763 100.153 81.9429 98.3666 81.7842 97.9834C81.6241 97.6004 81.5449 97.2173 81.5449 96.835C81.545 95.2415 81.9593 93.8067 82.7891 92.5303C82.9163 92.4034 83.0431 92.3389 83.1719 92.3389ZM106.335 93.2959C104.484 95.8471 102.825 97.1218 101.358 97.1221L100.592 97.0264C99.8891 96.7722 99.5392 96.3566 99.5391 95.7832C99.5391 93.934 101.995 92.6898 106.909 92.0518H107.196L106.335 93.2959ZM181.474 91.9561C181.857 92.0204 182.319 92.1162 182.861 92.2432C183.403 92.3719 183.898 92.4674 184.345 92.5303C187.025 93.36 188.365 94.4436 188.365 95.7832C188.365 96.294 188.157 96.6433 187.743 96.835C187.327 97.0263 186.896 97.1221 186.45 97.1221C185.429 97.1215 184.153 96.2605 182.622 94.5391C182.366 94.1562 182 93.6632 181.521 93.0566C181.043 92.4516 180.804 92.085 180.804 91.9561H181.474ZM97.5293 81.4326C98.5494 81.9438 100.688 83.2828 103.942 85.4502L105.761 86.79H105.665C105.345 86.9185 104.5 87.0615 103.129 87.2197C101.756 87.3798 100.559 87.4925 99.5391 87.5557H96.0938C94.5623 87.3014 93.3801 86.0245 92.5518 83.7285L92.4561 83.0596V82.915C92.4566 82.8834 92.5195 82.8353 92.6475 82.7715C93.7963 81.8789 95.4236 81.4326 97.5293 81.4326ZM190.949 81.4316C191.842 81.4316 192.72 81.5602 193.582 81.8145C194.443 82.0698 195.128 82.4528 195.64 82.9619C195.384 83.8557 195.018 84.6698 194.539 85.4023C194.06 86.1359 193.549 86.6622 193.008 86.9805C192.465 87.3003 191.524 87.459 190.184 87.459C189.162 87.4599 188.428 87.4279 187.982 87.3633C186.834 87.2363 185.94 87.1729 185.303 87.1729C185.047 87.1729 184.441 87.0771 183.483 86.8857L182.526 86.79C182.271 86.79 182.144 86.7587 182.144 86.6943L183.292 85.9287C183.993 85.4188 184.839 84.8444 185.829 84.2061C186.817 83.5693 187.71 82.9957 188.509 82.4844C189.306 81.9745 189.816 81.6712 190.04 81.5752C190.263 81.4796 190.567 81.4317 190.949 81.4316ZM131.03 77.3184C128.413 77.3184 127.106 78.3394 127.105 80.3799V80.667C126.34 79.5831 125.382 79.041 124.233 79.041C122.19 79.0412 119.893 80.7632 117.342 84.207C115.938 86.1202 115.236 87.1732 115.236 87.3643L118.108 87.2686C124.361 86.6946 127.488 85.0367 127.488 82.2939L127.68 82.4844C128.381 83.441 129.499 83.9199 131.03 83.9199C133.072 83.9199 135.816 83.0592 139.262 81.3369L139.74 81.0498C140.25 80.8585 140.537 80.6997 140.602 80.5713C140.601 80.4441 140.377 80.284 139.932 80.0928C139.803 80.0928 139.676 80.0298 139.549 79.9014C136.166 78.1795 133.327 77.3185 131.03 77.3184ZM157.065 77.2227C155.405 77.2227 153.332 77.766 150.844 78.8496L147.59 80.4756C147.59 80.5399 147.621 80.5876 147.686 80.6191C147.749 80.652 147.861 80.7153 148.021 80.8105C148.179 80.9062 148.452 81.0496 148.834 81.2412C152.407 83.0275 155.214 83.9199 157.257 83.9199C158.468 83.9199 159.426 83.6013 160.129 82.9629L160.512 82.6758V82.8672C160.957 84.8446 163.192 86.1848 167.212 86.8857C167.849 86.9498 168.6 87.0297 169.461 87.125C170.322 87.2204 170.993 87.2686 171.472 87.2686H172.668C172.668 87.0143 172.029 86.0244 170.753 84.3027C168.073 80.7314 165.743 78.9443 163.766 78.9443C162.68 78.9444 161.819 79.3607 161.182 80.1885L160.99 79.8057C160.416 78.0837 159.107 77.2227 157.065 77.2227ZM191.428 62.2031C191.428 63.1597 191.811 64.4675 192.576 66.125C193.725 68.4854 194.3 70.5589 194.3 72.3438C194.3 73.3645 194.108 74.29 193.726 75.1182C192.64 77.4142 189.624 79.9821 184.68 82.8193C179.734 85.6584 177.133 87.0771 176.879 87.0771L179.751 84.7812C185.365 79.8707 188.174 76.108 188.174 73.4922C188.174 72.7265 187.982 72.0567 187.6 71.4824C187.025 70.5258 186.068 69.9852 184.728 69.8564C182.94 69.8566 181.344 71.3564 179.941 74.3535C178.537 77.3519 177.516 81.4329 176.879 86.5986L176.783 87.2686L176.688 86.8857C176.623 86.3117 176.592 83.4744 176.592 78.3711C176.592 74.0348 176.879 70.9085 177.453 68.9951C178.219 66.5079 179.813 64.8186 182.239 63.9248C183.451 63.4796 185.174 63.1278 187.408 62.8721C189.194 62.681 190.566 62.2668 191.523 61.6289L191.428 62.2031ZM96.4766 61.7236C96.5398 61.788 96.5723 61.8369 96.5723 61.8682C96.5743 61.9015 96.797 62.012 97.2422 62.2021C98.0078 62.5851 99.0922 62.8405 100.496 62.9678C104.069 63.2876 106.638 64.0847 108.202 65.3594C109.765 66.6361 110.705 68.7409 111.025 71.6738C111.28 74.0986 111.408 77.1915 111.408 80.9541C111.408 83.5697 111.375 85.2278 111.312 85.9287C111.248 86.1198 111.217 86.5354 111.217 87.1719C111.217 86.9806 111.184 86.7738 111.121 86.5498C111.057 86.3275 110.993 86.0403 110.93 85.6895C110.865 85.3396 110.817 85.0043 110.786 84.6846C110.753 84.3664 110.738 84.1744 110.738 84.1104C110.738 84.0479 110.722 83.9674 110.69 83.8721C110.658 83.7762 110.643 83.6657 110.643 83.5371C108.92 74.5445 106.494 70.048 103.368 70.0479C102.857 70.0479 102.347 70.1437 101.837 70.335C100.433 71.0374 99.7306 72.0563 99.7305 73.3955C99.7305 75.8203 101.964 79.105 106.432 83.25C107.834 84.5895 109.239 85.7703 110.643 86.79L111.121 87.1729V87.2676C111.057 87.2675 110.897 87.1889 110.643 87.0293C110.387 86.8711 110.052 86.6939 109.638 86.5029C109.222 86.3116 108.824 86.0884 108.441 85.833C99.6986 81.2409 94.9127 77.6057 94.084 74.9268C93.8282 74.1615 93.7012 73.3644 93.7012 72.5352C93.7012 70.8132 94.3057 68.6124 95.5186 65.9336C96.1558 64.4673 96.4766 63.2873 96.4766 62.3936V61.7236ZM123.564 81.1455C124.522 81.1455 125 81.6566 125 82.6758C125 84.2711 123.405 85.3547 120.215 85.9287C119.832 85.9928 119.416 86.0407 118.971 86.0723C118.523 86.105 118.14 86.1201 117.821 86.1201H117.343L117.821 85.5459C118.076 85.1631 118.396 84.7662 118.778 84.3506C119.161 83.9367 119.48 83.57 119.735 83.25C120.947 82.1023 121.857 81.4657 122.464 81.3369C123.069 81.21 123.436 81.1455 123.564 81.1455ZM164.244 81.1445C165.456 81.1445 166.796 81.8481 168.265 83.25C169.476 84.526 170.274 85.4494 170.657 86.0234V86.1191C170.146 86.1194 169.796 86.0888 169.604 86.0244C165.265 85.6417 163.031 84.4934 162.904 82.5801C162.967 81.7525 163.191 81.3059 163.574 81.2412C163.956 81.1785 164.179 81.1447 164.244 81.1445ZM103.464 72.6309C105.632 72.6311 107.58 76.2994 109.303 83.6328V84.1113L108.729 83.5371L108.537 83.4414C104.197 79.2324 102.029 76.204 102.028 74.3535C102.028 73.6523 102.315 73.1092 102.89 72.7266L103.464 72.6309ZM184.249 72.4395C184.503 72.4395 184.76 72.5039 185.016 72.6309C185.59 73.0135 185.877 73.5561 185.877 74.2568C185.877 76.1702 183.706 79.1691 179.368 83.25C178.921 83.6967 178.682 83.9359 178.65 83.9678C178.617 84.0006 178.569 84.0156 178.506 84.0156L179.176 81.0498C180.77 75.3099 182.462 72.4396 184.249 72.4395ZM155.821 78.9443C156.587 78.9444 157.241 79.088 157.783 79.375C158.325 79.662 158.597 80.0614 158.597 80.5713C158.597 80.8266 158.485 81.1446 158.262 81.5273C158.038 81.9099 157.671 82.166 157.161 82.293C156.649 82.4217 156.203 82.4844 155.82 82.4844C154.799 82.4845 153.172 82.0063 150.939 81.0498C150.301 80.7958 149.983 80.6358 149.982 80.5713C149.982 80.444 150.7 80.1404 152.136 79.6621C153.571 79.1838 154.8 78.9443 155.821 78.9443ZM116.864 68.8037C117.247 68.8038 117.853 69.6334 118.683 71.291C119.065 71.9933 119.257 72.5989 119.257 73.1084C119.257 74.3208 117.693 76.9689 114.567 81.0498C114.247 81.3696 114.072 81.5759 114.041 81.6719C114.008 81.7677 113.863 81.975 113.609 82.293L113.514 82.3887C113.45 82.3885 113.418 82.3569 113.418 82.293V81.1455C113.354 80.7628 113.322 80.2213 113.322 79.5186C113.194 78.2438 113.131 77.4302 113.131 77.0791C113.131 76.7293 113.114 76.2661 113.083 75.6924C113.05 75.1184 113.035 74.6395 113.035 74.2568C113.035 73.1734 113.131 72.4393 113.322 72.0566C113.641 71.2913 114.407 70.4303 115.62 69.4736C116.194 69.0282 116.608 68.8037 116.864 68.8037ZM132.275 78.9453C133.295 78.9454 134.508 79.1698 135.912 79.6152C136.74 79.9352 137.331 80.1579 137.683 80.2852C138.032 80.4133 138.208 80.5084 138.209 80.5713L137.826 80.7627C137.506 80.954 137.123 81.1456 136.678 81.3369C136.231 81.5282 135.769 81.7051 135.29 81.8633C134.812 82.0232 134.381 82.1495 133.998 82.2451C133.615 82.3411 133.136 82.3887 132.562 82.3887H131.796C130.902 82.3886 130.265 82.1022 129.882 81.5283C129.69 81.21 129.595 80.8911 129.595 80.5713L129.69 80.0928C130.136 79.3276 130.998 78.9453 132.275 78.9453ZM171.423 68.8994C172.825 69.6019 173.912 70.686 174.678 72.1523L175.061 72.7266L174.965 74.8311C174.901 75.1509 174.869 75.7877 174.869 76.7441C174.805 76.9998 174.773 77.351 174.773 77.7969L174.678 79.9971C174.678 80.0611 174.661 80.1738 174.63 80.332C174.597 80.4921 174.582 80.7 174.582 80.9541C174.582 81.2097 174.565 81.449 174.534 81.6719C174.501 81.8955 174.486 82.1349 174.486 82.3887L173.242 80.7627C171.582 78.5953 170.418 76.9361 169.748 75.7881C169.078 74.6402 168.743 73.6516 168.743 72.8223C168.743 71.9941 169.078 71.1167 169.748 70.1914C170.418 69.268 170.88 68.8042 171.136 68.8037L171.423 68.8994ZM144.24 49.2871C144.75 50.1808 145.738 51.1378 147.207 52.1572C150.972 54.7733 152.854 57.5147 152.854 60.3848C152.854 62.2985 151.61 65.5508 149.121 70.1426C147.525 73.0765 145.867 75.8513 144.145 78.4658L143.856 78.084C143.728 77.9567 143.553 77.686 143.33 77.2705C143.106 76.8566 142.835 76.3942 142.517 75.8828C137.731 68.2296 135.338 63.0008 135.338 60.1934C135.338 57.5144 137.284 54.8362 141.177 52.1572C143.091 50.6906 144.049 49.6384 144.049 49L144.24 49.2871ZM144.048 59.0449C141.622 59.1738 140.411 60.8634 140.411 64.1162C140.411 66.6679 141.144 70.1433 142.612 74.5439L144.144 78.2744L144.239 77.9883C144.367 77.7972 144.462 77.5741 144.526 77.3184C146.695 71.6425 147.781 67.2736 147.781 64.2119C147.781 60.9589 146.536 59.2366 144.048 59.0449ZM130.552 65.1689C131.445 65.1689 132.434 65.3602 133.52 65.7432C134.285 66.0629 134.827 66.3644 135.146 66.6514C135.465 66.9384 136.295 68.4209 137.635 71.0996C138.975 73.7786 139.646 75.2139 139.646 75.4053L137.73 74.6396C134.668 73.3003 132.593 72.264 131.509 71.5303C130.423 70.7978 129.818 69.9846 129.69 69.0908C129.626 68.7726 129.595 68.3585 129.595 67.8477C129.595 66.4458 129.691 65.6474 129.882 65.4561C130.073 65.2647 130.296 65.169 130.552 65.1689ZM157.257 65.2637C157.64 65.2637 157.91 65.2812 158.07 65.3125C158.229 65.3453 158.341 65.4889 158.405 65.7432C158.468 65.9988 158.532 66.3497 158.597 66.7949C158.66 67.242 158.692 67.6251 158.692 67.9434C158.692 68.837 158.501 69.5696 158.118 70.1436C157.479 71.1001 155.773 72.2008 152.998 73.4443C150.223 74.6875 148.739 75.3091 148.547 75.3096L152.376 67.6553C153.333 66.125 154.96 65.3278 157.257 65.2637ZM144.239 61.7246C145.515 61.8531 146.153 63.0007 146.153 65.168C146.153 67.0813 145.675 69.7289 144.718 73.1084L144.144 74.7354C144.015 74.6081 143.952 74.4168 143.952 74.1611C142.739 70.2073 142.134 67.21 142.134 65.168C142.134 62.9366 142.835 61.7887 144.239 61.7246Z" fill="#9CB770"/>
</svg>
