<svg width="100" height="100" viewBox="0 0 100 100" fill="none" xmlns="http://www.w3.org/2000/svg">
<path d="M14.4035 71.877C14.0844 71.8611 13.8312 71.8141 13.5467 71.6614C13.1355 71.441 12.7687 71.0816 12.6374 70.6292C12.5233 70.2396 12.5722 69.8258 12.7814 69.4772C13.0096 69.0947 13.3347 68.9402 13.7516 68.8307C14.0756 68.8247 14.3883 68.8479 14.6816 69.0002C15.0764 69.2052 15.376 69.5959 15.5069 70.0153C15.6297 70.4084 15.6272 70.8763 15.4121 71.2385C15.1875 71.6175 14.8174 71.7875 14.4035 71.877Z" fill="white"/>
<path d="M29.5058 86.6733C29.1634 86.7164 28.8814 86.7164 28.5592 86.5798C28.1131 86.3902 27.8495 86.1638 27.6751 85.7075L27.6465 85.6296L27.6178 85.5555C27.4749 85.1628 27.5407 84.7289 27.7257 84.3618C27.9379 83.941 28.2627 83.7785 28.6922 83.6391C28.9688 83.6244 29.2083 83.624 29.4719 83.7192C29.924 83.8824 30.3191 84.2074 30.5063 84.6556C30.6457 84.9891 30.6796 85.4506 30.5377 85.7882C30.3425 86.2537 29.9523 86.4918 29.5058 86.6733Z" fill="white"/>
<path d="M70.2851 16.2798C70.0488 16.2647 69.8192 16.2527 69.5974 16.1605C69.1481 15.9734 68.7374 15.6617 68.5613 15.1967C68.4119 14.8025 68.3752 14.3301 68.5761 13.9471C68.7986 13.5232 69.1767 13.3466 69.6115 13.2189C69.994 13.2339 70.2593 13.2157 70.6017 13.4221C71.0291 13.6797 71.4578 14.1251 71.5651 14.6204C71.6414 14.9734 71.5746 15.3592 71.3704 15.6585C71.1119 16.0376 70.7202 16.1987 70.2851 16.2798Z" fill="white"/>
<path d="M19.6379 21.8633C19.2732 21.8913 18.9124 21.8661 18.5685 21.7355C18.0247 21.5291 17.5974 21.1371 17.3806 20.5993C17.1694 20.0756 17.1319 19.4695 17.3763 18.9501C17.6738 18.3183 18.214 17.9648 18.8529 17.7455C19.3687 17.6419 19.9375 17.7128 20.3857 17.9932C20.8701 18.2958 21.1775 18.7865 21.3017 19.3351C21.4305 19.9033 21.3162 20.5263 20.9935 21.0107C20.6599 21.5123 20.2138 21.7414 19.6379 21.8633Z" fill="white"/>
<path d="M80.2061 82.1922C79.7834 82.2182 79.3609 82.1908 78.9683 82.0195C78.4429 81.7903 78.0336 81.2449 77.8443 80.7215C77.6533 80.1943 77.7407 79.6057 77.995 79.114C78.318 78.4893 78.8264 78.2625 79.4692 78.066C79.9085 78.0375 80.2941 78.0607 80.6935 78.2647C81.2404 78.5433 81.6713 79.0185 81.8627 79.6005C82.0198 80.0785 81.9688 80.6865 81.7188 81.1249C81.3777 81.7236 80.8598 82.0321 80.2061 82.1922Z" fill="white"/>
<path d="M19.4933 82.303C18.979 82.3451 18.568 82.2995 18.1052 82.0528C17.5883 81.7773 17.1914 81.3013 17.0368 80.7383C16.8967 80.2283 16.9982 79.6352 17.2597 79.1799C17.5855 78.6135 18.0578 78.3228 18.6765 78.1613C19.2931 78.069 19.8485 78.1624 20.3866 78.4931C20.8217 78.7608 21.07 79.1968 21.1787 79.685C21.3099 80.2743 21.1879 80.8637 20.8553 81.3649C20.5253 81.8625 20.0838 82.1816 19.4933 82.303Z" fill="white"/>
<path d="M79.9721 21.958C79.4387 21.9503 78.9126 21.8602 78.4648 21.5495C78.0361 21.2526 77.8135 20.7861 77.7297 20.2863C77.6327 19.7096 77.6957 19.0834 78.0554 18.6033C78.4754 18.042 79.0889 17.7718 79.767 17.6644C80.2859 17.6612 80.7483 17.7725 81.1743 18.0761C81.6716 18.4306 81.9762 19.009 82.0576 19.6061C82.1343 20.1652 81.9122 20.7665 81.5602 21.1964C81.1459 21.7029 80.6004 21.8875 79.9721 21.958Z" fill="white"/>
<path d="M4.56459 52.0708C2.65371 52.1544 1.39035 51.1522 0.000206583 50.0126C0.98825 49.0856 1.96724 48.4279 3.27044 48.0173C3.84642 47.9053 4.38527 47.7958 4.97575 47.8934C6.16212 48.0892 7.10307 49.027 7.7832 49.9452C7.64645 50.1902 7.46351 50.4117 7.28329 50.6261C6.57147 51.4713 5.66856 51.9719 4.56459 52.0708Z" fill="white"/>
<path d="M49.6694 99.9757L49.575 100L49.4822 99.9254C49.184 99.6415 48.9155 99.2039 48.6979 98.8499C48.0184 97.7447 47.5299 96.5991 47.5521 95.2836C47.5794 93.6788 48.4853 92.7228 49.5724 91.6706C50.5931 92.4559 51.4467 93.6249 51.6282 94.9152C51.8984 96.8399 50.7766 98.5165 49.6694 99.9757Z" fill="white"/>
<path d="M49.6518 8.47314C49.5212 8.47072 49.4342 8.40369 49.3327 8.32678C48.3266 7.56374 47.6895 6.48551 47.5738 5.23107C47.3881 3.21432 48.3298 1.52112 49.5785 0.000267681C50.6866 1.28984 51.7294 3.11601 51.6223 4.86357C51.5611 5.85725 51.22 6.86738 50.5585 7.63077C50.2925 7.93753 49.9575 8.20538 49.6518 8.47314Z" fill="white"/>
<path d="M95.6465 52.072C95.5552 52.1022 95.3674 52.0861 95.2676 52.0896C94.7943 52.1065 94.3514 52.0956 93.8937 51.9643C92.8483 51.6649 91.9437 50.8948 91.4396 49.9548C91.6992 49.539 91.9628 49.1631 92.3402 48.8416C93.3715 47.9627 94.3631 47.7794 95.6971 47.8904C97.2852 48.0795 98.9305 48.7994 100.001 49.9953C98.8456 51.1693 97.2692 51.8675 95.6465 52.072Z" fill="white"/>
<path d="M87.833 28.584C87.7021 28.5356 87.5897 28.4068 87.4839 28.3166C87.2285 28.0982 86.9713 27.8796 86.6982 27.6834C86.1841 27.3138 85.6178 27.0386 85.0405 26.7814C83.4885 26.0899 81.6199 25.5553 79.9081 25.8207C79.6873 25.6417 79.5009 25.384 79.3141 25.1703L78.3593 24.0777C78.6048 23.9348 79.6576 24.1837 79.9679 24.2381C81.7406 24.5487 83.5225 25.0598 85.0486 26.0338C85.5863 26.3767 86.061 26.7919 86.5319 27.2176C86.9837 27.6262 87.4832 28.0857 87.833 28.584Z" fill="#1E842D"/>
<path d="M55.6089 95.792C55.0554 95.3456 54.5699 94.9778 53.9399 94.6328C52.8163 94.0174 51.1996 93.6303 50.7231 92.3213C50.5159 91.7526 50.5411 91.1454 50.3862 90.5723C50.2847 90.1967 50.1095 89.8248 49.9712 89.46L49.5698 88.3379L49.1304 89.5742C48.9971 89.9085 48.8174 90.2637 48.73 90.6123C48.5854 91.1892 48.6312 91.8065 48.4165 92.3672C48.2552 92.7884 47.949 93.1737 47.5845 93.4424C47.2594 93.6814 46.8486 93.8403 46.4849 94.0146C45.4153 94.5258 44.418 94.963 43.5054 95.7383C43.534 94.5334 43.7329 93.1854 44.2964 92.1055C44.7654 91.2045 45.5973 90.726 46.5415 90.4277C46.6631 90.6063 46.7421 90.7458 46.9458 90.832C47.0902 90.841 47.2949 90.8713 47.4282 90.8066C48.1495 90.4544 48.4798 89.1722 48.7271 88.4902C48.6105 88.4875 48.0874 88.4364 48.0161 88.4756C47.9139 88.5349 47.7383 88.8211 47.6421 88.9199C47.3125 89.2603 46.9446 89.5741 46.5698 89.8633C45.9722 90.324 45.3654 90.7704 44.6978 91.1279C43.1968 91.9312 41.5148 92.507 40.1851 93.5879C39.8253 93.8799 39.5504 94.2569 39.2632 94.6172C39.2936 93.8446 39.42 93.1393 39.6997 92.417C40.4029 90.5984 41.955 88.8378 43.7729 88.0605L43.8394 88.0332C43.3346 87.8823 42.7509 87.8645 42.228 87.7773C41.3778 87.6354 40.5338 87.4392 39.7026 87.2119C37.3018 86.556 34.9643 85.7869 32.7202 84.708C29.4499 83.1363 26.5645 81.0209 23.7671 78.7441L23.8735 80.3398C24.1084 82.7167 25.0321 84.897 26.5952 86.7061C26.9535 87.1202 27.2821 87.496 27.7104 87.8428L27.7476 87.8145L27.0806 87.0537C25.8081 85.4257 25.3562 83.1256 25.6108 81.1123C25.735 81.2233 26.1581 81.6052 26.2026 81.7393C26.2872 81.9933 26.2161 82.4782 26.2368 82.7598C26.2846 83.4116 26.4899 84.1264 26.7485 84.7256C27.0096 85.3303 27.3852 85.9404 27.896 86.3662C28.208 86.6268 28.5739 86.6195 28.9146 86.8037C29.3481 87.0373 29.7225 87.3958 30.1245 87.6787C30.7956 88.1504 31.5587 88.5055 32.3218 88.8047C34.5316 89.6699 37.0134 89.7352 39.2905 89.0713C39.8976 88.8943 40.4813 88.6307 41.0601 88.3809C39.3008 90.3702 37.053 91.6585 34.3765 91.9316C31.4335 92.2317 28.9031 91.4966 26.6079 89.624C24.5158 87.9169 22.9029 85.4923 22.1851 82.8955C21.7305 81.2504 21.5764 79.5802 21.4116 77.8906C19.5545 77.9014 17.7251 77.6167 15.9585 77.0537C12.8882 76.0749 9.96862 73.8063 8.48877 70.9336C7.26345 68.5546 7.07412 65.719 7.91455 63.1807C8.47873 61.4778 9.51637 59.5961 11.1753 58.7607C10.3496 60.2389 9.90651 61.9541 9.89014 63.6396C9.87202 65.5268 10.4107 67.5846 11.52 69.1348C11.7084 69.3987 11.9251 69.6021 12.1587 69.8252C12.2301 69.8935 12.3828 70.0073 12.4312 70.0859C12.6114 70.3815 12.476 70.8139 12.7251 71.1494C12.9642 71.4716 13.3014 71.6875 13.6304 71.9072C14.6114 72.5633 15.6071 72.9672 16.7749 73.1768L17.5767 73.29C17.6538 73.2995 17.8232 73.2963 17.8872 73.3271C18.0227 73.3924 18.3314 73.8 18.4624 73.9316C18.0432 73.9404 17.6106 73.9639 17.1929 73.9277C15.6527 73.7933 14.1296 73.2437 12.8071 72.4648C12.3209 72.1782 11.8655 71.7447 11.3657 71.5127L11.8462 72.0645C13.3884 73.7593 15.4017 74.8857 17.6509 75.3574C18.6499 75.567 19.656 75.6335 20.6724 75.6875C17.2713 71.7652 14.4547 67.3372 12.8159 62.3984C12.0969 60.2317 11.6179 58.003 11.2222 55.7588C10.9985 56.2443 10.7757 56.6914 10.4487 57.1182C9.27323 58.6546 7.59882 59.513 5.68896 59.7832C5.18464 59.8541 4.6794 59.8308 4.17236 59.8213C4.59163 59.6153 5.02304 59.438 5.38525 59.1377C6.47547 58.2326 7.38559 56.703 7.98779 55.4463C8.26398 54.8682 8.48247 54.2217 8.8501 53.6963C9.28834 53.0724 10.0368 52.6774 10.3765 52.001C10.5938 51.5668 10.5937 50.9561 10.6362 50.4805C10.1264 50.8437 9.59496 51.2048 9.20557 51.6992C8.47845 52.6219 8.46123 54.0471 7.57861 54.833C6.75902 55.5631 5.26674 55.9723 4.18994 56.0986C3.95732 56.126 3.70756 56.1798 3.47314 56.1699C4.38484 55.1508 4.58628 53.7095 5.32959 52.5791C5.77335 51.9056 6.64386 51.355 7.41455 51.1377C7.87991 51.0065 8.37517 50.9435 8.83057 50.7832C9.36755 50.5944 9.83344 50.3271 10.2935 49.999C10.2455 49.9008 10.0498 49.8065 9.95557 49.7451C9.05096 49.1562 8.12925 49.1152 7.15674 48.7412C6.79273 48.6015 6.43106 48.3786 6.11865 48.1484C4.63797 47.059 4.57151 45.1181 3.49658 43.7539C4.79971 43.8146 6.08392 44.1316 7.18604 44.8398C7.47848 45.0275 7.79026 45.2372 7.97412 45.5371C8.22498 45.9475 8.35587 46.4206 8.50439 46.873C8.89926 48.0799 9.55651 48.7099 10.5825 49.415C10.5762 48.9921 10.6081 48.4462 10.4858 48.0391C10.4061 47.7706 10.1528 47.536 9.95361 47.3486C9.557 46.9773 9.09133 46.6167 8.79248 46.1602C8.48647 45.6921 8.27312 45.1299 8.03955 44.6211C7.4292 43.2878 6.64643 41.5836 5.48193 40.6523C5.2447 40.4625 4.93132 40.3308 4.65967 40.1953C5.63409 40.0729 6.86425 40.3689 7.76709 40.7227C8.8691 41.1537 9.90807 41.8767 10.5728 42.8604C10.8408 43.2566 11.0261 43.688 11.2153 44.125C11.3476 43.7396 11.3762 43.2359 11.4604 42.8301L12.2632 39.3779C13.0873 36.4993 14.2725 33.6806 15.7798 31.0859C16.7311 29.4489 17.8208 27.9159 18.9302 26.3828C16.8136 26.4136 14.9522 27.0086 13.2993 28.3623L13.8091 28.1855C14.1854 28.0645 14.6074 28.0106 14.9683 28.21C15.3003 28.3934 15.5659 28.7633 15.6519 29.1289C15.7492 29.5417 15.6283 29.9926 15.4019 30.3408C15.149 30.7297 14.6837 31.0409 14.2231 31.123C13.7647 31.2053 13.2679 31.0939 12.8921 30.8223C12.4786 30.5241 12.3891 30.1138 12.3022 29.6455C11.2147 31.1833 10.3179 32.8048 10.0181 34.6855C9.64314 37.0347 10.1022 39.5697 11.5132 41.5156C10.7589 41.1088 10.1611 40.6817 9.61865 40.0098C7.86716 37.8417 6.91507 34.9896 7.2583 32.209C7.55988 29.7658 8.79308 27.6274 10.5962 25.9521C13.3905 23.355 17.0977 22.2596 20.8687 22.3789C21.1329 22.0329 21.3769 21.7877 21.7593 21.5732L21.8403 21.5283L21.9634 19.582C22.3437 16.0739 23.87 12.5311 26.6929 10.2842C28.924 8.50819 31.6905 7.72712 34.5308 8.05664C37.1493 8.36052 39.3914 9.70874 41.0103 11.748C39.3945 11.0313 37.8566 10.5291 36.0688 10.5332C33.6942 10.5389 30.8909 11.5806 29.2017 13.2578C29.3455 13.268 29.49 13.2798 29.6304 13.3145C30.0089 13.4085 30.3415 13.6159 30.5435 13.9541C30.7535 14.3058 30.7702 14.7467 30.6655 15.1338C30.541 15.5939 30.1913 15.8935 29.7905 16.123L29.7251 16.1592C29.2957 16.29 28.8285 16.3588 28.3999 16.1816C28.0229 16.0257 27.7551 15.7083 27.6157 15.332C27.4297 14.8295 27.6848 14.3122 27.8843 13.8545L27.8247 13.9023C27.5293 14.2014 27.2891 14.6234 27.0786 14.9834C26.2212 16.4502 25.7328 17.938 25.7544 19.6406C29.9599 16.4701 34.804 13.9761 39.9487 12.7178C41.1762 12.4177 42.4136 12.2323 43.6606 12.0361L41.9976 10.8711C40.3785 9.49876 39.4356 7.80118 39.2583 5.69824C39.4349 5.74137 39.8687 6.30446 40.0483 6.46484C40.2937 6.68331 40.5547 6.88141 40.8315 7.05859C42.4082 8.06771 44.3144 8.56444 45.8423 9.66016C46.5484 10.1667 47.0501 10.7961 47.5542 11.4883C47.9963 11.5503 48.454 11.5366 48.8999 11.543L47.6743 9.50977C47.5424 9.33784 47.4064 9.21194 47.1851 9.17969C46.8705 9.24285 46.737 9.36093 46.5503 9.61719L46.5142 9.66895C46.1151 9.65736 45.4687 9.30844 45.1665 9.06836C43.8551 8.02768 43.6101 5.84346 43.4282 4.30859C43.6267 4.35593 44.0383 4.79146 44.2505 4.92285C44.8707 5.30715 45.5777 5.58398 46.23 5.91113C47.3704 6.48207 48.3396 7.04061 48.5308 8.41992C48.6033 8.94296 48.6227 9.43979 48.7964 9.94629C48.9814 10.4863 49.2129 10.966 49.5259 11.4453C49.9044 10.9567 50.2297 10.3627 50.3804 9.76172C50.5297 9.16722 50.5132 8.53377 50.6968 7.94629C50.8245 7.5375 51.1719 7.07557 51.48 6.78711C52.3976 5.92748 53.7411 5.58987 54.7886 4.91211C55.059 4.73701 55.3044 4.50215 55.5483 4.29199L55.4839 5.55371C55.4244 6.0524 55.3326 6.53234 55.1763 7.01172C54.9559 7.68876 54.6235 8.46794 54.0649 8.93652C53.6677 9.26947 53.1608 9.50182 52.6997 9.7334C52.6129 9.61929 52.5268 9.50879 52.4126 9.41992C52.2502 9.29403 51.9707 9.18311 51.7632 9.21777C51.6179 9.24241 51.5258 9.31123 51.4321 9.4209C51.1901 9.70385 51.027 10.1405 50.855 10.4736C50.6573 10.8569 50.4262 11.2082 50.1655 11.5518C50.5185 11.5237 50.8762 11.5342 51.23 11.5342C51.2833 11.5343 51.502 11.5516 51.5376 11.5352C51.6063 11.5033 51.8713 11.0808 51.9419 10.9951C52.3406 10.5129 52.7355 10.1053 53.2466 9.73926C54.6719 8.71865 56.2927 8.12462 57.7817 7.23242C58.5522 6.77085 59.1742 6.19885 59.8315 5.59863C59.8881 5.74391 59.8307 6.03646 59.8042 6.19336C59.524 7.856 58.4995 9.54285 57.2769 10.6885C56.7311 11.1998 56.0894 11.6317 55.4761 12.0605C60.8096 12.7745 65.7907 14.636 70.3472 17.4639L73.6968 19.7354L72.9771 16.8945C72.5582 15.7353 71.9187 14.521 71.0337 13.6387C70.2257 12.834 69.0719 12.2068 68.0425 11.7256C65.7102 10.6359 63.0741 10.2084 60.5493 10.8184C59.7569 11.01 59.0125 11.3143 58.2466 11.5859C59.4494 10.1592 61.028 9.0496 62.812 8.45996C65.289 7.64113 68.0323 7.76123 70.3745 8.93066C74.2899 10.8864 76.5669 14.6805 77.1665 18.9043L77.355 20.6465C77.3853 21.0834 77.2982 21.6486 77.436 22.0566C77.55 22.17 77.6014 22.2482 77.7681 22.2822C78.2902 22.3888 78.9175 22.3232 79.4565 22.3555C80.7911 22.4355 82.0865 22.6675 83.3638 23.0605C86.5599 24.0433 89.2532 25.9651 90.8286 28.9512C92.0759 31.3157 92.3104 33.7935 91.4858 36.335C90.9753 37.9095 90.0692 39.3522 88.8501 40.4834C88.4519 40.8533 88.0394 41.2062 87.5503 41.4512L87.479 41.4863C87.4115 41.6507 87.8069 43.1736 87.8628 43.4883C88.2143 42.8206 88.5775 42.2355 89.1489 41.7236C90.132 40.8424 91.2778 40.2533 92.6079 40.1182C93.1739 40.061 93.7489 40.0936 94.3159 40.123C93.9975 40.2937 93.6858 40.4739 93.4243 40.7256C92.2916 41.8143 91.9512 43.5485 91.2788 44.9033C90.671 46.1268 89.5155 47.3568 88.2964 47.9883L88.3745 48.998L88.4409 48.9932C88.6128 48.95 88.7979 48.8417 88.9673 48.7803C89.301 48.6592 89.9403 48.5182 90.1929 48.2656C90.5484 47.9094 90.6421 46.9951 90.8003 46.5117C90.9623 46.0179 91.2 45.5373 91.5435 45.1436C92.4144 44.1437 94.0857 43.8479 95.3511 43.751C94.8724 44.3677 94.7206 44.9458 94.5229 45.6885C94.379 46.2283 94.2171 46.847 93.9204 47.3271C93.6756 47.7233 93.2909 47.9496 92.895 48.1699C92.4427 48.4223 91.9953 48.6685 91.5005 48.8281C90.881 49.0279 90.2315 49.1195 89.6089 49.3086C89.2796 49.4086 88.7742 49.539 88.5054 49.749C88.3727 49.8533 88.3968 49.9637 88.3813 50.1182C88.7491 50.5909 90.8915 50.9231 91.5474 51.1396C92.1627 51.3432 92.8677 51.6461 93.3862 52.0381C94.4096 52.8119 94.4069 54.4056 94.9165 55.4824C95.0396 55.7424 95.2068 55.9517 95.3921 56.1689C94.3512 56.1141 93.154 55.8764 92.2261 55.3916C90.9336 54.717 90.8323 53.3553 90.439 52.127C90.4007 52.0076 90.2898 51.6801 90.2056 51.5947C90.0679 51.4555 89.6399 51.3664 89.4507 51.3008C89.0813 51.1734 88.7345 51.0235 88.3853 50.8496L88.3159 51.9297C89.6215 52.5133 90.752 53.9606 91.3394 55.2217C91.5689 55.7148 91.7215 56.2455 91.9204 56.752C92.2526 57.5989 92.7857 58.6158 93.5034 59.2061C93.8306 59.4753 94.1905 59.6308 94.5757 59.7988C93.634 59.8722 92.4829 59.7772 91.5854 59.4922C89.8853 58.9527 88.728 57.9693 87.9165 56.4004L87.4888 58.4785C88.3154 58.912 88.9926 59.554 89.5728 60.2744C91.1621 62.2491 92.0324 65.1714 91.731 67.6807C91.4409 70.0958 90.2057 72.2288 88.4507 73.9111C85.5573 76.6842 81.5666 77.7416 77.6265 77.6748C77.2801 80.4819 77.0271 83.4949 75.7212 86.0537C75.1311 87.21 74.2598 88.2965 73.3306 89.2021C71.4423 91.0441 68.8071 92.0907 66.1646 92.0674C63.8175 92.0458 61.4366 91.2038 59.5864 89.7744C59.0824 89.3845 58.6419 88.9246 58.1958 88.4727C59.6228 89.0486 60.9126 89.4606 62.4712 89.4795C65.3506 89.5145 68.0716 88.6707 70.1626 86.6484C69.8564 86.6314 69.5509 86.6116 69.2651 86.4912C68.8783 86.3286 68.5577 86.021 68.4155 85.626C68.274 85.2322 68.3489 84.7606 68.5425 84.3955C68.7416 84.0209 69.1241 83.6939 69.5366 83.5752C69.9478 83.4573 70.3973 83.4811 70.7729 83.6982C71.1559 83.9201 71.4127 84.3157 71.5103 84.7402C71.7263 85.679 71.1058 86.435 70.6274 87.1699L70.9849 86.791C72.3842 85.2005 73.0851 82.9269 72.9409 80.833C71.376 81.9055 69.7879 82.9682 68.1235 83.8838C65.3154 85.4288 62.2759 86.6179 59.1528 87.3564C57.9028 87.652 56.6307 87.7516 55.3813 88.0166C55.5083 88.1395 55.7323 88.2289 55.8872 88.3223C56.2031 88.5119 56.5119 88.7244 56.7964 88.958C58.5025 90.3579 59.6898 92.3951 59.9077 94.583C59.3767 94.0583 58.8641 93.551 58.2368 93.1377C57.1063 92.3902 55.86 91.9072 54.6626 91.2891C53.3615 90.617 52.0885 89.7305 51.1851 88.5732L51.1411 88.5166L50.356 88.5234C50.6831 89.2135 50.8731 90.013 51.3804 90.6006C51.4975 90.7371 51.6534 90.8759 51.8384 90.8867C52.2109 90.9074 52.4458 90.6315 52.7026 90.4023C53.2013 90.6449 53.6967 90.898 54.1099 91.2734C55.3019 92.3552 55.5459 94.2843 55.6089 95.792ZM25.3257 19.9463L25.2925 19.8984C24.8898 19.3227 25.0998 18.3897 25.23 17.7383C25.5345 16.2149 26.1211 14.629 27.0229 13.3525C27.4584 12.7362 27.9648 12.2111 28.5015 11.6836L28.5034 11.6094C27.2137 12.6286 25.9308 13.9124 25.0991 15.3369C24.2783 16.7433 23.8472 18.2933 23.6675 19.8994L23.606 21.2559L23.7124 21.2656L25.3257 19.9463ZM75.7026 21.4219C75.4989 19.8654 75.2795 18.3312 74.6743 16.8691C74.3789 16.1555 73.9678 15.4707 73.5376 14.8291C73.0409 14.0885 72.434 13.3576 71.7251 12.8086C71.4434 12.5908 71.1572 12.4221 70.8394 12.2617C72.8888 14.1735 73.9065 16.6589 73.9897 19.4395L73.9976 20.0459L75.7026 21.4219ZM50.7505 84.1807C55.7521 84.0745 60.8889 82.873 65.355 80.5996C68.9006 78.7948 72.075 76.3372 74.8247 73.4746C78.7824 69.3546 81.6611 64.241 83.103 58.709C83.9082 55.6196 84.2485 52.2924 84.1821 49.1035C84.1361 46.8866 83.8167 44.6624 83.3335 42.502C82.0643 36.8244 79.5417 31.7279 75.6772 27.377C75.1299 26.7604 74.5872 26.1363 73.9907 25.5664C70.9174 22.6298 67.2243 20.1477 63.313 18.4717C60.2198 17.1466 56.7063 16.2653 53.3599 15.9248C51.9911 15.7855 50.5781 15.7713 49.2026 15.793C43.3623 15.9406 37.6363 17.5489 32.5991 20.5205C31.5366 21.147 30.5406 21.8568 29.5483 22.5869C28.0419 23.6957 26.6477 24.8148 25.3521 26.1738C22.0615 29.6263 19.3893 33.8274 17.769 38.3145C16.6717 41.3523 16.0441 44.5305 15.8364 47.751C15.7563 48.9925 15.7891 50.2572 15.8218 51.5C15.8766 53.6346 16.2053 55.7603 16.686 57.8389C17.8321 62.8002 20.0372 67.3984 23.2554 71.3555C24.2904 72.6282 25.4899 73.8456 26.6812 74.9707C31.8714 79.8722 38.6031 83.0364 45.6948 83.9424C47.3669 84.1562 49.0663 84.2109 50.7505 84.1807ZM11.5005 28.4795C11.8545 28.1664 12.208 27.8226 12.5991 27.5576C14.29 26.4128 16.7428 25.5873 18.8013 25.71C18.9729 25.7202 19.0717 25.7515 19.228 25.8076L19.355 25.833C19.8143 25.2671 20.2588 24.6822 20.7896 24.1797C19.4643 24.2331 18.1347 24.3417 16.854 24.708C15.0074 25.2366 13.3854 26.3677 12.0913 27.7578L11.4956 28.4297L11.5005 28.4795ZM87.4497 41.4209C88.5446 40.0011 89.0711 38.5907 89.2876 36.8242C89.6108 34.1831 88.4119 31.5661 86.7759 29.5498L86.5747 29.3213C86.7257 29.7768 86.8211 30.0991 86.6997 30.582C86.6359 30.8359 86.2309 31.1043 85.9995 31.2041C85.5853 31.382 85.1521 31.3739 84.7368 31.2051C84.2787 31.019 83.9025 30.6325 83.7358 30.168C83.6028 29.7966 83.6894 29.4025 83.8599 29.0586C84.0456 28.6852 84.371 28.3726 84.7817 28.2617C85.2786 28.1274 85.5727 28.2607 86.0269 28.4648C85.6618 28.1189 85.2608 27.8599 84.8335 27.5967C83.3198 26.7309 81.8036 26.2027 80.0522 26.0391C82.848 29.5521 84.9922 33.5972 86.4292 37.834L87.4497 41.4209ZM80.5728 73.2686C80.8819 73.2595 81.2558 73.2894 81.5562 73.2354C83.2856 73.0998 85.1291 72.6486 86.3003 71.2734C86.4591 71.0871 86.5826 70.8333 86.6509 70.5996C86.6805 70.4991 86.6957 70.3435 86.7407 70.2578C86.8296 70.0883 87.1624 69.8609 87.3032 69.7012C87.4875 69.4924 87.652 69.25 87.8013 69.0156C88.9761 67.1711 89.4125 64.7476 89.1929 62.5957C89.0661 61.3533 88.6245 60.0718 87.8726 59.0674L87.478 58.5645C87.1841 59.7525 86.8897 60.957 86.5034 62.1191C85.6509 64.6851 84.5002 67.1067 83.1294 69.4355C82.3511 70.7577 81.5258 72.0623 80.5728 73.2686ZM78.394 75.7061C78.835 75.6945 79.352 75.7358 79.7817 75.6572C82.164 75.4088 84.4192 74.578 86.2935 73.0732C86.9581 72.5395 87.5254 71.932 88.0991 71.3066C87.7272 71.4677 87.3999 71.7571 87.063 71.9824C85.3175 73.2396 83.1803 73.9287 81.0464 74.167L80.0356 74.2441C79.9624 74.2476 79.7349 74.2379 79.6733 74.2695C79.5894 74.3126 79.4322 74.5257 79.3647 74.5996L78.394 75.7061ZM71.0522 87.7695C71.5705 87.3616 72.1002 86.9651 72.564 86.4961C74.132 84.9078 75.0393 82.8844 75.2798 80.6816L75.3071 78.8926L75.1948 78.8643C74.7368 79.2299 74.2752 79.5922 73.8755 80.0215C73.8263 82.4262 73.4127 84.5691 72.0132 86.5889C71.7192 87.012 71.3558 87.3599 71.0522 87.7695Z" fill="white"/>
<path d="M84.9654 71.8287C84.6891 71.8452 84.4623 71.8115 84.2186 71.6732C83.8651 71.4724 83.6144 71.127 83.5252 70.7329C83.4301 70.3152 83.4934 69.9382 83.7307 69.5812C84.0721 69.0675 84.5224 68.8631 85.1107 68.7497C85.3895 68.7719 85.6591 68.8014 85.9085 68.9375C86.2814 69.1419 86.4992 69.4641 86.6125 69.8638C86.7161 70.2303 86.6521 70.4496 86.4554 70.782C86.1034 71.378 85.617 71.6556 84.9654 71.8287Z" fill="white"/>
</svg>
