<svg width="58" height="100" viewBox="0 0 58 100" fill="none" xmlns="http://www.w3.org/2000/svg">
<path d="M55.7144 1.42847H1.42871V98.5713H55.7144V1.42847Z" stroke="#D4AF37" stroke-width="0.214286" stroke-linecap="square"/>
<path d="M53.5713 3.57153H3.57129V96.4287H53.5713V3.57153Z" stroke="#D4AF37" stroke-width="0.214286" stroke-linecap="square"/>
<path d="M4.28516 4.28564H8.57087" stroke="#D4AF37" stroke-width="0.214286" stroke-linecap="square"/>
<path d="M4.28516 4.28564V8.57136" stroke="#D4AF37" stroke-width="0.214286" stroke-linecap="square"/>
<path d="M5.35742 4.28564V7.49993H7.50028" stroke="#D4AF37" stroke-width="0.214286" stroke-linecap="square"/>
<path d="M6.42871 4.28564V6.4285H8.57157" stroke="#D4AF37" stroke-width="0.214286" stroke-linecap="square"/>
<path d="M4.28516 5.35718H7.49944" stroke="#D4AF37" stroke-width="0.214286" stroke-linecap="square"/>
<path d="M4.28516 6.42847H6.42801" stroke="#D4AF37" stroke-width="0.214286" stroke-linecap="square"/>
<path d="M52.8574 4.28564H48.5717" stroke="#D4AF37" stroke-width="0.214286" stroke-linecap="square"/>
<path d="M52.8574 4.28564V8.57136" stroke="#D4AF37" stroke-width="0.214286" stroke-linecap="square"/>
<path d="M51.7852 4.28564V7.49993H49.6423" stroke="#D4AF37" stroke-width="0.214286" stroke-linecap="square"/>
<path d="M50.7139 4.28564V6.4285H48.571" stroke="#D4AF37" stroke-width="0.214286" stroke-linecap="square"/>
<path d="M52.8574 5.35718H49.6431" stroke="#D4AF37" stroke-width="0.214286" stroke-linecap="square"/>
<path d="M52.8574 6.42847H50.7146" stroke="#D4AF37" stroke-width="0.214286" stroke-linecap="square"/>
<path d="M4.28516 95.7144H8.57087" stroke="#D4AF37" stroke-width="0.214286" stroke-linecap="square"/>
<path d="M4.28516 95.7144V91.4286" stroke="#D4AF37" stroke-width="0.214286" stroke-linecap="square"/>
<path d="M5.35742 95.7144V92.5001H7.50028" stroke="#D4AF37" stroke-width="0.214286" stroke-linecap="square"/>
<path d="M6.42871 95.7144V93.5715H8.57157" stroke="#D4AF37" stroke-width="0.214286" stroke-linecap="square"/>
<path d="M4.28516 94.6428H7.49944" stroke="#D4AF37" stroke-width="0.214286" stroke-linecap="square"/>
<path d="M4.28516 93.5715H6.42801" stroke="#D4AF37" stroke-width="0.214286" stroke-linecap="square"/>
<path d="M52.8574 95.7144H48.5717" stroke="#D4AF37" stroke-width="0.214286" stroke-linecap="square"/>
<path d="M52.8574 95.7144V91.4286" stroke="#D4AF37" stroke-width="0.214286" stroke-linecap="square"/>
<path d="M51.7852 95.7144V92.5001H49.6423" stroke="#D4AF37" stroke-width="0.214286" stroke-linecap="square"/>
<path d="M50.7139 95.7144V93.5715H48.571" stroke="#D4AF37" stroke-width="0.214286" stroke-linecap="square"/>
<path d="M52.8574 94.6428H49.6431" stroke="#D4AF37" stroke-width="0.214286" stroke-linecap="square"/>
<path d="M52.8574 93.5715H50.7146" stroke="#D4AF37" stroke-width="0.214286" stroke-linecap="square"/>
</svg>
