<svg width="200" height="44" viewBox="0 0 200 44" fill="none" xmlns="http://www.w3.org/2000/svg">
<path d="M46.1506 8.77402C46.7519 5.07558 49.3714 2.2427 53.2217 2.19414C55.5689 2.16454 57.9188 2.15408 60.2692 2.15351L73.4097 2.15193L113.85 2.15155L138.301 2.14733L145.067 2.14758C146.514 2.14817 148.493 2.03178 149.868 2.32184C153.174 3.01912 154.874 5.7244 155.51 8.80975C159.099 9.01594 160.731 10.9855 162.077 14.1409C163.056 16.4312 163.844 20.4643 166.793 20.6659C168.694 20.7957 170.539 19.0005 169.702 16.9682C169.278 16.6728 168.939 17.0671 168.686 17.4119C168.125 18.177 167.582 19.0081 166.499 18.8047C165.945 18.6954 165.531 18.6274 165.437 17.9969C165.354 17.4385 165.502 16.87 165.845 16.4249C166.994 14.9215 168.492 15.7713 169.892 16.1223C169.585 15.8699 168.93 15.3124 168.591 15.1812C166.775 14.4774 165.302 15.4473 164.205 13.0338C167.509 11.5653 166.823 13.0473 168.745 14.6057C168.552 13.751 167.572 12.7383 168.528 11.7665C168.951 11.7245 169.129 11.823 169.459 12.1053C170.75 13.2085 170.75 14.671 169.91 16.0634C170.862 18.008 170.667 18.7674 169.402 20.4476C171.253 19.6336 175.049 17.396 174.695 14.9449C174.197 14.5548 173.218 14.3033 173.062 13.7812C173.258 12.9119 174.134 13.1879 174.818 13.2594C173.199 12.6813 171.304 12.3414 171.472 10.0707C171.482 9.93287 171.821 9.68644 171.946 9.63564C173.431 9.13912 175.287 11.7427 175.34 13.0547L175.266 13.2252C174.984 12.7426 175.161 12.7544 174.697 12.4031L174.575 12.4404C174.587 12.8695 174.944 13.6864 175.129 14.0977C175.345 13.8697 175.605 12.5147 175.599 12.0587C174.035 9.92733 173.802 8.13787 176.029 6.33223C176.878 7.23205 177.537 8.41467 177.5 9.6885C177.459 11.1259 176.589 11.9836 176.016 13.1064L175.84 13.3594C176.172 13.5356 176.688 13.1071 177.037 13.2727C176.688 13.7459 176.449 13.2773 176.04 13.8639C175.583 14.3181 175.409 15.0995 175.241 15.7395C174.665 17.9298 172.866 19.4835 170.9 20.4081C170.181 20.7459 169.341 20.9925 168.614 21.3297C172.08 20.8398 178.71 20.727 180.869 17.8383C181.251 17.3267 181.425 16.8364 181.612 16.2381C180.771 14.9053 180.722 14.1315 181.991 13.0829C183.449 14.9666 182.366 15.3746 181.66 17.3658C182.795 16.0343 183.18 16.117 183.205 14.3945C183.288 13.5924 183.446 13.4109 184.008 12.8976C184.38 12.6843 185.084 12.4018 185.514 12.5048C186.561 13.288 184.972 15.0491 184.349 15.6837C185.992 15.1441 186.731 13.7506 188.651 14.5984C188.99 14.7479 189.343 15.1148 189.456 15.4812C189.525 15.6995 189.502 15.9366 189.395 16.1383C189.215 16.4796 188.852 16.6979 188.496 16.7994C186.859 17.2673 186.065 16.427 184.793 16.0309C182.019 16.6021 182.633 17.6937 180.437 19.1263C180.931 19.0412 181.962 18.9483 182.351 18.6905C183.295 18.0199 183.168 17.2502 184.508 17.2453C185.421 17.2419 185.752 17.832 185.226 18.5248C184.267 19.7868 181.681 19.2339 180.408 19.5603C179.25 19.8568 178.181 20.4276 177.075 20.7784C179.096 20.8241 180.939 21.0153 182.944 21.2391C184.073 21.3651 185.608 21.5959 186.712 21.5539C186.868 20.9294 187.033 20.2065 187.759 20.0649C188.278 20.5064 187.644 21.7247 187.988 22.2329C188.236 22.3184 188.184 22.3471 188.38 22.2528C190.344 21.3088 189.908 18.0152 192.594 18.6996C192.72 18.7318 192.836 18.8356 192.916 18.9307C193.843 21.0685 189.091 21.7904 188.765 22.266C188.819 22.497 188.79 22.5608 188.95 22.6797C189.963 23.1225 193.381 24.3996 193.106 25.9087C192.674 26.4321 191.641 26.1247 191.265 25.7515C190.712 25.2013 190.227 24.2222 189.803 23.532C189.572 23.9217 190.118 24.5031 189.533 24.8915C189.249 24.8541 189.026 24.8298 188.843 24.5508C187.86 23.0503 188.024 22.474 186.025 22.2448C184.71 22.0941 183.15 21.9033 181.791 21.9441C183.277 22.6742 184.133 23.2238 184.726 24.8864C185.083 25.8879 185.199 26.7119 185.867 27.5209C187.13 27.9825 188.976 27.6864 189.812 29.024C190.056 29.416 189.721 29.8843 189.329 30.0512C187.656 30.7651 185.71 28.8621 185.07 27.4339C184.801 26.8365 184.659 26.0305 184.418 25.4083C183.015 21.8385 178.723 21.6046 175.479 21.57C174.171 21.556 172.857 21.5711 171.569 21.6598C175.245 22.8531 176.418 23.7228 177.372 27.612C178.828 27.7822 179.843 28.2458 180.806 29.391C181.283 29.958 181.336 30.727 180.478 30.9092C179.491 31.1187 178.089 31.1504 177.406 30.2778C176.985 29.7589 177.264 28.984 177.009 28.66C176.818 28.8559 176.835 29.4065 176.837 29.6909C176.84 29.9392 176.845 30.1874 176.854 30.4355C177.826 32.1329 179.463 31.6856 179.967 33.4349C180.632 35.7383 178.004 35.7756 177.181 34.0643C176.713 33.0571 177.034 32.1029 176.609 30.9352C176.576 32.0896 176.676 34.5213 175.007 34.4709C174.659 34.4607 174.33 34.3087 174.096 34.0493C173.899 33.8297 173.798 33.5384 173.818 33.2425C173.882 32.1624 175.052 31.6105 175.864 31.1586C176.454 30.12 176.825 27.5976 176.494 26.4262C175.52 22.9625 171.624 22.0842 168.522 22.0031C170.079 22.7377 171.476 23.6676 172.049 25.4241C172.466 26.7017 173.002 29.496 172.357 30.7539C171.576 32.2742 170.017 33.0372 168.857 31.3376C168.546 30.1841 170.416 28.2524 171.569 28.2586C171.614 28.4843 171.602 28.5288 171.55 28.7551C171.847 28.4193 171.951 27.9574 172.081 27.5258C171.649 27.7383 170.415 28.3297 170.049 28.5834C168.367 29.7486 167.555 30.778 165.272 30.2423C165.168 30.2179 165.053 30.113 164.987 30.0289C164.7 29.327 165.401 28.2787 166.07 28.0462C168.219 27.3003 170.078 29.0069 171.773 26.6975C171.314 24.2364 169.461 22.1367 166.709 22.5363C165.736 22.6777 164.883 23.5219 164.368 24.3303C162.259 27.9254 161.739 34.0053 156.8 35.0605C156.399 35.1489 155.992 35.2032 155.581 35.2229C155.025 38.9726 152.708 41.5097 148.82 41.6868C146.618 41.787 144.398 41.7348 142.192 41.734L130.024 41.7345L91.9812 41.7363L65.0268 41.7351L57.2047 41.7342C53.8465 41.7336 49.7836 42.2497 47.5397 39.0345C46.6381 37.7426 46.4064 36.7777 46.1208 35.2387C42.5916 35.4193 40.6649 32.8961 39.2743 29.9789C37.9677 27.2373 37.3336 22.4601 33.5625 22.4467C30.6861 22.3468 26.8717 28.2232 31.983 27.9902C32.7992 27.9017 34.8351 27.5303 35.4284 28.3241C36.5185 29.7822 36.7796 30.0669 35.0312 30.3537C33.1526 30.6619 30.325 27.6576 29.3298 27.8174C29.4257 28.3156 33.3376 29.7189 32.1615 31.3469C31.4874 32.2212 30.3879 32.388 29.4897 31.7292C28.285 30.8454 28.4355 29.5688 28.5715 28.2894C28.8793 25.3957 29.6526 23.1531 32.5539 22.017C30.2366 22.0837 27.395 22.4569 25.6908 24.2373C23.8267 26.1846 24.5453 28.243 24.7992 30.5951C25.7479 31.7635 27.1303 32.0611 27.0049 33.333C26.9685 33.6933 26.7885 34.023 26.5066 34.2461C25.9686 34.6759 25.3075 34.5426 24.9317 33.9829C24.382 33.1641 24.4234 32.0647 24.4009 31.1154L24.3458 31.1071C24.0815 31.9429 24.1181 32.5963 24.11 33.4721C23.4847 34.6032 22.9583 35.0728 21.6918 35.5027C21.3433 34.854 21.233 34.6106 21.0123 33.9086C22.2174 30.4861 25.0535 32.78 23.9556 27.8024C23.9356 30.5588 23.2833 31.7049 20.426 30.7143C20.3132 30.6753 20.1558 30.2141 20.1916 30.0785C20.5821 28.5989 22.4721 27.8058 23.6992 27.6006C24.3063 24.4753 25.0989 23.124 28.1636 22.0045C28.4283 21.9077 29.5394 21.7755 29.6501 21.686C29.4872 21.5991 29.3549 21.5991 29.1746 21.6024C25.069 21.6758 18.9478 20.7562 16.7091 25.1312L16.6972 25.155C17.6009 25.2762 18.3004 25.3755 18.8848 26.1656C19.1568 26.5332 19.506 27.4349 19.1983 27.7966C18.0773 29.1141 16.8304 26.8704 16.5004 26.2415L16.3999 26.2535C16.2602 26.7385 16.2 27.0656 16.1153 27.5573C17.5562 29.3932 18.9701 30.3378 15.9221 31.7196C15.5899 31.0145 15.3785 30.6069 15.2174 29.8379C15.4305 29.0017 15.6135 28.491 15.9227 27.6833C15.0523 28.6445 14.0778 30.151 12.7453 30.1638C12.1557 30.1694 11.5032 30.1652 11.0447 29.7506C10.7023 29.0172 11.3252 28.4929 11.8835 28.1864C13.1868 27.4711 15.3293 28.4985 15.7803 26.5197C16.3763 23.9047 16.8694 23.1893 19.3106 21.8967C17.9787 22.0281 13.8299 22.0651 13.0026 22.9515C12.5695 23.4156 12.292 24.7593 11.43 24.9696C11.0441 24.8244 11.1427 24.852 10.8611 24.5057L10.7648 24.4605C10.673 23.962 10.7594 23.9432 10.4376 23.6542C10.5664 23.5367 11.3146 23.1587 11.5114 23.05L12.3766 22.4396C8.86751 23.2204 8.55202 25.5431 4.77246 22.7427C4.9331 22.5466 5.10131 22.357 5.27671 22.1743C7.24322 20.1357 9.11993 21.59 11.2332 22.2214C11.4417 22.2837 12.3105 22.2742 12.5667 22.2714C12.0124 21.99 11.5734 21.8989 10.9817 21.7508C9.93489 21.4886 7.59966 20.2215 8.00889 18.8802C8.38133 18.5439 9.12256 18.6035 9.61429 18.6114C11.62 19.5867 10.1832 20.6947 12.7613 22.0417C12.3289 21.5839 10.5919 19.6848 11.3005 19.0938C13.1113 19.0084 12.3595 20.8122 12.7435 21.4891C12.9949 21.698 12.9323 21.7042 13.2264 21.7542C13.3951 21.4209 12.8837 20.5008 13.095 20.0716L13.2926 20.0619C14.0809 20.5046 14.0934 20.7392 14.5471 21.5784C17.6136 21.4481 20.6857 20.7968 23.8478 20.6597C22.9807 20.3204 22.1187 19.9594 21.198 19.689C19.6213 19.21 17.7278 19.8125 16.3355 18.8112C15.8073 18.4314 15.4998 17.9542 15.9437 17.3917C17.1173 16.7671 18.3292 18.0381 19.028 18.8063C19.6693 18.9471 20.2043 19.0853 20.8353 19.2682C19.0097 17.8393 18.85 16.6534 16.2703 16.0416C13.803 16.7632 13.9215 17.7579 11.2278 15.9635C12.3393 14.3826 12.895 14.2343 14.7499 14.3587C15.243 14.6205 16.4679 15.8805 16.9234 15.6031C16.4383 14.8805 15.0933 13.6307 15.5691 12.7037C16.0504 12.3627 16.8992 12.4657 17.2998 12.9003C18.0192 13.6804 17.9424 14.8468 17.9381 15.8328C18.7489 16.6381 19.2136 16.9867 19.9281 17.9201C19.5807 17.1552 19.2921 16.3399 18.806 15.6472C18.5905 15.3401 18.4294 15.0057 18.2883 14.6589C18.4305 14.1479 18.5361 13.8282 18.8712 13.419C18.992 13.3627 19.1247 13.2679 19.2391 13.348C20.6975 14.369 19.6455 15.9382 20.2309 17.4033C20.6998 18.5773 21.4817 18.9334 22.494 19.4083C23.1495 19.7147 23.8343 19.9524 24.5376 20.1177C25.5112 20.3517 31.5819 21.3126 32.1591 21.0973C31.9877 20.9067 30.4538 20.6306 29.9135 20.3874C29.0914 20.0109 28.3399 19.4933 27.6922 18.8574C27.0655 18.2459 26.5439 17.5328 26.1488 16.7476C25.7771 15.9925 25.404 14.384 24.8705 13.9379C24.6023 13.8249 24.1418 13.9254 23.8353 13.9666C23.3834 14.2857 22.7666 14.8627 22.2667 15.2468C20.6246 14.1295 22.418 13.9011 22.5117 13.1172C21.8325 12.7713 20.6385 12.1931 20.6782 11.3302C20.9712 10.8504 21.429 10.8043 21.9628 10.6676C22.8235 10.8972 23.0742 11.0281 23.7257 11.6302C24.3046 12.309 24.2921 12.6587 25.1495 13.4422C24.8105 12.6848 24.3309 11.9738 23.8846 11.2737C22.8967 9.07195 23.6135 8.07677 24.7907 6.24097C28.9668 9.22295 24.8597 11.9252 25.692 13.4072C26.2607 13.0858 26.9681 8.25313 29.4682 9.99645C29.5831 10.2724 29.4856 10.4523 29.4716 10.722C29.37 12.6805 27.0081 12.4396 26.395 13.0304L26.4014 13.1236C26.7886 13.133 27.3403 13.0958 27.635 13.3071C27.9875 14.2634 26.774 14.462 26.1526 15.0756C27.4087 18.3651 28.6998 19.3062 31.9694 20.5162C30.0765 18.9872 30.3538 17.9646 31.0795 15.9891C30.5902 14.5722 30.1245 13.8475 31.1979 12.4548C31.4422 12.1377 32.2385 11.4312 32.7248 11.878C33.4101 12.5075 32.7314 14.1156 32.4821 14.7856C33.223 13.5563 34.5942 11.6416 36.6211 12.6582C37.9949 13.3473 35.6081 14.9605 34.8267 14.8365C34.0886 14.8926 33.665 14.852 33.0345 14.8081C32.4991 15.1298 32.0199 15.5387 31.6157 16.0181C32.7891 15.6669 33.5545 15.3242 34.817 15.9694C35.4724 16.1979 36.1782 17.5479 35.7938 18.1963C35.3562 18.9341 34.1831 19.0003 33.47 18.5727C32.7529 18.1428 32.0481 16.9094 31.3784 16.8758C31.1602 17.1449 31.1411 17.8436 31.1792 18.1559C31.5282 21.0041 35.3726 21.5189 36.9289 19.3193C37.6161 18.348 38.0121 17.2667 38.4145 16.1492C39.9278 11.9465 41.3704 8.97766 46.1506 8.77402ZM147.827 39.2637C151.101 39.2696 153.126 37.497 153.125 34.0908C153.123 33.7534 153.117 33.416 153.103 33.0788C154.951 33.0852 156.778 33.1026 158.132 31.6217C161.055 28.4249 160.396 24.4497 163.929 21.6086C160.217 20.0117 160.811 13.1767 157.003 11.5567C155.826 11.0559 154.401 11.0675 153.142 11.1318C153.12 7.57596 152.047 4.85798 148.007 4.47043C146.844 4.35893 145.623 4.42505 144.451 4.4249L138.166 4.42664L117.968 4.42935L54.8911 4.43057C54.3994 4.43371 53.9078 4.44921 53.4168 4.47707C49.6077 5.23935 48.4422 7.30648 48.5553 11.1394C46.694 11.1151 44.4891 10.9008 43.1023 12.3312C40.4962 15.0191 40.6908 19.7267 37.3908 21.6838C41.4012 24.8118 40.1388 31.1349 45.0779 32.7786C46.0459 33.1007 47.5733 33.0879 48.614 33.078C48.3488 36.0602 49.5267 38.9997 52.8847 39.2227C54.8344 39.3523 56.8806 39.2757 58.8423 39.2753L69.9506 39.2703L105.158 39.2683L134.735 39.2704L143.719 39.2714C144.496 39.2716 147.214 39.3304 147.827 39.2637ZM46.9159 9.78727C44.9497 9.76257 43.6203 9.93356 42.0986 11.3784C39.4486 13.8947 39.5039 18.5623 36.8181 20.8027C36.3819 21.1665 35.6328 21.4355 35.0953 21.6258L35.1111 21.6974C35.3461 21.7241 35.5778 21.7528 35.814 21.7656C40.4493 20.5229 39.5977 15.0084 42.669 11.9464C44.1954 10.4246 46.0359 10.6591 48.0194 10.6879C48.0258 8.74709 48.1989 7.08929 49.6298 5.63907C51.0443 4.20566 52.3037 3.95127 54.2175 3.94961C61.3078 3.94343 68.4021 3.95015 75.4909 3.95075L117.141 3.94859L138.363 3.94512H144.778C147.344 3.9459 149.96 3.53014 151.904 5.5459C153.398 7.09537 153.699 8.59795 153.723 10.6877C161.511 10.3334 159.348 16.0714 163.264 20.5074C163.782 21.0945 164.962 21.4829 165.718 21.7433C165.943 21.7426 166.392 21.7739 166.552 21.655C164.801 21.1104 163.711 20.4734 162.889 18.7405C160.808 14.3519 160.497 9.7588 154.623 9.76205C154.282 7.56991 153.774 5.80009 151.904 4.39219C150.814 3.5721 149.549 3.1599 148.207 3.11265C145.867 3.03027 143.488 3.05977 141.144 3.06031L128.518 3.05987L89.0851 3.05941L64.8416 3.06443L57.7377 3.06315C53.871 3.06944 49.8838 2.56922 47.8879 6.72015C47.3669 7.80379 47.2276 8.65435 46.9159 9.78727ZM48.0646 33.5237C41.7076 33.9101 41.2904 29.9659 39.158 24.9322C38.5697 23.5432 37.5912 21.629 35.8269 21.9914C37.6057 23.3262 37.9935 24.089 38.8345 26.2012C40.78 31.0879 41.3626 34.119 47.1447 34.3231C47.237 37.4988 48.7678 40.0395 52.0715 40.5134C53.9706 40.7858 55.8637 40.7101 57.7775 40.712L65.2667 40.7134L89.2846 40.713L127.974 40.7139L140.526 40.7047C142.948 40.7032 145.368 40.7373 147.792 40.6729C149.262 40.6339 150.275 40.6122 151.582 39.8378C153.672 38.6 154.575 36.7379 154.496 34.2925C156.281 34.2712 157.896 33.9875 159.182 32.5898C161.258 30.3342 161.924 26.6282 163.411 23.9115C164.001 22.833 165.307 22.2424 165.508 21.9143C165.082 21.9324 164.614 21.9767 164.185 22.0081C160.149 25.2176 161.236 33.8407 154.371 33.5375C154.156 33.528 153.926 33.5312 153.708 33.5265L153.704 33.8508C153.647 37.3864 151.995 39.6729 148.408 39.8193C147.055 39.8744 145.715 39.863 144.365 39.8637L137.154 39.8652L114.324 39.8629L74.5596 39.8612C67.7438 39.8619 60.9266 39.8692 54.1108 39.8517C49.8221 39.8407 47.9657 37.8025 48.0646 33.5237Z" fill="#F9BE18"/>
<path d="M184.008 12.8977C184.473 12.9523 185.029 12.8678 185.37 12.9918C185.187 13.2532 185.113 13.3991 184.816 13.5152C185.041 14.2872 184.227 14.3841 184.24 14.9623L184.472 14.8802C184.519 15.0978 184.437 15.1478 184.315 15.3811C184.129 15.5172 184.097 15.5357 183.87 15.5393C183.377 15.276 183.365 15.0067 183.305 14.4474L183.205 14.3946C183.288 13.5925 183.445 13.4111 184.008 12.8977Z" fill="#FDBB16"/>
<path d="M10.4375 23.6543C10.5663 23.5367 11.3145 23.1587 11.5112 23.05C11.3933 23.442 11.2325 24.1665 10.9575 24.4257L10.9405 24.4419C10.9116 24.4691 10.8936 24.4839 10.8609 24.5057L10.7646 24.4605C10.6729 23.9621 10.7593 23.9432 10.4375 23.6543Z" fill="#FDBB16"/>
<path d="M48.0188 10.6879C48.0253 8.74708 48.1983 7.08928 49.6293 5.63906C51.0437 4.20565 52.3032 3.95126 54.217 3.9496C61.3073 3.94342 68.4016 3.95014 75.4904 3.95074L117.14 3.94858L138.362 3.94511H144.777C147.344 3.94589 149.96 3.53013 151.903 5.54589C153.397 7.09536 153.698 8.59794 153.722 10.6877C161.511 10.3334 159.347 16.0714 163.263 20.5074C163.781 21.0945 164.962 21.4829 165.718 21.7433L165.508 21.9143C165.082 21.9324 164.613 21.9767 164.184 22.008C160.148 25.2176 161.235 33.8407 154.371 33.5375C154.155 33.528 153.926 33.5312 153.708 33.5265L153.704 33.8508C153.646 37.3864 151.995 39.6729 148.407 39.8192C147.054 39.8744 145.715 39.8629 144.364 39.8637L137.153 39.8652L114.323 39.8628L74.5591 39.8612C67.7433 39.8619 60.9261 39.8692 54.1103 39.8517C49.8216 39.8407 47.9651 37.8025 48.0641 33.5237C41.7071 33.9101 41.2898 29.9659 39.1575 24.9322C38.5691 23.5432 37.5907 21.629 35.8264 21.9914L35.8135 21.7656C40.4488 20.5229 39.5972 15.0084 42.6685 11.9464C44.1949 10.4246 46.0354 10.6591 48.0188 10.6879ZM48.5548 11.1394C46.6935 11.1151 44.4886 10.9008 43.1018 12.3312C40.4957 15.0191 40.6903 19.7267 37.3903 21.6838C41.4007 24.8118 40.1383 31.1349 45.0773 32.7786C46.0454 33.1007 47.5728 33.0879 48.6135 33.0779C48.3482 36.0602 49.5262 38.9997 52.8842 39.2227C54.8339 39.3522 56.8801 39.2757 58.8418 39.2753L69.9501 39.2703L105.157 39.2683L134.734 39.2704L143.719 39.2714C144.496 39.2716 147.214 39.3304 147.827 39.2637C151.1 39.2696 153.126 37.497 153.125 34.0908C153.123 33.7534 153.116 33.416 153.102 33.0788C154.951 33.0852 156.777 33.1026 158.132 31.6217C161.055 28.4249 160.395 24.4497 163.929 21.6086C160.217 20.0117 160.81 13.1767 157.003 11.5567C155.826 11.0559 154.4 11.0675 153.141 11.1318C153.12 7.57595 152.047 4.85797 148.007 4.47042C146.844 4.35892 145.623 4.42504 144.45 4.42489L138.166 4.42663L117.968 4.42934L54.8906 4.43056C54.3989 4.4337 53.9073 4.4492 53.4163 4.47706C49.6072 5.23934 48.4417 7.30648 48.5548 11.1394Z" fill="#FDBB16"/>
<path d="M94.6095 8.38818L94.7527 8.54893C94.7857 8.68443 94.7841 8.81026 94.7485 8.94432C94.5555 9.674 94.1662 10.2728 93.6075 10.7654C92.1014 12.0929 87.4893 13.8044 85.3957 15.051C84.9771 15.3003 84.3792 15.6847 84.2561 16.186C84.2083 16.3807 84.2233 16.556 84.3321 16.7282C84.9178 17.6546 86.5447 18.8704 87.3889 19.7502C88.821 21.243 90.0379 22.9902 91.6282 24.3247C92.1447 24.758 92.7367 25.1354 93.4018 25.274C93.9976 25.3982 94.8159 25.3436 95.3326 24.9892C95.5481 24.8413 95.7067 24.5882 95.7533 24.3291C95.8605 23.7317 94.7797 16.4263 94.5069 15.4746C94.3805 15.0334 94.1392 14.6682 93.888 14.2915C94.2148 13.4438 94.6739 12.6525 95.1977 11.9155C95.5332 12.9639 95.8812 13.7429 96.6241 14.5704C96.4774 14.8647 96.3152 15.1746 96.2654 15.5033C95.9062 17.8714 97.3998 21.8006 96.9682 24.4893C96.8073 25.4913 96.3499 26.6798 95.5073 27.283C94.872 27.738 94.0411 27.8718 93.2837 27.7302C91.3362 27.3662 89.4385 25.1412 88.3665 23.5517C88.2628 24.3766 87.9772 25.0624 87.6067 25.7983C87.0828 26.5656 86.4651 27.1096 85.6166 27.4675C84.0865 28.1128 82.3017 27.9857 80.7925 27.3596C80.9279 28.3917 80.9484 29.2676 80.5971 30.26C80.1215 31.6028 79.1686 32.8611 77.8741 33.475C75.978 34.3742 73.3773 33.5783 71.5146 32.8958C73.1785 32.6596 74.8742 32.6558 76.4238 31.9126C77.7988 31.2533 79.3544 29.93 79.8688 28.4329C80.2938 27.1961 79.1513 26.6686 78.7219 25.7457C78.3343 24.9128 78.8845 23.6904 79.1749 22.902C79.8957 23.9076 80.4668 24.8142 81.7727 25.219C83.2085 25.6641 88.543 25.5927 87.1671 22.8149C86.4307 21.3282 84.3274 20.1897 83.4463 18.6092C82.0477 16.1006 83.836 14.2476 85.8029 12.9379C88.553 11.0462 91.7738 10.0636 94.6095 8.38818Z" fill="#F9BE18"/>
<path d="M134.519 12.0347C134.823 12.3236 135.045 13.278 135.275 13.6957C135.478 14.0624 135.754 14.3942 136.02 14.7157C135.77 15.1073 135.58 15.5171 135.388 15.9393C135.783 17.9198 136.554 22.2951 136.432 24.2179C136.39 24.8702 136.237 25.5331 135.922 26.107C135.48 26.9089 134.789 27.4506 133.918 27.6988C131.873 28.2811 129.706 27.589 127.932 26.5702C126.223 27.5305 125.06 27.9374 123.131 27.4025C123.183 28.701 123.117 29.9051 122.568 31.1016C121.985 32.3735 120.938 33.404 119.629 33.8842C117.659 34.6061 115.101 33.6958 113.292 32.8399C116.355 32.7042 117.837 33.2429 120.372 31.0368C121.014 30.4502 121.654 29.7332 122.063 28.9572C122.932 27.3121 121.471 27.096 121.093 25.7764C120.808 24.7792 121.44 23.7423 121.898 22.903C122.042 23.2809 122.182 23.6778 122.419 24.0062C123.469 25.4551 125.299 25.2049 126.847 25.4563C126.377 25.0032 126.074 24.5781 125.955 23.9192C125.738 22.722 126.182 21.3691 126.861 20.3872C127.335 19.7022 128 19.106 128.839 18.9638C129.33 18.8804 129.84 18.9584 130.249 19.2607C130.803 19.6702 131.063 20.423 131.164 21.0837C131.396 22.5979 130.814 23.7442 129.959 24.9331C131.746 25.3747 133.438 25.7426 135.152 24.8645C135.201 23.3482 134.783 21.652 134.564 20.1446C134.376 18.8419 134.263 17.5124 134.016 16.2207C133.87 15.459 133.62 15.2133 132.988 14.78C133.428 13.8159 133.866 12.8725 134.519 12.0347ZM128.761 24.2826C129.341 23.9985 129.845 23.5716 130.059 22.9389C130.195 22.5343 130.213 22.0974 130.024 21.7058C129.819 21.2792 129.375 21.0453 128.949 20.8989C128.817 20.8535 128.69 20.84 128.551 20.8545C127.946 21.1319 127.295 21.4688 127.046 22.1402C126.933 22.4406 126.943 22.7744 127.075 23.067C127.368 23.7193 128.039 24.0207 128.668 24.2501C128.699 24.2613 128.729 24.2722 128.761 24.2826Z" fill="#F9BE18"/>
<path d="M71.1396 17.345C71.5699 17.5819 72.0473 18.5222 72.2894 18.9744C73.0903 20.4705 73.6308 22.4644 73.1322 24.1443C72.8628 25.0515 72.29 25.8176 71.4582 26.2668C70.0252 27.0405 68.2173 26.7451 66.739 26.289C66.8068 26.8079 66.888 27.3455 66.7779 27.8641C66.6709 28.367 66.4017 28.8384 65.9687 29.1202C65.4887 29.4326 64.9035 29.4902 64.354 29.3634C63.6043 29.1906 62.9642 28.6617 62.568 28.0047C61.88 26.864 61.9658 25.6894 62.2669 24.4494C61.4396 24.7466 60.5407 25.0915 59.9015 25.724C59.6623 25.9607 59.3921 26.299 59.347 26.6451C59.2184 27.6328 59.6828 28.9433 59.8654 29.9192C60.1732 31.5638 60.4732 33.2169 60.4627 34.8953C60.4201 35.4101 60.3504 36.1177 60.0618 36.5554C59.9938 36.6584 59.9509 36.6476 59.8384 36.6702C59.8016 36.6057 59.7633 36.5338 59.746 36.461C59.5375 35.5811 59.5343 34.5592 59.3811 33.6506C58.9208 30.9212 57.6099 27.0043 59.0907 24.4664C59.8687 23.1329 61.2417 22.8403 62.6048 22.4825C62.77 22.117 62.9329 21.6092 63.2463 21.3536C63.3142 21.2982 63.4086 21.3351 63.4925 21.3458C63.7774 21.6762 63.8047 22.2461 63.8773 22.6665C65.0489 23.7801 66.8201 24.5027 68.415 24.6069C69.3569 24.6684 70.7765 24.6223 71.5119 23.9527C71.7787 23.7097 71.9252 23.4005 71.9399 23.037C71.986 21.9006 70.8423 20.8455 70.1395 20.0671C70.5655 19.2033 70.8174 18.2527 71.1396 17.345ZM65.6562 27.3999C65.8436 26.8915 65.686 26.5996 65.4892 26.1061C64.7243 25.5418 63.9643 24.9706 63.2095 24.3926C63.1323 25.3989 63.1753 26.2154 63.8537 27.0248C64.1422 27.3691 64.5147 27.584 64.9632 27.615C65.1802 27.63 65.3174 27.5943 65.5083 27.4884C65.5592 27.4602 65.6083 27.4335 65.6562 27.3999Z" fill="#F9BE18"/>
<path d="M112.622 20.2114C113.046 20.4728 113.446 21.4453 113.665 21.8897C114.648 23.8757 115.287 25.8579 114.559 28.059C114.05 29.5947 112.864 30.8222 111.446 31.5329C110.023 32.245 108.262 32.3868 106.755 31.867C105.701 31.5036 104.754 30.7989 104.259 29.7692C103.573 28.3426 103.878 26.7264 104.365 25.2951C104.467 25.0399 104.578 24.7888 104.699 24.5423C104.884 24.1589 105.161 23.4235 105.583 23.2759L105.769 23.3954C105.722 24.4443 105.056 25.3786 105.014 26.4825C104.98 27.386 105.266 28.1616 105.875 28.8213C106.499 29.4976 107.629 29.6646 108.504 29.6886C110.062 29.7315 111.997 29.3072 113.157 28.1788C113.545 27.8011 113.806 27.3209 113.816 26.7676C113.838 25.4392 112.437 24.039 111.594 23.1493C112.061 22.2003 112.348 21.232 112.622 20.2114Z" fill="#F9BE18"/>
<path d="M99.3186 12.0093L99.4416 12.0513C99.5188 12.1301 99.5764 12.2059 99.59 12.3187C99.7961 13.9798 99.8684 15.6692 100.069 17.3366C100.328 19.5013 100.728 21.7134 100.847 23.8873C100.924 25.2813 100.789 26.9404 99.8313 28.0268C99.7043 24.832 99.1369 21.6392 98.6906 18.4783C98.5324 17.3569 98.1135 15.6834 98.2317 14.5957C98.3361 13.6314 98.8254 12.8159 99.3186 12.0093Z" fill="#F9BE18"/>
<path d="M116.845 11.9421C117.099 12.2865 118.385 23.9409 118.378 24.9565C118.37 25.9833 118.037 27.3887 117.296 28.1255C117.076 27.4616 117.054 24.8149 116.94 23.8549C116.696 21.815 116.415 19.7771 116.141 17.7412C116.004 16.7342 115.792 15.6914 115.748 14.6776C115.707 13.7367 116.239 12.6166 116.845 11.9421Z" fill="#F9BE18"/>
<path d="M138.816 12.1396C138.821 12.1468 138.828 12.1536 138.835 12.1611C139.092 12.4807 139.05 14.1063 139.082 14.5594C139.26 17.007 139.663 19.4435 139.951 21.8805C140.075 22.9277 140.296 24.1335 140.213 25.1886C140.144 26.0799 139.851 27.401 139.153 27.9983C138.91 27.1849 138.964 25.3817 138.848 24.4162C138.6 22.3561 138.28 20.2998 137.991 18.2448C137.846 17.2073 137.637 16.1242 137.603 15.0774C137.572 14.0887 138.159 12.8481 138.816 12.1396Z" fill="#F9BE18"/>
<path d="M120.264 7.7998C120.362 7.87587 120.377 7.98247 120.415 8.10635C120.277 8.5971 119.465 9.39719 119.094 9.69502C117.182 11.2302 115.846 10.3266 113.854 9.92242C112.605 9.66906 112.999 10.8851 112.54 11.2686L112.397 11.2155C112.176 10.7394 111.887 9.68263 112.091 9.21434C112.967 7.19784 116.107 9.20086 117.721 8.90128C118.793 8.70252 119.398 8.24916 120.264 7.7998Z" fill="#F9BE18"/>
<path d="M71.5251 28.446C72.2146 28.7569 72.723 29.5635 73.3855 30.0024C72.844 30.655 72.1897 31.2105 71.5647 31.7791C71.1477 31.3079 70.6634 30.8845 70.2068 30.4523C69.9206 30.7558 69.6369 31.0712 69.3301 31.3532C69.1206 31.5456 68.9249 31.7859 68.6375 31.7725C68.023 31.1471 67.3411 30.5797 66.6592 30.0324C67.1462 29.4936 67.6336 28.9789 68.1782 28.4993C68.8062 28.9492 69.3964 29.4622 69.9943 29.9522C70.4928 29.4394 71.0143 28.9464 71.5251 28.446Z" fill="#F9BE18"/>
<path d="M126.827 13.5884C127.41 13.8532 128.023 14.4886 128.571 14.8697C128.877 14.4133 129.274 14.0085 129.638 13.5981C130.037 13.9002 130.587 14.2275 130.909 14.6082C131.097 14.8295 131.158 15.0255 131.135 15.3135C130.985 15.8071 130.336 16.3108 129.931 16.5973C129.394 16.2776 128.897 15.8775 128.397 15.5026C128.069 15.9905 127.615 16.4082 127.207 16.8282C126.523 16.415 125.887 15.9654 125.247 15.4874C125.675 14.8081 126.3 14.189 126.827 13.5884Z" fill="#F9BE18"/>
<path d="M108.298 17.2937C108.968 17.6712 109.623 18.2309 110.255 18.6825C109.84 19.2931 109.436 19.8948 108.925 20.4292C108.242 20.011 107.55 19.6114 106.847 19.2305C107.253 18.5473 107.81 17.9199 108.298 17.2937Z" fill="#F9BE18"/>
<path d="M23.0518 31.9412C23.0586 31.9433 23.0656 31.9447 23.0721 31.9477C23.1372 31.9764 23.4242 32.1092 23.4477 32.1591C23.5597 32.3975 23.5566 32.6567 23.4696 32.9038C23.2918 33.4082 23.0508 33.6919 22.5782 33.9239C22.5135 33.7879 22.4345 33.6833 22.3377 33.5688C22.2278 33.6192 22.1587 33.6498 22.0342 33.6285C22.0476 33.1903 22.7856 32.3266 23.0518 31.9412Z" fill="#FDBB16"/>
<path d="M187.521 15.1803C187.845 15.1389 188.153 15.0846 188.475 15.1668L188.524 15.2897C188.338 15.3155 188.152 15.345 187.967 15.3781C188.198 15.439 188.567 15.4787 188.718 15.6594C188.297 15.8079 187.825 15.8091 187.384 15.8414C186.766 15.8403 186.184 15.8028 185.573 15.7012C186.254 15.6191 186.932 15.6115 187.615 15.5688L187.376 15.4272L187.354 15.2994L187.521 15.1803Z" fill="#FDBB16"/>
<path d="M172.446 10.2881C172.604 10.3564 172.764 10.4282 172.909 10.52C173.428 10.8464 174.263 11.7915 174.392 12.3794C173.965 11.8086 172.619 10.8873 172.446 10.2881Z" fill="#FDBB16"/>
<path d="M177.663 32.436L177.996 32.7571L178.075 32.4943C178.384 32.6076 178.742 33.0581 178.932 33.3295C179.057 33.5079 179.102 33.5406 179.064 33.7585C178.863 33.7009 178.708 33.3386 178.546 33.1861C178.419 33.2436 178.295 33.2929 178.163 33.3364C177.9 33.182 177.776 32.714 177.663 32.436Z" fill="#FDBB16"/>
<path d="M29.6826 28.863C29.8312 28.9251 29.9656 29.0423 30.0825 29.1522C30.4224 29.4712 30.371 29.9839 30.3866 30.4208C30.6385 30.7439 30.909 31.0629 31.0981 31.4288C29.9214 30.6985 30.394 29.8614 29.6826 28.863Z" fill="#FDBB16"/>
<path d="M13.437 15.4365C13.9338 15.3662 14.4661 15.4398 14.9421 15.5906L14.9192 15.6874L14.5537 15.7669C13.9872 15.5802 13.3825 15.7332 12.7988 15.6324C12.9464 15.4768 13.2346 15.4698 13.437 15.4365Z" fill="#FDBB16"/>
<path d="M23.2354 28.3687L23.3032 28.447C23.3009 28.4591 23.2987 28.4714 23.2962 28.4835C23.2208 28.8366 22.2346 29.853 21.9077 30.0684L21.8281 29.9289C22.3231 29.4051 22.6563 28.8162 23.2354 28.3687Z" fill="#FDBB16"/>
<path d="M168.638 16.626L168.614 16.7809C167.994 17.1432 167.388 17.5353 166.78 17.9183C166.76 17.8188 166.796 17.7585 166.83 17.6661C167.341 17.2117 167.971 16.79 168.638 16.626Z" fill="#FDBB16"/>
<path d="M32.2608 14.1094L32.3104 14.2746C32.1757 14.6449 31.8004 14.7567 31.6011 15.1049C31.679 15.3015 31.6913 15.4148 31.6365 15.6207L31.6309 15.6414L31.4542 15.6057C31.3154 15.4296 31.3272 15.3949 31.3223 15.1661C31.5268 14.7429 31.9255 14.4264 32.2608 14.1094Z" fill="#FDBB16"/>
<path d="M177.312 28.1814C177.608 28.2342 178.165 28.6333 178.42 28.8092C178.653 28.9692 178.685 29.1432 178.731 29.4042C178.153 28.963 177.736 28.814 177.312 28.1814Z" fill="#FDBB16"/>
<path d="M31.9982 12.6365C32.0218 13.1167 31.6184 13.829 31.4284 14.2789L31.3613 14.0739C31.4276 13.5226 31.6749 13.0762 31.9982 12.6365Z" fill="#FDBB16"/>
<path d="M170.779 29.1211C170.93 29.2463 171.102 29.2362 171.286 29.2426L171.358 29.339L171.124 29.6403L171.006 29.5142C170.889 29.527 170.818 29.5707 170.722 29.6354L170.687 29.6597L170.567 29.6335C170.579 29.4344 170.681 29.287 170.779 29.1211Z" fill="#FDBB16"/>
<path d="M27.7862 11.4653C27.8252 11.4739 27.8694 11.5288 27.8999 11.5566C27.7001 11.897 27.3134 12.1431 27.008 12.3835L26.8779 12.309C27.0468 11.9665 27.4906 11.6979 27.7862 11.4653Z" fill="#FDBB16"/>
<path d="M186.652 28.1946C187.153 28.1859 187.793 28.4173 188.236 28.6445C187.666 28.6866 187.129 28.494 186.652 28.1946Z" fill="#FDBB16"/>
<path d="M34.1449 13.5073L34.3484 13.5754C34.244 13.858 33.9056 14.0391 33.6669 14.2224L33.5361 14.1924C33.6054 13.9241 33.94 13.6981 34.1449 13.5073Z" fill="#FDBB16"/>
<path d="M35.3365 13.7466L35.3856 13.8051L35.3684 13.9589C35.0952 14.2114 34.7262 14.304 34.3816 14.4172L34.3633 14.3988L34.376 14.2777L35.3365 13.7466Z" fill="#FDBB16"/>
<path d="M8.125 22.2894C8.53023 22.1794 9.11266 22.1888 9.5087 22.328C9.04132 22.5027 8.5777 22.4976 8.125 22.2894Z" fill="#FDBB16"/>
<path d="M166.634 13.7317C167.021 13.8172 167.408 14.1767 167.682 14.4519C167.568 14.4352 167.454 14.4056 167.345 14.372C166.982 14.2612 166.809 14.06 166.634 13.7317Z" fill="#FDBB16"/>
<path d="M175.529 9.56519C175.599 10.0239 175.599 10.4155 175.557 10.8749C175.349 10.3761 175.337 10.0713 175.529 9.56519Z" fill="#FDBB16"/>
<path d="M191.636 21.6082C192.985 21.0603 196.02 20.8817 195.978 22.8961C195.749 23.3802 195.094 23.7182 194.627 23.9197C193.412 24.4435 191.454 23.5056 190.463 22.7152C190.422 22.7428 191.569 21.6735 191.636 21.6082Z" fill="#F9BE18"/>
<path d="M176.458 12.9274C177.051 12.1393 177.946 10.9246 178.954 10.8276C180.553 10.6737 180.577 12.4322 179.23 12.9614C178.557 13.22 178.309 13.0644 177.846 13.2636C178.173 13.3607 178.585 13.2201 178.85 13.5269C179.309 14.0571 179.668 14.8203 178.885 15.2749C177.738 14.8165 177.353 13.7556 176.04 13.8639C176.448 13.2773 176.688 13.746 177.037 13.2727C176.688 13.1071 176.172 13.5357 175.84 13.3595L176.016 13.1064L176.458 12.9274Z" fill="#F9BE18"/>
<path d="M176.458 12.9274L176.556 13.14C176.815 13.1519 176.952 13.1233 177.166 12.9247C177.229 12.865 177.29 12.8031 177.35 12.7393C178.003 12.7742 178.658 12.9542 179.23 12.9614C178.557 13.2201 178.309 13.0645 177.846 13.2637C178.173 13.3608 178.585 13.2202 178.85 13.5269C179.309 14.0572 179.668 14.8203 178.885 15.2749C177.738 14.8166 177.353 13.7556 176.04 13.864C176.448 13.2773 176.688 13.746 177.037 13.2728C176.688 13.1072 176.172 13.5357 175.84 13.3595L176.016 13.1065L176.458 12.9274Z" fill="#FDBB16"/>
<path d="M169.867 23.9557C169.975 23.9377 170.071 24.0106 170.163 24.0611C170.399 24.3494 170.473 24.6398 170.457 25.0131C170.434 25.5267 170.179 26.0337 169.802 26.3753C169.134 26.9795 168.483 26.9223 167.651 26.8727C167.415 26.7769 167.159 26.623 167.024 26.396C166.878 26.1517 166.892 25.8107 166.957 25.5423C167.267 24.2549 168.954 24.5275 169.839 23.9735L169.867 23.9557Z" fill="#F9BE18"/>
<path d="M169.578 24.5569L169.664 24.5706C169.511 24.8182 169.24 24.9129 168.988 25.05L168.808 24.8641C168.931 24.6629 169.345 24.6195 169.578 24.5569Z" fill="#FDBB16"/>
<path d="M184.844 27.3779C184.948 27.8073 185.148 28.1702 185.32 28.5715C185.641 29.3165 185.785 30.4236 185.482 31.1837C185.406 31.3712 185.299 31.5234 185.107 31.6009C184.907 31.6816 184.705 31.5265 184.517 31.4423C184.232 31.3404 183.907 31.0873 183.695 30.8739C183.431 30.6078 183.265 30.2707 183.269 29.8879C183.279 28.8316 184.161 28.0645 184.844 27.3779Z" fill="#F9BE18"/>
<path d="M184.07 29.2219C184.286 29.5557 184.172 30.0872 184.13 30.463C184.123 30.452 184.116 30.4412 184.109 30.4301C183.882 30.0599 183.983 29.6175 184.07 29.2219Z" fill="#FDBB16"/>
<path d="M31.0574 24.2491C31.3223 24.2119 31.6099 24.185 31.8764 24.2062C32.5497 24.2596 33.4249 24.617 33.8607 25.1509C34.0456 25.3775 34.1396 25.6307 34.1089 25.926C34.0674 26.3247 33.8715 26.4902 33.5736 26.7329C33.5591 26.7378 33.5446 26.7425 33.53 26.7469C32.8858 26.9436 32.3817 26.967 31.7772 26.6301C31.3599 26.3976 31.0222 26.0555 30.889 25.5833C30.7489 25.0869 30.8109 24.6933 31.0574 24.2491Z" fill="#F9BE18"/>
<path d="M183.461 27.6152C183.25 27.7755 182.213 28.1603 182.012 27.9651C180.941 26.9268 183.219 24.7317 184.147 25.1398C184.321 25.4144 184.278 25.3171 184.254 25.6764C184.351 26.6994 184.239 26.9115 183.461 27.6152Z" fill="#F9BE18"/>
<path d="M183.461 27.6153C183.54 26.7502 183.714 26.3765 184.254 25.6765C184.351 26.6995 184.239 26.9116 183.461 27.6153Z" fill="#FDBB16"/>
<path d="M10.7641 24.4605C10.3768 25.2764 9.16128 26.9591 8.21467 25.9964C7.83562 24.8284 9.60289 23.9947 10.437 23.6543C10.7587 23.9432 10.6723 23.9621 10.7641 24.4605Z" fill="#F9BE18"/>
<path d="M173.723 24.2212C173.851 24.234 173.993 24.2785 174.115 24.3216C174.354 24.4065 174.582 24.5925 174.689 24.8281C174.782 25.031 174.77 25.2537 174.691 25.4587C174.546 25.8363 174.221 25.9768 173.878 26.1348C173.371 25.952 172.97 25.8199 172.678 25.3285C172.658 25.1459 172.626 25.0437 172.707 24.8731C172.891 24.4805 173.348 24.358 173.723 24.2212Z" fill="#F9BE18"/>
<path d="M26.5522 28.5823C26.8867 28.6736 27.3218 28.739 27.5583 29.0111C27.6121 29.1641 27.675 29.2497 27.6174 29.4076C27.4841 29.7731 27.0333 29.9577 26.7088 30.106C26.4786 30.1393 26.2378 30.1691 26.0078 30.1179C25.7253 30.055 25.5869 29.8813 25.4436 29.6484C25.4341 29.4805 25.4341 29.3231 25.5191 29.1732C25.7413 28.781 26.149 28.69 26.5522 28.5823Z" fill="#F9BE18"/>
<path d="M26.9762 24.3306C27.0758 24.3376 27.1752 24.3472 27.2743 24.3593C27.6163 24.4023 28.0586 24.5388 28.2736 24.835C28.4251 25.0441 28.3946 25.1668 28.359 25.406C28.1788 25.7109 27.9329 25.8191 27.6249 25.967C27.5267 26.0012 27.4162 26.0375 27.3113 26.0426C27.087 26.0535 26.7674 25.9239 26.6083 25.7655C26.4589 25.6167 26.4204 25.3854 26.423 25.1812C26.4277 24.8126 26.7334 24.5701 26.9762 24.3306Z" fill="#F9BE18"/>
<path d="M173.799 28.7777C174.079 28.7643 174.391 28.7343 174.668 28.7758C174.91 28.8121 175.29 28.9721 175.436 29.1779C175.536 29.3196 175.557 29.4363 175.521 29.6062C175.456 29.906 175.157 30.1062 174.926 30.2687C174.503 30.1681 174.002 30.073 173.633 29.8355C173.411 29.6935 173.361 29.591 173.306 29.3391C173.386 29.058 173.576 28.9409 173.799 28.7777Z" fill="#F9BE18"/>
<path d="M189.445 18.9502C189.508 18.9715 189.588 18.9856 189.633 19.0354C189.791 19.2136 189.813 19.4591 189.796 19.6891C189.742 20.4236 189.221 21.1337 188.687 21.5962C188.611 21.5629 188.562 21.5307 188.514 21.463C188.205 21.034 188.445 20.1495 188.517 19.6562C188.791 19.3744 189.12 19.1672 189.445 18.9502Z" fill="#F9BE18"/>
<path d="M14.5594 24.4443C14.7543 24.4246 14.952 24.4036 15.1479 24.4017C15.3929 24.3992 15.5479 24.4708 15.7228 24.6446C15.7843 24.8053 15.8444 24.8939 15.8086 25.0663C15.7236 25.4751 15.3787 25.7124 15.0524 25.9223C14.9437 25.9455 14.8314 25.9674 14.7201 25.9705C14.4645 25.9778 14.2761 25.833 14.1001 25.6672C14.0069 25.4897 13.9384 25.3347 13.9824 25.1286C14.0515 24.8043 14.3028 24.618 14.5594 24.4443Z" fill="#F9BE18"/>
<path d="M185.174 24.3081C185.639 24.326 186.051 24.3669 186.46 24.6205C186.647 24.7361 186.823 24.9098 186.867 25.1352C186.928 25.4412 186.766 25.6056 186.607 25.8399C186.29 25.8446 185.935 25.7558 185.644 25.6349C185.382 25.5261 185.157 25.344 185.055 25.07C184.953 24.8004 185.069 24.5564 185.174 24.3081Z" fill="#F9BE18"/>
<path d="M188.765 22.2662C190.426 22.2998 190.141 22.1921 191.636 21.6084C191.569 21.6737 190.422 22.743 190.463 22.7154C190.062 22.6792 189.246 22.5112 188.949 22.6799C188.79 22.561 188.818 22.4972 188.765 22.2662Z" fill="#FDBB16"/>
<path d="M23.8845 11.2739C24.3308 11.974 24.8104 12.685 25.1494 13.4424C24.292 12.6589 24.3045 12.3092 23.7256 11.6304L23.8845 11.2739Z" fill="#453001" fill-opacity="0.0196078"/>
</svg>
